{"glyphs":{"0":{"ha":910,"x_min":0,"x_max":0,"o":"m 454 89 b 692 489 617 89 692 293 b 454 892 692 685 617 892 b 218 489 293 892 218 685 b 454 89 218 293 293 89 m 454 -24 b 83 489 204 -24 83 240 b 454 1004 83 738 204 1004 b 826 489 706 1004 826 738 b 454 -24 826 240 706 -24 "},"1":{"ha":475,"x_min":0,"x_max":0,"o":"m 204 740 l 28 740 l 28 847 l 72 847 b 221 981 172 847 221 871 l 333 981 l 333 0 l 204 0 "},"2":{"ha":776,"x_min":0,"x_max":0,"o":"m 33 136 b 561 707 175 214 561 463 b 383 892 561 815 494 892 b 192 654 276 892 197 832 l 54 685 b 383 1004 60 901 214 1004 b 696 707 575 1004 696 879 b 199 107 696 457 400 226 l 715 107 l 715 0 l 33 0 "},"3":{"ha":797,"x_min":0,"x_max":0,"o":"m 182 328 b 383 89 190 167 272 89 b 593 276 515 89 593 178 b 374 457 593 375 521 457 l 254 457 l 254 569 l 371 569 b 569 738 493 569 569 656 b 386 892 569 835 492 892 b 199 686 243 892 201 775 l 63 717 b 386 1004 65 819 153 1004 b 704 738 568 1004 704 910 b 506 517 704 656 642 542 b 728 275 661 492 728 383 b 383 -24 728 124 613 -24 b 43 301 213 -24 58 83 "},"4":{"ha":782,"x_min":0,"x_max":0,"o":"m 28 376 l 414 981 l 594 981 l 594 364 l 771 364 l 771 257 l 594 257 l 594 0 l 464 0 l 464 257 l 28 257 m 464 364 l 464 854 l 163 364 "},"5":{"ha":807,"x_min":0,"x_max":0,"o":"m 210 267 b 401 89 233 160 294 89 b 610 326 531 89 610 188 b 419 549 610 440 542 549 b 225 408 300 549 240 461 l 88 435 l 154 981 l 706 981 l 706 868 l 264 868 l 224 558 b 442 661 247 599 329 661 b 740 326 633 661 740 503 b 401 -24 740 121 608 -24 b 76 238 221 -24 113 88 "},"6":{"ha":825,"x_min":0,"x_max":0,"o":"m 606 749 b 451 892 576 854 526 892 b 217 501 267 892 222 640 b 451 647 242 576 331 647 b 758 322 631 647 758 508 b 440 -24 758 100 600 -24 b 83 468 146 -24 83 253 b 456 1004 83 713 174 1004 b 743 776 572 1004 696 935 m 436 89 b 629 321 536 89 629 171 b 435 536 629 454 538 536 b 236 318 289 536 236 396 b 436 89 236 176 322 89 "},"7":{"ha":717,"x_min":0,"x_max":0,"o":"m 119 0 b 558 868 219 256 468 715 l 15 868 l 15 981 l 696 981 l 696 865 b 260 0 572 669 354 233 "},"8":{"ha":825,"x_min":0,"x_max":0,"o":"m 275 524 b 103 747 169 556 103 646 b 413 1004 103 854 199 1004 b 722 747 626 1004 722 854 b 550 524 722 646 660 557 b 756 261 671 497 756 408 b 413 -24 756 119 632 -24 b 69 263 179 -24 69 139 b 275 524 69 408 157 494 m 199 265 b 413 89 199 185 268 89 b 625 265 557 89 625 185 b 413 464 625 363 581 464 b 199 265 244 464 199 353 m 233 740 b 413 579 233 675 281 579 b 592 740 544 579 592 675 b 413 894 592 810 533 894 b 233 740 292 894 233 810 "},"9":{"ha":825,"x_min":0,"x_max":0,"o":"m 218 238 b 374 89 243 129 299 89 b 608 501 571 89 599 356 b 375 357 583 428 494 357 b 67 678 188 357 67 501 b 386 1004 67 875 222 1004 b 740 513 674 1004 740 733 b 369 -24 740 271 657 -24 b 79 208 258 -24 122 50 m 390 468 b 586 674 517 468 586 586 b 388 892 586 788 510 892 b 197 674 281 892 197 794 b 390 468 197 554 289 468 "},"\u0000":{"ha":0,"x_min":0,"x_max":0,"o":""},"\r":{"ha":269,"x_min":0,"x_max":0,"o":""}," ":{"ha":269,"x_min":0,"x_max":0,"o":""},"!":{"ha":406,"x_min":0,"x_max":0,"o":"m 125 156 l 281 156 l 281 0 l 125 0 m 128 981 l 278 981 l 263 242 l 143 242 "},"\"":{"ha":518,"x_min":0,"x_max":0,"o":"m 107 981 l 207 981 l 207 583 l 107 583 m 311 981 l 411 981 l 411 583 l 311 583 "},"#":{"ha":894,"x_min":0,"x_max":0,"o":"m 250 325 l 36 325 l 36 424 l 264 424 l 283 558 l 74 558 l 74 658 l 297 658 l 343 981 l 449 981 l 403 658 l 538 658 l 583 981 l 689 981 l 643 658 l 857 658 l 857 558 l 628 558 l 608 424 l 819 424 l 819 325 l 594 325 l 549 0 l 444 0 l 490 325 l 354 325 l 308 0 l 204 0 m 504 424 l 524 558 l 388 558 l 368 424 "},"$":{"ha":894,"x_min":0,"x_max":0,"o":"m 406 -22 b 53 300 226 -10 76 97 l 190 322 b 406 92 197 179 294 104 l 406 449 b 78 722 232 489 78 535 b 406 1003 78 881 208 990 l 406 1113 l 481 1113 l 481 1003 b 810 724 682 989 782 867 l 672 699 b 481 889 649 821 572 878 l 481 561 l 536 549 b 833 274 685 514 833 460 b 481 -22 833 108 690 -8 l 481 -132 l 406 -132 m 481 90 b 694 267 614 101 694 175 b 493 429 694 379 606 404 l 481 432 m 406 890 b 215 722 300 881 215 828 b 406 579 215 635 304 603 "},"%":{"ha":1031,"x_min":0,"x_max":0,"o":"m 203 528 b 318 721 279 528 318 628 b 203 914 318 814 279 914 b 88 721 125 914 88 814 b 203 528 88 628 125 528 m 203 449 b -14 721 60 449 -14 589 b 203 993 -14 851 60 993 b 419 721 346 993 419 851 b 203 449 419 589 346 449 m 790 981 l 903 981 l 240 0 l 128 0 m 828 67 b 943 260 904 67 943 167 b 828 453 943 353 904 453 b 713 260 750 453 713 353 b 828 67 713 167 750 67 m 828 -12 b 611 260 685 -12 611 128 b 828 532 611 390 685 532 b 1044 260 971 532 1044 390 b 828 -12 1044 128 971 -12 "},"&":{"ha":899,"x_min":0,"x_max":0,"o":"m 549 513 l 389 513 b 185 308 275 513 185 435 b 397 94 185 172 275 94 b 469 100 428 94 446 96 l 469 0 b 368 -17 436 -11 400 -17 b 53 308 188 -17 53 101 b 246 578 53 442 128 538 b 111 761 165 608 111 667 b 397 1006 111 904 232 1006 b 675 761 574 1006 675 904 l 675 629 l 904 629 l 904 513 l 675 513 l 675 0 l 549 0 m 549 761 b 397 896 549 840 499 896 b 240 761 301 896 240 838 b 393 629 240 682 303 629 l 549 629 "},"'":{"ha":314,"x_min":0,"x_max":0,"o":"m 107 981 l 206 981 l 206 583 l 107 583 "},"(":{"ha":406,"x_min":0,"x_max":0,"o":"m 83 335 b 301 981 83 542 175 768 l 393 981 b 213 335 296 779 213 574 b 393 -310 213 96 296 -108 l 301 -310 b 83 335 175 -97 83 128 "},")":{"ha":406,"x_min":0,"x_max":0,"o":"m 322 335 b 104 -310 322 128 231 -97 l 13 -310 b 193 335 110 -108 193 96 b 13 981 193 574 110 779 l 104 981 b 322 335 231 768 322 542 "},"*":{"ha":606,"x_min":0,"x_max":0,"o":"m 238 707 l 49 754 l 82 860 l 260 786 l 246 981 l 358 981 l 343 788 l 524 861 l 557 756 l 369 710 l 496 561 l 406 496 l 304 658 l 203 494 l 113 561 "},"+":{"ha":894,"x_min":0,"x_max":0,"o":"m 397 379 l 29 379 l 29 483 l 397 483 l 397 863 l 500 863 l 500 483 l 865 483 l 865 379 l 500 379 l 500 0 l 397 0 "},",":{"ha":364,"x_min":0,"x_max":0,"o":"m 138 156 l 274 156 l 139 -242 l 36 -242 "},"-":{"ha":576,"x_min":0,"x_max":0,"o":"m 79 517 l 497 517 l 497 399 l 79 399 "},".":{"ha":344,"x_min":0,"x_max":0,"o":"m 94 156 l 250 156 l 250 0 l 94 0 "},"/":{"ha":497,"x_min":0,"x_max":0,"o":"m 357 981 l 483 981 l 140 0 l 13 0 "},":":{"ha":344,"x_min":0,"x_max":0,"o":"m 94 156 l 250 156 l 250 0 l 94 0 m 94 669 l 250 669 l 250 514 l 94 514 "},";":{"ha":364,"x_min":0,"x_max":0,"o":"m 138 156 l 274 156 l 139 -242 l 36 -242 m 114 669 l 269 669 l 269 514 l 114 514 "},"<":{"ha":894,"x_min":0,"x_max":0,"o":"m 31 518 l 865 876 l 865 771 l 158 467 l 865 161 l 865 56 l 31 414 "},"=":{"ha":894,"x_min":0,"x_max":0,"o":"m 29 375 l 865 375 l 865 274 l 29 274 m 29 603 l 865 603 l 865 500 l 29 500 "},">":{"ha":894,"x_min":0,"x_max":0,"o":"m 31 161 l 736 467 l 31 771 l 31 876 l 865 518 l 865 414 l 31 56 "},"?":{"ha":757,"x_min":0,"x_max":0,"o":"m 308 567 b 374 564 317 565 363 564 b 569 732 472 564 569 615 b 382 892 569 839 481 892 b 182 700 278 892 199 831 l 47 728 b 382 1004 72 888 199 1004 b 701 732 553 1004 701 911 b 443 464 701 578 593 475 l 443 242 l 308 242 m 299 156 l 454 156 l 454 0 l 299 0 "},"@":{"ha":1119,"x_min":0,"x_max":0,"o":"m 489 272 b 697 558 607 272 697 446 b 590 683 697 625 653 683 b 378 403 458 683 378 519 b 489 272 378 325 425 272 m 581 928 b 158 485 336 928 158 729 b 583 53 158 228 342 53 b 914 204 707 53 838 110 l 967 158 b 583 -24 878 43 732 -24 b 69 485 292 -24 69 182 b 579 1004 69 785 299 1004 b 1050 578 853 1004 1050 826 b 729 181 1050 360 899 181 b 635 269 679 181 639 213 b 465 182 596 221 532 182 b 274 399 349 182 274 278 b 590 775 274 582 400 775 b 740 665 650 775 714 740 l 771 750 l 857 750 l 739 363 b 725 293 732 339 725 314 b 756 257 725 272 732 257 b 963 581 867 257 963 421 b 581 928 963 792 800 928 "},"A":{"ha":925,"x_min":0,"x_max":0,"o":"m 378 981 l 550 981 l 926 0 l 782 0 l 674 292 l 251 292 l 143 0 l -1 0 m 633 401 l 463 865 l 292 401 "},"B":{"ha":918,"x_min":0,"x_max":0,"o":"m 99 981 l 521 981 b 831 721 701 981 831 888 b 656 508 831 590 728 517 b 868 276 789 489 868 410 b 503 0 868 74 708 0 l 99 0 m 518 113 b 731 275 647 113 731 161 b 488 449 731 389 657 449 l 232 449 l 232 113 m 479 561 b 693 718 582 561 693 596 b 511 868 693 821 608 868 l 232 868 l 232 561 "},"C":{"ha":996,"x_min":0,"x_max":0,"o":"m 946 324 b 518 -24 908 147 763 -24 b 50 490 213 -24 50 213 b 518 1004 50 764 222 1004 b 938 689 744 1004 885 860 l 804 661 b 518 892 765 782 675 892 b 188 490 307 892 188 703 b 518 89 188 275 299 89 b 813 350 690 89 786 221 "},"D":{"ha":981,"x_min":0,"x_max":0,"o":"m 410 113 b 793 490 697 113 793 288 b 410 868 793 693 697 868 l 232 868 l 232 113 m 99 981 l 419 981 b 931 490 668 981 931 860 b 419 0 931 121 668 0 l 99 0 "},"E":{"ha":801,"x_min":0,"x_max":0,"o":"m 99 981 l 750 981 l 750 868 l 232 868 l 232 563 l 732 563 l 732 450 l 232 450 l 232 113 l 763 113 l 763 0 l 99 0 "},"F":{"ha":781,"x_min":0,"x_max":0,"o":"m 99 981 l 751 981 l 751 868 l 232 868 l 232 567 l 721 567 l 721 454 l 232 454 l 232 0 l 99 0 "},"G":{"ha":1022,"x_min":0,"x_max":0,"o":"m 814 142 b 511 -24 761 49 669 -24 b 50 490 214 -24 50 210 b 517 1004 50 764 221 1004 b 921 733 722 1004 858 888 l 788 704 b 517 892 742 810 653 892 b 188 490 307 892 188 703 b 517 89 188 275 297 89 b 811 422 649 89 806 169 l 499 422 l 499 535 l 939 535 l 939 0 l 814 0 "},"H":{"ha":988,"x_min":0,"x_max":0,"o":"m 99 981 l 232 981 l 232 564 l 754 564 l 754 981 l 890 981 l 890 0 l 754 0 l 754 451 l 232 451 l 232 0 l 99 0 "},"I":{"ha":331,"x_min":0,"x_max":0,"o":"m 99 981 l 232 981 l 232 0 l 99 0 "},"J":{"ha":786,"x_min":0,"x_max":0,"o":"m 161 328 b 358 86 161 181 225 86 b 554 296 489 86 554 176 l 554 981 l 688 981 l 688 301 b 360 -24 688 97 558 -24 b 24 303 167 -24 32 94 "},"K":{"ha":892,"x_min":0,"x_max":0,"o":"m 99 981 l 232 981 l 232 543 l 668 981 l 840 981 l 374 524 l 904 0 l 724 0 l 232 489 l 232 0 l 99 0 "},"L":{"ha":750,"x_min":0,"x_max":0,"o":"m 99 981 l 232 981 l 232 113 l 732 113 l 732 0 l 99 0 "},"M":{"ha":1210,"x_min":0,"x_max":0,"o":"m 99 981 l 303 981 l 607 140 l 904 981 l 1111 981 l 1111 0 l 983 0 l 983 838 l 688 0 l 526 0 l 226 838 l 226 0 l 99 0 "},"N":{"ha":1035,"x_min":0,"x_max":0,"o":"m 99 981 l 282 981 l 811 133 l 811 981 l 936 981 l 936 0 l 743 0 l 224 846 l 224 0 l 99 0 "},"O":{"ha":1032,"x_min":0,"x_max":0,"o":"m 518 89 b 844 486 746 89 844 288 b 518 892 844 688 746 892 b 188 486 288 892 188 688 b 518 89 188 288 288 89 m 518 -24 b 50 486 192 -24 50 231 b 518 1004 50 743 192 1004 b 982 486 842 1004 982 743 b 518 -24 982 231 842 -24 "},"P":{"ha":868,"x_min":0,"x_max":0,"o":"m 99 981 l 508 981 b 826 704 706 981 826 892 b 508 426 826 521 708 426 l 232 426 l 232 0 l 99 0 m 496 539 b 692 704 617 539 692 581 b 496 868 692 804 636 868 l 232 868 l 232 539 "},"Q":{"ha":1044,"x_min":0,"x_max":0,"o":"m 821 83 b 518 -24 747 17 647 -24 b 50 486 192 -24 50 231 b 518 1004 50 743 192 1004 b 982 486 842 1004 982 743 b 900 178 982 376 956 267 l 1033 39 l 943 -44 m 518 89 b 844 486 746 89 844 288 b 518 892 844 688 746 892 b 188 486 288 892 188 688 b 518 89 188 288 288 89 "},"R":{"ha":913,"x_min":0,"x_max":0,"o":"m 99 981 l 506 981 b 831 724 718 981 831 885 b 669 493 831 561 722 503 b 825 306 757 476 825 428 l 825 154 b 883 0 825 104 832 54 l 732 0 b 690 136 694 44 690 93 l 690 283 b 519 428 690 399 626 428 l 231 428 l 231 0 l 99 0 m 510 540 b 696 715 676 540 696 658 b 500 868 696 806 638 868 l 231 868 l 231 540 "},"S":{"ha":878,"x_min":0,"x_max":0,"o":"m 182 322 b 440 89 190 164 310 89 b 696 267 599 89 696 167 b 501 428 696 379 607 404 l 407 449 b 71 722 236 486 71 528 b 442 1004 71 892 218 1004 b 810 724 674 1004 779 875 l 672 699 b 442 892 647 836 551 892 b 207 722 315 892 207 840 b 429 572 207 625 318 597 l 535 549 b 833 274 686 514 833 460 b 438 -24 833 99 675 -24 b 44 300 238 -24 72 83 "},"T":{"ha":783,"x_min":0,"x_max":0,"o":"m 324 868 l 13 868 l 13 981 l 771 981 l 771 868 l 458 868 l 458 0 l 324 0 "},"U":{"ha":953,"x_min":0,"x_max":0,"o":"m 88 981 l 221 981 l 221 343 b 476 89 221 189 318 89 b 731 343 636 89 731 182 l 731 981 l 865 981 l 865 343 b 476 -24 865 99 701 -24 b 88 343 221 -24 88 133 "},"V":{"ha":906,"x_min":0,"x_max":0,"o":"m 4 981 l 143 981 l 450 144 l 767 981 l 903 981 l 526 0 l 368 0 "},"W":{"ha":1358,"x_min":0,"x_max":0,"o":"m 17 981 l 150 981 l 378 132 l 586 981 l 772 981 l 981 132 l 1207 981 l 1342 981 l 1071 0 l 886 0 l 679 861 l 472 0 l 286 0 "},"X":{"ha":907,"x_min":0,"x_max":0,"o":"m 375 526 l 50 981 l 206 981 l 457 622 l 706 981 l 860 981 l 533 526 l 910 0 l 753 0 l 451 429 l 153 0 l -4 0 "},"Y":{"ha":868,"x_min":0,"x_max":0,"o":"m 364 456 l 0 981 l 156 981 l 433 563 l 718 981 l 868 981 l 497 456 l 497 0 l 364 0 "},"Z":{"ha":804,"x_min":0,"x_max":0,"o":"m 21 129 l 593 867 l 43 867 l 43 981 l 758 981 l 758 867 l 169 114 l 792 114 l 792 0 l 21 0 "},"[":{"ha":403,"x_min":0,"x_max":0,"o":"m 111 981 l 390 981 l 390 888 l 226 888 l 226 -217 l 390 -217 l 390 -310 l 111 -310 "},"\\":{"ha":497,"x_min":0,"x_max":0,"o":"m 13 981 l 139 981 l 483 0 l 356 0 "},"]":{"ha":403,"x_min":0,"x_max":0,"o":"m 13 -217 l 176 -217 l 176 888 l 14 888 l 14 981 l 292 981 l 292 -310 l 13 -310 "},"^":{"ha":894,"x_min":0,"x_max":0,"o":"m 401 981 l 501 981 l 749 475 l 625 475 l 449 842 l 268 475 l 144 475 "},"_":{"ha":722,"x_min":0,"x_max":0,"o":"m 0 -100 l 722 -100 l 722 -174 l 0 -174 "},"`":{"ha":293,"x_min":0,"x_max":0,"o":"m -21 988 l 108 988 l 204 750 l 103 750 "},"a":{"ha":692,"x_min":0,"x_max":0,"o":"m 490 0 b 481 97 489 7 481 51 b 272 -17 442 15 361 -17 b 44 178 128 -17 44 74 b 317 397 44 338 169 372 b 404 411 335 400 385 407 b 485 489 481 425 485 453 b 344 590 485 525 460 590 b 189 449 257 590 196 546 l 64 472 b 147 621 75 535 104 585 b 344 686 197 663 265 686 b 604 465 490 686 604 633 l 604 160 b 614 0 604 68 613 7 m 171 183 b 290 79 171 124 226 79 b 481 254 353 79 481 108 l 481 342 b 379 317 463 333 419 325 l 333 308 b 171 183 247 292 171 274 "},"b":{"ha":769,"x_min":0,"x_max":0,"o":"m 85 981 l 208 981 l 208 572 b 415 686 238 633 322 686 b 721 335 638 686 721 493 b 406 -17 721 210 654 -17 b 204 103 322 -17 232 38 l 204 0 l 85 0 m 396 82 b 596 333 540 82 596 215 b 396 588 596 486 518 588 b 206 335 324 588 206 539 b 396 82 206 131 328 82 "},"c":{"ha":713,"x_min":0,"x_max":0,"o":"m 668 224 b 368 -17 654 131 563 -17 b 49 333 146 -17 49 157 b 368 686 49 511 157 686 b 665 454 561 686 647 553 l 542 432 b 368 588 535 479 494 588 b 174 333 235 588 174 458 b 368 82 174 210 228 82 b 544 249 486 82 535 182 "},"d":{"ha":771,"x_min":0,"x_max":0,"o":"m 567 101 b 357 -17 540 36 446 -17 b 49 333 121 -17 49 199 b 363 686 49 481 129 686 b 564 571 449 686 535 632 l 564 981 l 686 981 l 686 0 l 567 0 m 375 82 b 565 333 447 82 565 131 b 381 588 565 538 447 588 b 174 335 238 588 174 458 b 375 82 174 229 229 82 "},"e":{"ha":710,"x_min":0,"x_max":0,"o":"m 651 197 b 371 -17 632 106 529 -17 b 49 333 146 -17 49 153 b 356 686 49 517 154 686 b 661 331 550 686 661 533 b 660 304 661 321 661 310 l 174 304 b 365 79 175 194 231 79 b 533 222 471 79 519 158 m 532 400 b 356 590 532 490 474 590 b 175 400 240 590 175 504 "},"f":{"ha":411,"x_min":0,"x_max":0,"o":"m 133 571 l 0 571 l 0 669 l 133 669 l 133 796 b 311 996 133 914 182 996 b 399 989 342 996 372 996 l 399 889 b 343 893 381 890 360 893 b 257 782 292 893 257 868 l 257 669 l 396 669 l 396 571 l 257 571 l 257 0 l 133 0 "},"g":{"ha":772,"x_min":0,"x_max":0,"o":"m 208 -67 b 375 -228 215 -158 281 -228 b 557 -17 508 -228 557 -132 l 557 101 b 351 -11 528 40 438 -11 b 49 335 139 -11 49 160 b 361 686 49 468 115 686 b 561 567 444 686 533 631 l 561 669 l 679 669 l 679 -19 b 375 -326 679 -208 581 -326 b 78 -90 215 -326 96 -233 m 368 88 b 558 336 442 88 558 138 b 378 588 558 536 446 588 b 174 339 225 588 174 443 b 368 88 174 201 240 88 "},"h":{"ha":729,"x_min":0,"x_max":0,"o":"m 85 981 l 206 981 l 206 558 b 417 686 222 614 299 686 b 600 596 483 686 551 661 b 649 372 643 539 649 488 l 649 0 l 525 0 l 525 372 b 499 535 525 467 519 504 b 382 588 482 558 444 588 b 253 526 325 588 285 565 b 207 319 215 481 207 438 l 207 0 l 85 0 "},"i":{"ha":293,"x_min":0,"x_max":0,"o":"m 85 669 l 208 669 l 208 0 l 85 0 m 85 981 l 208 981 l 208 843 l 85 843 "},"j":{"ha":294,"x_min":0,"x_max":0,"o":"m -60 -214 b -8 -219 -42 -217 -24 -219 b 88 -117 79 -219 88 -162 l 88 669 l 210 669 l 210 -121 b 26 -325 210 -242 182 -325 b -60 -318 -8 -325 -32 -324 m 88 981 l 210 981 l 210 843 l 88 843 "},"k":{"ha":706,"x_min":0,"x_max":0,"o":"m 85 981 l 208 981 l 208 389 l 500 669 l 660 669 l 338 369 l 715 0 l 556 0 l 208 332 l 208 0 l 85 0 "},"l":{"ha":293,"x_min":0,"x_max":0,"o":"m 85 981 l 208 981 l 208 0 l 85 0 "},"m":{"ha":1096,"x_min":0,"x_max":0,"o":"m 85 669 l 206 669 l 206 561 b 396 686 219 615 289 686 b 557 611 446 686 507 672 b 592 550 572 593 583 572 b 793 686 614 617 685 686 b 968 601 856 686 921 665 b 1017 372 1008 546 1017 493 l 1017 0 l 894 0 l 894 399 b 764 588 894 479 885 588 b 646 519 710 588 672 560 b 613 369 619 479 613 440 l 613 0 l 490 0 l 490 399 b 361 588 490 479 481 588 b 242 519 306 588 268 560 b 208 336 211 474 208 432 l 208 0 l 85 0 "},"n":{"ha":726,"x_min":0,"x_max":0,"o":"m 85 669 l 206 669 l 206 561 b 414 686 221 615 297 686 b 599 599 479 686 551 663 b 646 372 642 540 646 488 l 646 0 l 524 0 l 524 372 b 496 535 524 467 518 504 b 379 588 481 558 442 588 b 251 526 322 588 282 565 b 208 319 215 481 208 428 l 208 0 l 85 0 "},"o":{"ha":742,"x_min":0,"x_max":0,"o":"m 372 82 b 568 333 506 82 568 213 b 372 588 568 454 506 588 b 174 333 238 588 174 454 b 372 82 174 213 238 82 m 372 -17 b 49 333 163 -17 49 163 b 372 686 49 506 163 686 b 694 333 581 686 694 506 b 372 -17 694 163 581 -17 "},"p":{"ha":772,"x_min":0,"x_max":0,"o":"m 85 669 l 204 669 l 204 568 b 415 686 232 632 326 686 b 724 335 638 686 724 493 b 406 -17 724 210 654 -17 b 208 99 318 -17 239 36 l 208 -310 l 85 -310 m 396 82 b 599 333 554 82 599 236 b 397 588 599 465 531 588 b 206 335 324 588 206 539 b 396 82 206 132 328 82 "},"q":{"ha":768,"x_min":0,"x_max":0,"o":"m 560 97 b 354 -17 531 35 447 -17 b 49 335 118 -17 49 200 b 360 686 49 481 126 686 b 564 567 442 686 538 631 l 564 669 l 682 669 l 682 -310 l 560 -310 m 374 82 b 563 335 444 82 563 131 b 378 588 563 539 444 588 b 174 335 249 588 174 479 b 374 82 174 208 239 82 "},"r":{"ha":457,"x_min":0,"x_max":0,"o":"m 85 669 l 206 669 l 206 557 b 404 686 228 619 301 686 b 451 682 424 686 444 683 l 451 558 b 388 564 438 561 421 564 b 244 488 315 564 274 531 b 208 303 210 442 208 375 l 208 0 l 85 0 "},"s":{"ha":654,"x_min":0,"x_max":0,"o":"m 165 238 b 328 79 171 143 225 79 b 486 189 411 79 486 113 b 357 288 486 264 407 278 l 278 303 b 61 494 193 319 61 346 b 329 686 61 590 149 686 b 596 476 456 686 571 614 l 476 453 b 324 590 465 532 431 590 b 182 496 222 590 182 536 b 321 400 182 432 267 410 l 374 390 b 614 193 481 371 614 340 b 328 -17 614 60 483 -17 b 38 210 136 -17 47 115 "},"t":{"ha":435,"x_min":0,"x_max":0,"o":"m 131 571 l 1 571 l 1 669 l 131 669 l 131 890 l 254 890 l 254 669 l 396 669 l 396 571 l 254 571 l 254 178 b 329 93 254 114 281 93 b 396 100 350 93 375 96 l 396 1 b 300 -10 376 -3 342 -10 b 131 149 196 -10 131 40 "},"u":{"ha":722,"x_min":0,"x_max":0,"o":"m 79 669 l 203 669 l 203 297 b 231 135 203 203 208 165 b 347 82 246 111 283 82 b 471 143 404 82 439 104 b 515 350 508 189 515 232 l 515 669 l 638 669 l 638 0 l 517 0 l 517 108 b 313 -17 501 54 429 -17 b 128 71 247 -17 175 7 b 79 297 85 129 79 182 "},"v":{"ha":650,"x_min":0,"x_max":0,"o":"m 6 669 l 132 669 l 324 140 l 521 669 l 644 669 l 393 0 l 250 0 "},"w":{"ha":1036,"x_min":0,"x_max":0,"o":"m 11 669 l 135 669 l 296 142 l 442 669 l 593 669 l 742 142 l 903 669 l 1025 669 l 813 0 l 667 0 l 517 531 l 369 0 l 222 0 "},"x":{"ha":601,"x_min":0,"x_max":0,"o":"m 229 349 l 22 669 l 161 669 l 306 440 l 454 669 l 590 669 l 375 347 l 596 0 l 458 0 l 303 253 l 142 0 l 1 0 "},"y":{"ha":633,"x_min":0,"x_max":0,"o":"m 36 -211 b 89 -219 57 -217 75 -219 b 206 -150 147 -219 188 -201 l 256 -14 l 6 669 l 133 669 l 319 146 l 504 669 l 628 669 l 314 -197 b 119 -325 282 -283 219 -325 b 36 -318 97 -325 58 -321 "},"z":{"ha":594,"x_min":0,"x_max":0,"o":"m 24 111 l 410 571 l 57 571 l 57 669 l 563 669 l 563 575 l 165 100 l 571 100 l 571 0 l 24 0 "},"{":{"ha":436,"x_min":0,"x_max":0,"o":"m 415 -310 b 210 -246 318 -304 257 -301 b 163 -39 164 -194 163 -128 l 163 69 b 150 222 163 160 161 190 b 63 308 132 274 100 296 l 63 361 b 150 447 100 374 132 396 b 163 600 161 479 163 510 l 163 710 b 210 917 163 799 164 865 b 415 981 257 972 318 975 l 415 925 b 293 833 349 906 311 883 b 278 700 279 799 278 763 l 278 613 b 249 403 278 478 275 447 b 154 335 221 357 183 344 b 249 267 183 325 221 313 b 278 57 275 222 278 192 l 278 -29 b 293 -162 278 -92 279 -128 b 415 -254 311 -212 349 -235 "},"|":{"ha":331,"x_min":0,"x_max":0,"o":"m 110 981 l 221 981 l 221 -310 l 110 -310 "},"}":{"ha":436,"x_min":0,"x_max":0,"o":"m 21 -254 b 143 -162 88 -235 125 -212 b 158 -29 157 -128 158 -92 l 158 57 b 188 267 158 192 161 222 b 282 335 215 313 253 325 b 188 403 253 344 215 357 b 158 613 161 447 158 478 l 158 700 b 143 833 158 763 157 799 b 21 925 125 883 88 906 l 21 981 b 226 917 118 975 179 972 b 274 710 272 865 274 799 l 274 600 b 286 447 274 510 275 479 b 374 361 304 396 336 374 l 374 308 b 286 222 336 296 304 274 b 274 69 275 190 274 160 l 274 -39 b 226 -246 274 -128 272 -194 b 21 -310 179 -301 118 -304 "},"~":{"ha":894,"x_min":0,"x_max":0,"o":"m 29 360 b 269 583 69 518 171 583 b 658 450 442 583 542 450 b 813 581 739 450 785 485 l 872 568 b 632 346 831 411 731 346 b 243 479 460 346 360 479 b 89 349 161 479 115 444 "}," ":{"ha":269,"x_min":0,"x_max":0,"o":""},"¡":{"ha":406,"x_min":0,"x_max":0,"o":"m 125 981 l 281 981 l 281 825 l 125 825 m 143 739 l 263 739 l 278 0 l 128 0 "},"¢":{"ha":894,"x_min":0,"x_max":0,"o":"m 364 -11 b 26 490 138 38 26 242 b 364 992 26 728 147 939 l 364 1113 l 442 1113 l 442 1004 b 478 1006 453 1004 465 1006 b 513 1004 489 1006 500 1004 l 513 1113 l 589 1113 l 589 992 b 881 689 750 953 847 826 l 757 661 b 589 872 736 746 683 835 l 589 111 b 763 350 696 154 749 261 l 888 325 b 589 -10 864 185 769 33 l 589 -132 l 513 -132 l 513 -22 b 478 -24 501 -22 489 -24 b 442 -22 464 -24 453 -22 l 442 -132 l 364 -132 m 513 893 b 478 894 500 894 489 894 b 442 892 465 894 453 894 l 442 89 b 478 88 453 88 464 88 b 513 89 489 88 501 88 m 364 868 b 163 490 232 813 163 660 b 364 111 163 315 225 163 "},"£":{"ha":894,"x_min":0,"x_max":0,"o":"m 279 486 l 96 486 l 96 600 l 319 600 l 392 808 b 649 996 429 915 501 996 b 744 983 693 996 725 989 l 744 868 b 653 881 731 872 685 881 b 519 781 581 881 539 836 l 458 600 l 701 600 l 701 486 l 418 486 l 292 114 l 803 114 l 803 0 l 113 0 "},"¤":{"ha":894,"x_min":0,"x_max":0,"o":"m 150 236 b 81 453 117 288 81 343 b 150 667 81 567 125 632 l 50 772 l 133 857 l 235 751 b 449 824 278 782 339 824 b 660 753 558 824 624 778 l 763 857 l 847 772 l 744 667 b 814 451 768 632 814 568 b 743 236 814 336 767 269 l 846 129 l 761 44 l 658 151 b 447 82 611 119 554 82 b 235 151 339 82 283 118 l 132 47 l 49 132 m 449 193 b 701 453 583 193 701 296 b 450 713 701 614 576 713 b 193 451 317 713 193 614 b 449 193 193 301 308 193 "},"¥":{"ha":894,"x_min":0,"x_max":0,"o":"m 375 307 l 86 307 l 86 383 l 375 383 l 375 456 l 86 456 l 86 532 l 324 532 l 31 981 l 185 981 l 444 563 l 714 981 l 864 981 l 561 532 l 807 532 l 807 456 l 510 456 l 510 383 l 807 383 l 807 307 l 510 307 l 510 0 l 375 0 "},"¦":{"ha":331,"x_min":0,"x_max":0,"o":"m 110 231 l 221 231 l 221 -310 l 110 -310 m 110 981 l 221 981 l 221 440 l 110 440 "},"§":{"ha":626,"x_min":0,"x_max":0,"o":"m 214 -182 b 282 -187 233 -186 260 -187 b 386 -93 335 -187 386 -162 b 289 61 386 -32 318 29 l 150 217 b 47 447 89 283 47 358 b 189 638 47 549 124 607 b 115 810 156 678 115 749 b 325 1004 115 940 215 1004 b 413 997 357 1004 389 1003 l 413 900 b 344 906 393 904 367 906 b 240 811 292 906 240 881 b 338 657 240 750 308 689 l 476 501 b 579 271 538 435 579 360 b 436 81 579 169 501 111 b 511 -92 469 39 511 -31 b 301 -286 511 -222 411 -286 b 214 -279 269 -286 238 -285 m 367 157 b 460 271 418 168 460 207 b 386 424 460 329 432 374 l 260 561 b 167 447 208 550 167 511 b 240 294 167 389 194 344 "},"¨":{"ha":293,"x_min":0,"x_max":0,"o":"m -62 939 l 78 939 l 78 793 l -62 793 m 215 939 l 356 939 l 356 793 l 215 793 "},"©":{"ha":1139,"x_min":0,"x_max":0,"o":"m 854 385 b 569 161 840 290 757 161 b 257 492 396 161 257 308 b 569 822 257 678 400 822 b 850 618 742 822 825 713 l 742 597 b 569 719 725 658 676 719 b 368 492 454 719 368 624 b 569 264 368 360 454 264 b 747 404 690 264 736 339 m 100 490 b 569 21 100 232 311 21 b 1039 490 828 21 1039 232 b 569 960 1039 749 828 960 b 100 490 311 960 100 749 m 56 490 b 569 1004 56 774 286 1004 b 1083 490 853 1004 1083 774 b 569 -24 1083 207 853 -24 b 56 490 286 -24 56 207 "},"ª":{"ha":379,"x_min":0,"x_max":0,"o":"m 293 542 b 286 597 292 546 286 567 b 151 531 260 550 207 531 b 0 663 53 531 0 601 b 193 808 0 767 89 792 b 238 815 201 810 236 815 b 289 864 286 824 289 840 b 199 929 289 888 272 929 b 99 836 142 929 103 900 l 13 851 b 56 940 18 888 33 918 b 199 996 86 976 142 996 b 344 929 243 996 310 990 b 371 825 361 907 371 876 l 371 649 b 376 542 371 585 376 546 m 286 764 b 228 751 264 758 249 756 l 183 742 b 86 667 143 733 86 719 b 160 597 86 631 119 597 b 286 710 200 597 286 615 l 286 764 "},"«":{"ha":629,"x_min":0,"x_max":0,"o":"m 72 513 l 306 689 l 306 572 l 151 460 l 306 347 l 306 231 l 72 408 m 307 513 l 540 689 l 540 572 l 386 460 l 540 347 l 540 231 l 307 408 "},"¬":{"ha":894,"x_min":0,"x_max":0,"o":"m 68 494 l 829 494 l 829 68 l 725 68 l 725 390 l 68 390 "},"­":{"ha":576,"x_min":0,"x_max":0,"o":"m 79 517 l 497 517 l 497 399 l 79 399 "},"®":{"ha":719,"x_min":0,"x_max":0,"o":"m 229 1000 l 363 1000 b 447 992 404 1000 424 1000 b 501 910 483 978 501 944 b 421 824 501 860 465 832 b 479 744 458 808 471 789 b 506 640 488 692 490 672 l 444 640 b 422 747 429 669 428 713 b 331 807 414 800 382 807 l 282 807 l 282 640 l 229 640 m 368 850 b 449 907 393 850 449 851 b 431 946 449 922 442 936 b 354 960 415 958 397 960 l 283 960 l 283 850 m 106 818 b 360 564 106 678 219 564 b 614 818 500 564 614 678 b 360 1072 614 958 500 1072 b 106 818 219 1072 106 958 m 61 818 b 360 1117 61 983 194 1117 b 658 818 525 1117 658 983 b 360 519 658 653 525 519 b 61 818 194 519 61 653 "},"¯":{"ha":293,"x_min":0,"x_max":0,"o":"m -62 924 l 356 924 l 356 822 l -62 822 "},"°":{"ha":594,"x_min":0,"x_max":0,"o":"m 297 608 b 442 751 376 608 442 672 b 297 896 442 832 376 896 b 153 751 217 896 153 832 b 297 608 153 672 217 608 m 297 517 b 61 751 167 517 61 622 b 297 988 61 882 167 988 b 533 751 428 988 533 882 b 297 517 533 622 428 517 "},"±":{"ha":894,"x_min":0,"x_max":0,"o":"m 56 592 l 397 592 l 397 885 l 500 885 l 500 592 l 839 592 l 839 488 l 500 488 l 500 193 l 397 193 l 397 488 l 56 488 m 56 104 l 839 104 l 839 0 l 56 0 "},"²":{"ha":406,"x_min":0,"x_max":0,"o":"m 1 786 b 200 926 35 800 133 861 b 278 1069 244 969 278 1015 b 201 1150 278 1118 246 1150 b 114 1032 150 1150 114 1122 l 11 1054 b 201 1229 13 1181 111 1229 b 378 1069 303 1229 378 1165 b 271 871 378 983 319 919 b 135 776 239 838 163 790 l 388 776 l 388 697 l 1 697 "},"³":{"ha":406,"x_min":0,"x_max":0,"o":"m 108 883 b 203 764 111 810 146 764 b 296 849 265 764 296 806 b 190 931 296 885 275 931 l 131 931 l 131 1007 l 188 1007 b 283 1078 249 1007 283 1043 b 204 1150 283 1121 250 1150 b 117 1049 138 1150 118 1101 l 17 1072 b 204 1229 19 1140 78 1229 b 385 1076 300 1229 385 1179 b 285 969 385 1051 363 981 b 396 839 375 960 396 885 b 203 685 396 760 325 685 b 8 861 110 685 18 733 "},"´":{"ha":293,"x_min":0,"x_max":0,"o":"m 189 988 l 318 988 l 194 750 l 93 750 "},"µ":{"ha":726,"x_min":0,"x_max":0,"o":"m 83 669 l 206 669 l 206 279 b 350 82 206 175 224 82 b 518 311 479 82 518 193 l 518 669 l 640 669 l 640 0 l 519 0 l 519 107 b 325 -17 504 54 429 -17 b 206 19 290 -17 244 -8 l 206 -310 l 83 -310 "},"¶":{"ha":807,"x_min":0,"x_max":0,"o":"m 283 432 b 65 703 158 458 65 571 b 343 981 65 856 189 981 l 694 981 l 694 904 l 646 904 l 646 -310 l 565 -310 l 565 904 l 364 904 l 364 -310 l 283 -310 "},"·":{"ha":392,"x_min":0,"x_max":0,"o":"m 100 453 b 196 549 100 506 143 549 b 292 453 249 549 292 506 b 196 358 292 400 249 358 b 100 453 143 358 100 400 "},"¸":{"ha":293,"x_min":0,"x_max":0,"o":"m 110 -253 l 154 -253 b 225 -192 194 -253 225 -232 b 154 -135 225 -156 194 -135 l 110 -135 l 110 8 l 182 8 l 182 -68 b 303 -192 251 -74 303 -118 b 158 -321 303 -275 238 -321 l 110 -321 "},"¹":{"ha":406,"x_min":0,"x_max":0,"o":"m 175 1067 l 78 1067 l 78 1147 l 115 1147 b 183 1217 165 1147 183 1161 l 275 1217 l 275 697 l 175 697 "},"º":{"ha":444,"x_min":0,"x_max":0,"o":"m 224 600 b 349 761 308 600 349 683 b 224 926 349 840 308 926 b 96 761 136 926 96 840 b 224 600 96 683 136 600 m 224 529 b 8 761 83 529 8 649 b 224 996 8 876 83 996 b 436 761 361 996 436 876 b 224 529 436 649 361 529 "},"»":{"ha":629,"x_min":0,"x_max":0,"o":"m 89 347 l 243 460 l 89 572 l 89 689 l 322 513 l 322 408 l 89 231 m 325 347 l 479 460 l 325 572 l 325 689 l 557 513 l 557 408 l 325 231 "},"¼":{"ha":1031,"x_min":0,"x_max":0,"o":"m 175 831 l 78 831 l 78 911 l 115 911 b 183 981 165 911 183 925 l 275 981 l 275 461 l 175 461 m 790 981 l 903 981 l 240 0 l 128 0 m 615 206 l 822 519 l 943 519 l 943 207 l 1039 207 l 1039 128 l 943 128 l 943 0 l 849 0 l 849 128 l 615 128 m 849 207 l 849 417 l 718 207 "},"½":{"ha":1031,"x_min":0,"x_max":0,"o":"m 175 831 l 78 831 l 78 911 l 115 911 b 183 981 165 911 183 925 l 275 981 l 275 461 l 175 461 m 790 981 l 903 981 l 240 0 l 128 0 m 626 89 b 825 229 660 103 758 164 b 903 372 869 272 903 318 b 826 453 903 421 871 453 b 739 335 775 453 739 425 l 636 357 b 826 532 638 483 736 532 b 1003 372 928 532 1003 468 b 896 174 1003 286 944 222 b 760 79 864 140 788 93 l 1013 79 l 1013 0 l 626 0 "},"¾":{"ha":1031,"x_min":0,"x_max":0,"o":"m 108 647 b 203 528 111 574 146 528 b 296 613 265 528 296 569 b 190 694 296 649 275 694 l 131 694 l 131 771 l 188 771 b 283 842 249 771 283 807 b 204 914 283 885 250 914 b 117 813 138 914 118 865 l 17 836 b 204 993 19 904 78 993 b 385 840 300 993 385 943 b 285 733 385 815 363 744 b 396 603 375 724 396 649 b 203 449 396 524 325 449 b 8 625 110 449 18 497 m 790 981 l 903 981 l 240 0 l 128 0 m 615 206 l 822 519 l 943 519 l 943 207 l 1039 207 l 1039 128 l 943 128 l 943 0 l 849 0 l 849 128 l 615 128 m 849 207 l 849 417 l 718 207 "},"¿":{"ha":757,"x_min":0,"x_max":0,"o":"m 315 739 l 449 739 l 449 414 b 383 417 440 415 396 417 b 188 249 285 417 188 365 b 375 89 188 142 276 89 b 576 281 479 89 560 150 l 711 253 b 375 -24 686 93 558 -24 b 56 249 206 -24 56 69 b 315 517 56 403 165 506 m 304 981 l 460 981 l 460 825 l 304 825 "},"À":{"ha":925,"x_min":0,"x_max":0,"o":"m 378 981 l 550 981 l 926 0 l 782 0 l 674 292 l 251 292 l 143 0 l -1 0 m 633 401 l 463 865 l 292 401 m 294 1299 l 424 1299 l 519 1061 l 418 1061 "},"Á":{"ha":925,"x_min":0,"x_max":0,"o":"m 378 981 l 550 981 l 926 0 l 782 0 l 674 292 l 251 292 l 143 0 l -1 0 m 633 401 l 463 865 l 292 401 m 504 1299 l 633 1299 l 510 1061 l 408 1061 "},"Â":{"ha":925,"x_min":0,"x_max":0,"o":"m 378 981 l 550 981 l 926 0 l 782 0 l 674 292 l 251 292 l 143 0 l -1 0 m 633 401 l 463 865 l 292 401 m 410 1299 l 514 1299 l 694 1061 l 583 1061 l 463 1226 l 340 1061 l 229 1061 "},"Ã":{"ha":925,"x_min":0,"x_max":0,"o":"m 378 981 l 550 981 l 926 0 l 782 0 l 674 292 l 251 292 l 143 0 l -1 0 m 633 401 l 463 865 l 292 401 m 253 1208 b 368 1258 282 1235 325 1258 b 474 1232 406 1258 439 1244 b 557 1210 503 1222 532 1210 b 671 1279 603 1210 642 1240 l 671 1161 b 554 1110 642 1133 596 1110 b 456 1133 519 1110 486 1122 b 364 1158 424 1144 394 1158 b 253 1090 319 1158 282 1129 "},"Ä":{"ha":925,"x_min":0,"x_max":0,"o":"m 378 981 l 550 981 l 926 0 l 782 0 l 674 292 l 251 292 l 143 0 l -1 0 m 633 401 l 463 865 l 292 401 m 253 1250 l 393 1250 l 393 1104 l 253 1104 m 531 1250 l 671 1250 l 671 1104 l 531 1104 "},"Å":{"ha":925,"x_min":0,"x_max":0,"o":"m 376 976 b 326 1078 346 999 326 1036 b 461 1214 326 1153 388 1214 b 596 1078 535 1214 596 1153 b 550 979 596 1039 578 1003 l 926 0 l 782 0 l 674 292 l 251 292 l 143 0 l -1 0 m 633 401 l 463 865 l 292 401 m 461 1004 b 536 1078 503 1004 536 1038 b 461 1153 536 1119 503 1153 b 386 1078 419 1153 386 1119 b 461 1004 386 1038 419 1004 "},"Æ":{"ha":1289,"x_min":0,"x_max":0,"o":"m 592 981 l 1238 981 l 1238 868 l 792 868 l 792 563 l 1219 563 l 1219 450 l 792 450 l 792 113 l 1250 113 l 1250 0 l 657 0 l 657 347 l 353 347 l 144 0 l -12 0 m 657 463 l 657 853 l 424 463 "},"Ç":{"ha":996,"x_min":0,"x_max":0,"o":"m 463 -253 l 507 -253 b 578 -192 547 -253 578 -232 b 507 -135 578 -156 547 -135 l 463 -135 l 463 -19 b 50 490 193 7 50 229 b 518 1004 50 764 222 1004 b 938 689 744 1004 885 860 l 804 661 b 518 892 765 782 675 892 b 188 490 307 892 188 703 b 518 89 188 275 299 89 b 813 350 690 89 786 221 l 946 324 b 536 -24 908 151 769 -15 l 536 -68 b 656 -192 604 -74 656 -118 b 511 -321 656 -275 590 -321 l 463 -321 "},"È":{"ha":801,"x_min":0,"x_max":0,"o":"m 99 981 l 750 981 l 750 868 l 232 868 l 232 563 l 732 563 l 732 450 l 232 450 l 232 113 l 763 113 l 763 0 l 99 0 m 263 1299 l 392 1299 l 488 1061 l 386 1061 "},"É":{"ha":801,"x_min":0,"x_max":0,"o":"m 99 981 l 750 981 l 750 868 l 232 868 l 232 563 l 732 563 l 732 450 l 232 450 l 232 113 l 763 113 l 763 0 l 99 0 m 472 1299 l 601 1299 l 478 1061 l 376 1061 "},"Ê":{"ha":801,"x_min":0,"x_max":0,"o":"m 99 981 l 750 981 l 750 868 l 232 868 l 232 563 l 732 563 l 732 450 l 232 450 l 232 113 l 763 113 l 763 0 l 99 0 m 378 1299 l 482 1299 l 663 1061 l 551 1061 l 431 1226 l 308 1061 l 197 1061 "},"Ë":{"ha":801,"x_min":0,"x_max":0,"o":"m 99 981 l 750 981 l 750 868 l 232 868 l 232 563 l 732 563 l 732 450 l 232 450 l 232 113 l 763 113 l 763 0 l 99 0 m 221 1250 l 361 1250 l 361 1104 l 221 1104 m 499 1250 l 639 1250 l 639 1104 l 499 1104 "},"Ì":{"ha":331,"x_min":0,"x_max":0,"o":"m 99 981 l 232 981 l 232 0 l 99 0 m -3 1299 l 126 1299 l 222 1061 l 121 1061 "},"Í":{"ha":331,"x_min":0,"x_max":0,"o":"m 99 981 l 232 981 l 232 0 l 99 0 m 207 1299 l 336 1299 l 213 1061 l 111 1061 "},"Î":{"ha":331,"x_min":0,"x_max":0,"o":"m 99 981 l 232 981 l 232 0 l 99 0 m 113 1299 l 217 1299 l 397 1061 l 286 1061 l 165 1226 l 43 1061 l -68 1061 "},"Ï":{"ha":331,"x_min":0,"x_max":0,"o":"m 99 981 l 232 981 l 232 0 l 99 0 m -44 1250 l 96 1250 l 96 1104 l -44 1104 m 233 1250 l 374 1250 l 374 1104 l 233 1104 "},"Ð":{"ha":988,"x_min":0,"x_max":0,"o":"m 106 483 l 0 483 l 0 569 l 106 569 l 106 981 l 426 981 b 938 490 675 981 938 860 b 426 0 938 121 675 0 l 106 0 m 418 113 b 800 490 704 113 800 288 b 418 868 800 693 704 868 l 240 868 l 240 569 l 536 569 l 536 483 l 240 483 l 240 113 "},"Ñ":{"ha":1035,"x_min":0,"x_max":0,"o":"m 99 981 l 282 981 l 811 133 l 811 981 l 936 981 l 936 0 l 743 0 l 224 846 l 224 0 l 99 0 m 307 1208 b 422 1258 336 1235 379 1258 b 528 1232 460 1258 493 1244 b 611 1210 557 1222 586 1210 b 725 1279 657 1210 696 1240 l 725 1161 b 608 1110 696 1133 650 1110 b 510 1133 574 1110 540 1122 b 418 1158 478 1144 449 1158 b 307 1090 374 1158 336 1129 "},"Ò":{"ha":1032,"x_min":0,"x_max":0,"o":"m 518 89 b 844 486 746 89 844 288 b 518 892 844 688 746 892 b 188 486 288 892 188 688 b 518 89 188 288 288 89 m 518 -24 b 50 486 192 -24 50 231 b 518 1004 50 743 192 1004 b 982 486 842 1004 982 743 b 518 -24 982 231 842 -24 m 349 1299 l 478 1299 l 574 1061 l 472 1061 "},"Ó":{"ha":1032,"x_min":0,"x_max":0,"o":"m 518 89 b 844 486 746 89 844 288 b 518 892 844 688 746 892 b 188 486 288 892 188 688 b 518 89 188 288 288 89 m 518 -24 b 50 486 192 -24 50 231 b 518 1004 50 743 192 1004 b 982 486 842 1004 982 743 b 518 -24 982 231 842 -24 m 558 1299 l 688 1299 l 564 1061 l 463 1061 "},"Ô":{"ha":1032,"x_min":0,"x_max":0,"o":"m 518 89 b 844 486 746 89 844 288 b 518 892 844 688 746 892 b 188 486 288 892 188 688 b 518 89 188 288 288 89 m 518 -24 b 50 486 192 -24 50 231 b 518 1004 50 743 192 1004 b 982 486 842 1004 982 743 b 518 -24 982 231 842 -24 m 464 1299 l 568 1299 l 749 1061 l 638 1061 l 517 1226 l 394 1061 l 283 1061 "},"Õ":{"ha":1032,"x_min":0,"x_max":0,"o":"m 518 89 b 844 486 746 89 844 288 b 518 892 844 688 746 892 b 188 486 288 892 188 688 b 518 89 188 288 288 89 m 518 -24 b 50 486 192 -24 50 231 b 518 1004 50 743 192 1004 b 982 486 842 1004 982 743 b 518 -24 982 231 842 -24 m 307 1208 b 422 1258 336 1235 379 1258 b 528 1232 460 1258 493 1244 b 611 1210 557 1222 586 1210 b 725 1279 657 1210 696 1240 l 725 1161 b 608 1110 696 1133 650 1110 b 510 1133 574 1110 540 1122 b 418 1158 478 1144 449 1158 b 307 1090 374 1158 336 1129 "},"Ö":{"ha":1032,"x_min":0,"x_max":0,"o":"m 518 89 b 844 486 746 89 844 288 b 518 892 844 688 746 892 b 188 486 288 892 188 688 b 518 89 188 288 288 89 m 518 -24 b 50 486 192 -24 50 231 b 518 1004 50 743 192 1004 b 982 486 842 1004 982 743 b 518 -24 982 231 842 -24 m 307 1250 l 447 1250 l 447 1104 l 307 1104 m 585 1250 l 725 1250 l 725 1104 l 585 1104 "},"×":{"ha":894,"x_min":0,"x_max":0,"o":"m 372 433 l 57 750 l 129 822 l 446 506 l 757 817 l 831 743 l 519 432 l 838 114 l 764 40 l 446 358 l 135 47 l 61 121 "},"Ø":{"ha":1032,"x_min":0,"x_max":0,"o":"m 163 135 b 50 486 86 231 50 358 b 518 1004 50 743 192 1004 b 810 906 640 1004 738 967 l 872 981 l 982 981 l 868 844 b 982 486 946 747 982 615 b 518 -24 982 231 842 -24 b 221 75 392 -24 294 14 l 158 0 l 50 0 m 518 89 b 844 486 746 89 844 288 b 781 742 844 576 824 668 l 301 171 b 518 89 354 121 425 89 m 188 486 b 249 238 188 397 207 308 l 728 810 b 518 892 676 860 607 892 b 188 486 288 892 188 688 "},"Ù":{"ha":953,"x_min":0,"x_max":0,"o":"m 88 981 l 221 981 l 221 343 b 476 89 221 189 318 89 b 731 343 636 89 731 182 l 731 981 l 865 981 l 865 343 b 476 -24 865 99 701 -24 b 88 343 221 -24 88 133 m 308 1299 l 438 1299 l 533 1061 l 432 1061 "},"Ú":{"ha":953,"x_min":0,"x_max":0,"o":"m 88 981 l 221 981 l 221 343 b 476 89 221 189 318 89 b 731 343 636 89 731 182 l 731 981 l 865 981 l 865 343 b 476 -24 865 99 701 -24 b 88 343 221 -24 88 133 m 518 1299 l 647 1299 l 524 1061 l 422 1061 "},"Û":{"ha":953,"x_min":0,"x_max":0,"o":"m 88 981 l 221 981 l 221 343 b 476 89 221 189 318 89 b 731 343 636 89 731 182 l 731 981 l 865 981 l 865 343 b 476 -24 865 99 701 -24 b 88 343 221 -24 88 133 m 424 1299 l 528 1299 l 708 1061 l 597 1061 l 476 1226 l 354 1061 l 243 1061 "},"Ü":{"ha":953,"x_min":0,"x_max":0,"o":"m 88 981 l 221 981 l 221 343 b 476 89 221 189 318 89 b 731 343 636 89 731 182 l 731 981 l 865 981 l 865 343 b 476 -24 865 99 701 -24 b 88 343 221 -24 88 133 m 267 1250 l 407 1250 l 407 1104 l 267 1104 m 544 1250 l 685 1250 l 685 1104 l 544 1104 "},"Ý":{"ha":868,"x_min":0,"x_max":0,"o":"m 364 456 l 0 981 l 156 981 l 433 563 l 718 981 l 868 981 l 497 456 l 497 0 l 364 0 m 475 1299 l 604 1299 l 481 1061 l 379 1061 "},"Þ":{"ha":868,"x_min":0,"x_max":0,"o":"m 99 981 l 232 981 l 232 836 l 508 836 b 826 560 706 836 826 746 b 508 282 826 376 708 282 l 232 282 l 232 0 l 99 0 m 496 393 b 692 560 617 393 692 436 b 496 724 692 660 636 724 l 232 724 l 232 393 "},"ß":{"ha":750,"x_min":0,"x_max":0,"o":"m 85 717 b 367 1004 85 900 185 1004 b 644 775 561 1004 644 885 b 508 589 644 688 593 614 b 706 314 649 556 706 439 b 382 -11 706 118 568 -11 b 290 0 353 -11 322 -7 l 290 108 b 367 97 317 101 342 97 b 578 315 488 97 578 179 b 346 529 578 447 486 529 l 290 529 l 290 633 l 340 633 b 517 775 435 633 517 685 b 367 901 517 838 465 901 b 208 728 264 901 208 825 l 208 0 l 85 0 "},"à":{"ha":692,"x_min":0,"x_max":0,"o":"m 490 0 b 481 97 489 7 481 51 b 272 -17 442 15 361 -17 b 44 178 128 -17 44 74 b 317 397 44 338 169 372 b 404 411 335 400 385 407 b 485 489 481 425 485 453 b 344 590 485 525 460 590 b 189 449 257 590 196 546 l 64 472 b 147 621 75 535 104 585 b 344 686 197 663 265 686 b 604 465 490 686 604 633 l 604 160 b 614 0 604 68 613 7 m 171 183 b 290 79 171 124 226 79 b 481 254 353 79 481 108 l 481 342 b 379 317 463 333 419 325 l 333 308 b 171 183 247 292 171 274 m 172 988 l 301 988 l 397 750 l 296 750 "},"á":{"ha":692,"x_min":0,"x_max":0,"o":"m 490 0 b 481 97 489 7 481 51 b 272 -17 442 15 361 -17 b 44 178 128 -17 44 74 b 317 397 44 338 169 372 b 404 411 335 400 385 407 b 485 489 481 425 485 453 b 344 590 485 525 460 590 b 189 449 257 590 196 546 l 64 472 b 147 621 75 535 104 585 b 344 686 197 663 265 686 b 604 465 490 686 604 633 l 604 160 b 614 0 604 68 613 7 m 171 183 b 290 79 171 124 226 79 b 481 254 353 79 481 108 l 481 342 b 379 317 463 333 419 325 l 333 308 b 171 183 247 292 171 274 m 382 988 l 511 988 l 388 750 l 286 750 "},"â":{"ha":692,"x_min":0,"x_max":0,"o":"m 490 0 b 481 97 489 7 481 51 b 272 -17 442 15 361 -17 b 44 178 128 -17 44 74 b 317 397 44 338 169 372 b 404 411 335 400 385 407 b 485 489 481 425 485 453 b 344 590 485 525 460 590 b 189 449 257 590 196 546 l 64 472 b 147 621 75 535 104 585 b 344 686 197 663 265 686 b 604 465 490 686 604 633 l 604 160 b 614 0 604 68 613 7 m 171 183 b 290 79 171 124 226 79 b 481 254 353 79 481 108 l 481 342 b 379 317 463 333 419 325 l 333 308 b 171 183 247 292 171 274 m 288 988 l 392 988 l 572 750 l 461 750 l 340 915 l 218 750 l 107 750 "},"ã":{"ha":692,"x_min":0,"x_max":0,"o":"m 490 0 b 481 97 489 7 481 51 b 272 -17 442 15 361 -17 b 44 178 128 -17 44 74 b 317 397 44 338 169 372 b 404 411 335 400 385 407 b 485 489 481 425 485 453 b 344 590 485 525 460 590 b 189 449 257 590 196 546 l 64 472 b 147 621 75 535 104 585 b 344 686 197 663 265 686 b 604 465 490 686 604 633 l 604 160 b 614 0 604 68 613 7 m 171 183 b 290 79 171 124 226 79 b 481 254 353 79 481 108 l 481 342 b 379 317 463 333 419 325 l 333 308 b 171 183 247 292 171 274 m 131 897 b 246 947 160 924 203 947 b 351 921 283 947 317 933 b 435 899 381 911 410 899 b 549 968 481 899 519 929 l 549 850 b 432 799 519 822 474 799 b 333 822 397 799 364 811 b 242 847 301 833 272 847 b 131 779 197 847 160 818 "},"ä":{"ha":692,"x_min":0,"x_max":0,"o":"m 490 0 b 481 97 489 7 481 51 b 272 -17 442 15 361 -17 b 44 178 128 -17 44 74 b 317 397 44 338 169 372 b 404 411 335 400 385 407 b 485 489 481 425 485 453 b 344 590 485 525 460 590 b 189 449 257 590 196 546 l 64 472 b 147 621 75 535 104 585 b 344 686 197 663 265 686 b 604 465 490 686 604 633 l 604 160 b 614 0 604 68 613 7 m 171 183 b 290 79 171 124 226 79 b 481 254 353 79 481 108 l 481 342 b 379 317 463 333 419 325 l 333 308 b 171 183 247 292 171 274 m 131 939 l 271 939 l 271 793 l 131 793 m 408 939 l 549 939 l 549 793 l 408 793 "},"å":{"ha":692,"x_min":0,"x_max":0,"o":"m 490 0 b 481 97 489 7 481 51 b 272 -17 442 15 361 -17 b 44 178 128 -17 44 74 b 317 397 44 338 169 372 b 404 411 335 400 385 407 b 485 489 481 425 485 453 b 344 590 485 525 460 590 b 189 449 257 590 196 546 l 64 472 b 147 621 75 535 104 585 b 344 686 197 663 265 686 b 604 465 490 686 604 633 l 604 160 b 614 0 604 68 613 7 m 171 183 b 290 79 171 124 226 79 b 481 254 353 79 481 108 l 481 342 b 379 317 463 333 419 325 l 333 308 b 171 183 247 292 171 274 m 340 803 b 414 876 381 803 414 836 b 340 951 414 918 381 951 b 265 876 299 951 265 918 b 340 803 265 836 299 803 m 340 742 b 204 876 265 742 204 803 b 340 1011 204 951 265 1011 b 475 876 414 1011 475 951 b 340 742 475 803 414 742 "},"æ":{"ha":1131,"x_min":0,"x_max":0,"o":"m 64 472 b 129 603 72 524 94 564 b 342 686 179 657 257 686 b 561 586 450 686 522 644 b 779 686 613 647 685 686 b 1082 333 975 686 1082 524 b 1081 304 1082 322 1081 311 l 601 304 b 789 79 601 179 653 79 b 954 222 893 79 940 158 l 1072 197 b 790 -17 1051 96 942 -17 b 538 125 675 -17 588 40 b 272 -17 490 29 406 -17 b 44 188 128 -17 44 86 b 397 400 44 326 158 400 l 479 400 l 479 456 b 342 590 479 519 439 590 b 189 449 256 590 196 546 m 475 304 l 388 304 b 171 193 229 304 171 265 b 293 81 171 124 225 81 b 475 254 363 81 475 117 m 953 400 b 779 590 953 489 893 590 b 603 400 667 590 603 503 "},"ç":{"ha":714,"x_min":0,"x_max":0,"o":"m 311 -253 l 356 -253 b 426 -192 394 -253 426 -232 b 356 -135 426 -156 394 -135 l 311 -135 l 311 -12 b 49 333 129 15 49 172 b 368 686 49 511 157 686 b 667 454 561 686 647 553 l 542 432 b 368 588 536 479 494 588 b 174 333 236 588 174 458 b 369 82 174 210 228 82 b 544 249 486 82 536 182 l 669 224 b 383 -17 656 132 567 -10 l 383 -68 b 504 -192 453 -74 504 -118 b 360 -321 504 -275 439 -321 l 311 -321 "},"è":{"ha":710,"x_min":0,"x_max":0,"o":"m 651 197 b 371 -17 632 106 529 -17 b 49 333 146 -17 49 153 b 356 686 49 517 154 686 b 661 331 550 686 661 533 b 660 304 661 321 661 310 l 174 304 b 365 79 175 194 231 79 b 533 222 471 79 519 158 m 532 400 b 356 590 532 490 474 590 b 175 400 240 590 175 504 m 183 988 l 313 988 l 408 750 l 307 750 "},"é":{"ha":710,"x_min":0,"x_max":0,"o":"m 651 197 b 371 -17 632 106 529 -17 b 49 333 146 -17 49 153 b 356 686 49 517 154 686 b 661 331 550 686 661 533 b 660 304 661 321 661 310 l 174 304 b 365 79 175 194 231 79 b 533 222 471 79 519 158 m 532 400 b 356 590 532 490 474 590 b 175 400 240 590 175 504 m 393 988 l 522 988 l 399 750 l 297 750 "},"ê":{"ha":710,"x_min":0,"x_max":0,"o":"m 651 197 b 371 -17 632 106 529 -17 b 49 333 146 -17 49 153 b 356 686 49 517 154 686 b 661 331 550 686 661 533 b 660 304 661 321 661 310 l 174 304 b 365 79 175 194 231 79 b 533 222 471 79 519 158 m 532 400 b 356 590 532 490 474 590 b 175 400 240 590 175 504 m 299 988 l 403 988 l 583 750 l 472 750 l 351 915 l 229 750 l 118 750 "},"ë":{"ha":710,"x_min":0,"x_max":0,"o":"m 651 197 b 371 -17 632 106 529 -17 b 49 333 146 -17 49 153 b 356 686 49 517 154 686 b 661 331 550 686 661 533 b 660 304 661 321 661 310 l 174 304 b 365 79 175 194 231 79 b 533 222 471 79 519 158 m 532 400 b 356 590 532 490 474 590 b 175 400 240 590 175 504 m 142 939 l 282 939 l 282 793 l 142 793 m 419 939 l 560 939 l 560 793 l 419 793 "},"ì":{"ha":293,"x_min":0,"x_max":0,"o":"m 85 669 l 208 669 l 208 0 l 85 0 m -21 988 l 108 988 l 204 750 l 103 750 "},"í":{"ha":293,"x_min":0,"x_max":0,"o":"m 85 669 l 208 669 l 208 0 l 85 0 m 189 988 l 318 988 l 194 750 l 93 750 "},"î":{"ha":293,"x_min":0,"x_max":0,"o":"m 85 669 l 208 669 l 208 0 l 85 0 m 94 988 l 199 988 l 379 750 l 268 750 l 147 915 l 25 750 l -86 750 "},"ï":{"ha":293,"x_min":0,"x_max":0,"o":"m 85 669 l 208 669 l 208 0 l 85 0 m -62 939 l 78 939 l 78 793 l -62 793 m 215 939 l 356 939 l 356 793 l 215 793 "},"ð":{"ha":736,"x_min":0,"x_max":0,"o":"m 214 785 l 400 844 b 304 956 363 893 332 928 l 404 1006 b 511 878 465 940 475 928 l 646 921 l 664 861 l 547 825 b 688 363 640 682 688 518 b 367 -17 688 147 593 -17 b 49 333 90 -17 49 244 b 363 686 49 426 94 686 b 538 606 431 686 497 654 b 440 792 518 661 499 704 l 232 726 m 376 82 b 565 333 447 82 565 129 b 381 588 565 538 447 588 b 174 335 203 588 174 401 b 376 82 174 268 203 82 "},"ñ":{"ha":726,"x_min":0,"x_max":0,"o":"m 85 669 l 206 669 l 206 561 b 414 686 221 615 297 686 b 599 599 479 686 551 663 b 646 372 642 540 646 488 l 646 0 l 524 0 l 524 372 b 496 535 524 467 518 504 b 379 588 481 558 442 588 b 251 526 322 588 282 565 b 208 319 215 481 208 428 l 208 0 l 85 0 m 157 897 b 272 947 186 924 229 947 b 378 921 310 947 343 933 b 461 899 407 911 436 899 b 575 968 507 899 546 929 l 575 850 b 458 799 546 822 500 799 b 360 822 424 799 390 811 b 268 847 328 833 299 847 b 157 779 224 847 186 818 "},"ò":{"ha":742,"x_min":0,"x_max":0,"o":"m 372 82 b 568 333 506 82 568 213 b 372 588 568 454 506 588 b 174 333 238 588 174 454 b 372 82 174 213 238 82 m 372 -17 b 49 333 163 -17 49 163 b 372 686 49 506 163 686 b 694 333 581 686 694 506 b 372 -17 694 163 581 -17 m 201 988 l 331 988 l 426 750 l 325 750 "},"ó":{"ha":742,"x_min":0,"x_max":0,"o":"m 372 82 b 568 333 506 82 568 213 b 372 588 568 454 506 588 b 174 333 238 588 174 454 b 372 82 174 213 238 82 m 372 -17 b 49 333 163 -17 49 163 b 372 686 49 506 163 686 b 694 333 581 686 694 506 b 372 -17 694 163 581 -17 m 411 988 l 540 988 l 417 750 l 315 750 "},"ô":{"ha":742,"x_min":0,"x_max":0,"o":"m 372 82 b 568 333 506 82 568 213 b 372 588 568 454 506 588 b 174 333 238 588 174 454 b 372 82 174 213 238 82 m 372 -17 b 49 333 163 -17 49 163 b 372 686 49 506 163 686 b 694 333 581 686 694 506 b 372 -17 694 163 581 -17 m 317 988 l 421 988 l 601 750 l 490 750 l 369 915 l 247 750 l 136 750 "},"õ":{"ha":742,"x_min":0,"x_max":0,"o":"m 372 82 b 568 333 506 82 568 213 b 372 588 568 454 506 588 b 174 333 238 588 174 454 b 372 82 174 213 238 82 m 372 -17 b 49 333 163 -17 49 163 b 372 686 49 506 163 686 b 694 333 581 686 694 506 b 372 -17 694 163 581 -17 m 160 897 b 275 947 189 924 232 947 b 381 921 313 947 346 933 b 464 899 410 911 439 899 b 578 968 510 899 549 929 l 578 850 b 461 799 549 822 503 799 b 363 822 426 799 393 811 b 271 847 331 833 301 847 b 160 779 226 847 189 818 "},"ö":{"ha":742,"x_min":0,"x_max":0,"o":"m 372 82 b 568 333 506 82 568 213 b 372 588 568 454 506 588 b 174 333 238 588 174 454 b 372 82 174 213 238 82 m 372 -17 b 49 333 163 -17 49 163 b 372 686 49 506 163 686 b 694 333 581 686 694 506 b 372 -17 694 163 581 -17 m 160 939 l 300 939 l 300 793 l 160 793 m 438 939 l 578 939 l 578 793 l 438 793 "},"÷":{"ha":894,"x_min":0,"x_max":0,"o":"m 356 138 b 447 231 356 190 394 231 b 540 138 500 231 540 190 b 447 46 540 86 500 46 b 356 138 394 46 356 86 m 29 483 l 865 483 l 865 379 l 29 379 m 356 729 b 447 822 356 782 394 822 b 540 729 500 822 540 782 b 447 638 540 678 500 638 b 356 729 394 638 356 678 "},"ø":{"ha":743,"x_min":0,"x_max":0,"o":"m 122 104 b 49 333 72 169 49 253 b 372 686 49 506 163 686 b 567 618 450 686 517 660 l 611 669 l 710 669 l 619 564 b 694 333 668 499 694 414 b 372 -17 694 163 581 -17 b 174 51 290 -17 225 10 l 129 0 l 31 0 m 496 536 b 372 588 464 568 422 588 b 174 333 238 588 174 454 b 203 197 174 286 183 238 m 244 133 b 372 82 276 101 318 82 b 568 333 506 82 568 213 b 538 471 568 381 558 429 "},"ù":{"ha":722,"x_min":0,"x_max":0,"o":"m 79 669 l 203 669 l 203 297 b 231 135 203 203 208 165 b 347 82 246 111 283 82 b 471 143 404 82 439 104 b 515 350 508 189 515 232 l 515 669 l 638 669 l 638 0 l 517 0 l 517 108 b 313 -17 501 54 429 -17 b 128 71 247 -17 175 7 b 79 297 85 129 79 182 m 193 988 l 322 988 l 418 750 l 317 750 "},"ú":{"ha":722,"x_min":0,"x_max":0,"o":"m 79 669 l 203 669 l 203 297 b 231 135 203 203 208 165 b 347 82 246 111 283 82 b 471 143 404 82 439 104 b 515 350 508 189 515 232 l 515 669 l 638 669 l 638 0 l 517 0 l 517 108 b 313 -17 501 54 429 -17 b 128 71 247 -17 175 7 b 79 297 85 129 79 182 m 403 988 l 532 988 l 408 750 l 307 750 "},"û":{"ha":722,"x_min":0,"x_max":0,"o":"m 79 669 l 203 669 l 203 297 b 231 135 203 203 208 165 b 347 82 246 111 283 82 b 471 143 404 82 439 104 b 515 350 508 189 515 232 l 515 669 l 638 669 l 638 0 l 517 0 l 517 108 b 313 -17 501 54 429 -17 b 128 71 247 -17 175 7 b 79 297 85 129 79 182 m 308 988 l 413 988 l 593 750 l 482 750 l 361 915 l 239 750 l 128 750 "},"ü":{"ha":722,"x_min":0,"x_max":0,"o":"m 79 669 l 203 669 l 203 297 b 231 135 203 203 208 165 b 347 82 246 111 283 82 b 471 143 404 82 439 104 b 515 350 508 189 515 232 l 515 669 l 638 669 l 638 0 l 517 0 l 517 108 b 313 -17 501 54 429 -17 b 128 71 247 -17 175 7 b 79 297 85 129 79 182 m 151 939 l 292 939 l 292 793 l 151 793 m 429 939 l 569 939 l 569 793 l 429 793 "},"ý":{"ha":633,"x_min":0,"x_max":0,"o":"m 36 -211 b 89 -219 57 -217 75 -219 b 206 -150 147 -219 188 -201 l 256 -14 l 6 669 l 133 669 l 319 146 l 504 669 l 628 669 l 314 -197 b 119 -325 282 -283 219 -325 b 36 -318 97 -325 58 -321 m 358 988 l 488 988 l 364 750 l 263 750 "},"þ":{"ha":772,"x_min":0,"x_max":0,"o":"m 85 982 l 204 982 l 204 568 b 415 686 232 632 326 686 b 724 335 638 686 724 493 b 406 -17 724 210 654 -17 b 208 99 318 -17 239 36 l 208 -310 l 85 -310 m 396 82 b 599 333 554 82 599 236 b 397 588 599 465 531 588 b 206 335 324 588 206 539 b 396 82 206 132 328 82 "},"ÿ":{"ha":633,"x_min":0,"x_max":0,"o":"m 36 -211 b 89 -219 57 -217 75 -219 b 206 -150 147 -219 188 -201 l 256 -14 l 6 669 l 133 669 l 319 146 l 504 669 l 628 669 l 314 -197 b 119 -325 282 -283 219 -325 b 36 -318 97 -325 58 -321 m 107 939 l 247 939 l 247 793 l 107 793 m 385 939 l 525 939 l 525 793 l 385 793 "},"Ā":{"ha":925,"x_min":0,"x_max":0,"o":"m 378 981 l 550 981 l 926 0 l 782 0 l 674 292 l 251 292 l 143 0 l -1 0 m 633 401 l 463 865 l 292 401 m 253 1235 l 671 1235 l 671 1133 l 253 1133 "},"ā":{"ha":692,"x_min":0,"x_max":0,"o":"m 490 0 b 481 97 489 7 481 51 b 272 -17 442 15 361 -17 b 44 178 128 -17 44 74 b 317 397 44 338 169 372 b 404 411 335 400 385 407 b 485 489 481 425 485 453 b 344 590 485 525 460 590 b 189 449 257 590 196 546 l 64 472 b 147 621 75 535 104 585 b 344 686 197 663 265 686 b 604 465 490 686 604 633 l 604 160 b 614 0 604 68 613 7 m 171 183 b 290 79 171 124 226 79 b 481 254 353 79 481 108 l 481 342 b 379 317 463 333 419 325 l 333 308 b 171 183 247 292 171 274 m 131 924 l 549 924 l 549 822 l 131 822 "},"Ă":{"ha":925,"x_min":0,"x_max":0,"o":"m 378 981 l 550 981 l 926 0 l 782 0 l 674 292 l 251 292 l 143 0 l -1 0 m 633 401 l 463 865 l 292 401 m 256 1290 l 353 1290 l 353 1258 b 461 1133 353 1188 386 1133 b 571 1258 536 1133 571 1188 l 571 1290 l 668 1290 l 668 1258 b 461 1049 668 1129 578 1049 b 256 1258 344 1049 256 1129 "},"ă":{"ha":692,"x_min":0,"x_max":0,"o":"m 490 0 b 481 97 489 7 481 51 b 272 -17 442 15 361 -17 b 44 178 128 -17 44 74 b 317 397 44 338 169 372 b 404 411 335 400 385 407 b 485 489 481 425 485 453 b 344 590 485 525 460 590 b 189 449 257 590 196 546 l 64 472 b 147 621 75 535 104 585 b 344 686 197 663 265 686 b 604 465 490 686 604 633 l 604 160 b 614 0 604 68 613 7 m 171 183 b 290 79 171 124 226 79 b 481 254 353 79 481 108 l 481 342 b 379 317 463 333 419 325 l 333 308 b 171 183 247 292 171 274 m 133 979 l 231 979 l 231 947 b 339 822 231 876 264 822 b 449 947 414 822 449 876 l 449 979 l 546 979 l 546 947 b 339 738 546 818 456 738 b 133 947 222 738 133 818 "},"Ą":{"ha":925,"x_min":0,"x_max":0,"o":"m 942 -290 b 854 -321 919 -306 893 -321 b 708 -192 775 -321 708 -276 b 811 0 708 -110 764 -36 l 782 0 l 674 292 l 251 292 l 143 0 l -1 0 l 378 981 l 550 981 l 926 0 l 881 0 b 803 -164 846 -36 803 -117 b 885 -251 803 -232 844 -251 b 922 -240 899 -251 910 -247 m 633 401 l 463 865 l 292 401 "},"ą":{"ha":692,"x_min":0,"x_max":0,"o":"m 640 -290 b 553 -321 618 -306 592 -321 b 407 -192 474 -321 407 -276 b 510 0 407 -110 463 -36 l 490 0 b 481 97 489 7 481 51 b 272 -17 442 15 361 -17 b 44 178 128 -17 44 74 b 317 397 44 338 169 372 b 404 411 335 400 385 407 b 485 489 481 425 485 453 b 344 590 485 525 460 590 b 189 449 257 590 196 546 l 64 472 b 147 621 75 535 104 585 b 344 686 197 663 265 686 b 604 465 490 686 604 633 l 604 160 b 614 0 604 68 613 7 l 579 0 b 501 -164 544 -36 501 -117 b 583 -251 501 -232 543 -251 b 621 -240 597 -251 608 -247 m 171 183 b 290 79 171 124 226 79 b 481 254 353 79 481 108 l 481 342 b 379 317 463 333 419 325 l 333 308 b 171 183 247 292 171 274 "},"Ć":{"ha":996,"x_min":0,"x_max":0,"o":"m 946 324 b 518 -24 908 147 763 -24 b 50 490 213 -24 50 213 b 518 1004 50 764 222 1004 b 938 689 744 1004 885 860 l 804 661 b 518 892 765 782 675 892 b 188 490 307 892 188 703 b 518 89 188 275 299 89 b 813 350 690 89 786 221 m 557 1299 l 686 1299 l 563 1061 l 461 1061 "},"ć":{"ha":713,"x_min":0,"x_max":0,"o":"m 668 224 b 368 -17 654 131 563 -17 b 49 333 146 -17 49 157 b 368 686 49 511 157 686 b 665 454 561 686 647 553 l 542 432 b 368 588 535 479 494 588 b 174 333 235 588 174 458 b 368 82 174 210 228 82 b 544 249 486 82 535 182 m 408 988 l 538 988 l 414 750 l 313 750 "},"Ĉ":{"ha":996,"x_min":0,"x_max":0,"o":"m 946 324 b 518 -24 908 147 763 -24 b 50 490 213 -24 50 213 b 518 1004 50 764 222 1004 b 938 689 744 1004 885 860 l 804 661 b 518 892 765 782 675 892 b 188 490 307 892 188 703 b 518 89 188 275 299 89 b 813 350 690 89 786 221 m 463 1299 l 567 1299 l 747 1061 l 636 1061 l 515 1226 l 393 1061 l 282 1061 "},"ĉ":{"ha":713,"x_min":0,"x_max":0,"o":"m 668 224 b 368 -17 654 131 563 -17 b 49 333 146 -17 49 157 b 368 686 49 511 157 686 b 665 454 561 686 647 553 l 542 432 b 368 588 535 479 494 588 b 174 333 235 588 174 458 b 368 82 174 210 228 82 b 544 249 486 82 535 182 m 314 988 l 418 988 l 599 750 l 488 750 l 367 915 l 244 750 l 133 750 "},"Ċ":{"ha":996,"x_min":0,"x_max":0,"o":"m 946 324 b 518 -24 908 147 763 -24 b 50 490 213 -24 50 213 b 518 1004 50 764 222 1004 b 938 689 744 1004 885 860 l 804 661 b 518 892 765 782 675 892 b 188 490 307 892 188 703 b 518 89 188 275 299 89 b 813 350 690 89 786 221 m 446 1250 l 585 1250 l 585 1104 l 446 1104 "},"ċ":{"ha":713,"x_min":0,"x_max":0,"o":"m 668 224 b 368 -17 654 131 563 -17 b 49 333 146 -17 49 157 b 368 686 49 511 157 686 b 665 454 561 686 647 553 l 542 432 b 368 588 535 479 494 588 b 174 333 235 588 174 458 b 368 82 174 210 228 82 b 544 249 486 82 535 182 m 297 939 l 436 939 l 436 793 l 297 793 "},"Č":{"ha":996,"x_min":0,"x_max":0,"o":"m 946 324 b 518 -24 908 147 763 -24 b 50 490 213 -24 50 213 b 518 1004 50 764 222 1004 b 938 689 744 1004 885 860 l 804 661 b 518 892 765 782 675 892 b 188 490 307 892 188 703 b 518 89 188 275 299 89 b 813 350 690 89 786 221 m 282 1299 l 393 1299 l 515 1133 l 636 1299 l 747 1299 l 567 1061 l 463 1061 "},"č":{"ha":713,"x_min":0,"x_max":0,"o":"m 668 224 b 368 -17 654 131 563 -17 b 49 333 146 -17 49 157 b 368 686 49 511 157 686 b 665 454 561 686 647 553 l 542 432 b 368 588 535 479 494 588 b 174 333 235 588 174 458 b 368 82 174 210 228 82 b 544 249 486 82 535 182 m 133 988 l 244 988 l 367 822 l 488 988 l 599 988 l 418 750 l 314 750 "},"Ď":{"ha":981,"x_min":0,"x_max":0,"o":"m 410 113 b 793 490 697 113 793 288 b 410 868 793 693 697 868 l 232 868 l 232 113 m 99 981 l 419 981 b 931 490 668 981 931 860 b 419 0 931 121 668 0 l 99 0 m 192 1299 l 303 1299 l 425 1133 l 546 1299 l 657 1299 l 476 1061 l 372 1061 "},"ď":{"ha":771,"x_min":0,"x_max":0,"o":"m 567 101 b 357 -17 540 36 446 -17 b 49 333 121 -17 49 199 b 363 686 49 481 129 686 b 564 571 449 686 535 632 l 564 981 l 686 981 l 686 0 l 567 0 m 375 82 b 565 333 447 82 565 131 b 381 588 565 538 447 588 b 174 335 238 588 174 458 b 375 82 174 229 229 82 m 803 981 l 926 981 l 831 743 l 751 743 "},"Đ":{"ha":988,"x_min":0,"x_max":0,"o":"m 106 483 l 0 483 l 0 569 l 106 569 l 106 981 l 426 981 b 938 490 675 981 938 860 b 426 0 938 121 675 0 l 106 0 m 418 113 b 800 490 704 113 800 288 b 418 868 800 693 704 868 l 240 868 l 240 569 l 536 569 l 536 483 l 240 483 l 240 113 "},"đ":{"ha":771,"x_min":0,"x_max":0,"o":"m 360 868 l 564 868 l 564 981 l 686 981 l 686 868 l 768 868 l 768 786 l 686 786 l 686 0 l 567 0 l 567 101 b 357 -17 540 36 446 -17 b 49 333 121 -17 49 199 b 363 686 49 481 129 686 b 564 571 449 686 535 632 l 564 786 l 360 786 m 375 82 b 565 333 447 82 565 131 b 381 588 565 538 447 588 b 174 335 238 588 174 458 b 375 82 174 229 229 82 "},"Ē":{"ha":801,"x_min":0,"x_max":0,"o":"m 99 981 l 750 981 l 750 868 l 232 868 l 232 563 l 732 563 l 732 450 l 232 450 l 232 113 l 763 113 l 763 0 l 99 0 m 221 1235 l 639 1235 l 639 1133 l 221 1133 "},"ē":{"ha":710,"x_min":0,"x_max":0,"o":"m 651 197 b 371 -17 632 106 529 -17 b 49 333 146 -17 49 153 b 356 686 49 517 154 686 b 661 331 550 686 661 533 b 660 304 661 321 661 310 l 174 304 b 365 79 175 194 231 79 b 533 222 471 79 519 158 m 532 400 b 356 590 532 490 474 590 b 175 400 240 590 175 504 m 142 924 l 560 924 l 560 822 l 142 822 "},"Ĕ":{"ha":801,"x_min":0,"x_max":0,"o":"m 99 981 l 750 981 l 750 868 l 232 868 l 232 563 l 732 563 l 732 450 l 232 450 l 232 113 l 763 113 l 763 0 l 99 0 m 224 1290 l 321 1290 l 321 1258 b 429 1133 321 1188 354 1133 b 539 1258 504 1133 539 1188 l 539 1290 l 636 1290 l 636 1258 b 429 1049 636 1129 546 1049 b 224 1258 313 1049 224 1129 "},"ĕ":{"ha":710,"x_min":0,"x_max":0,"o":"m 651 197 b 371 -17 632 106 529 -17 b 49 333 146 -17 49 153 b 356 686 49 517 154 686 b 661 331 550 686 661 533 b 660 304 661 321 661 310 l 174 304 b 365 79 175 194 231 79 b 533 222 471 79 519 158 m 532 400 b 356 590 532 490 474 590 b 175 400 240 590 175 504 m 144 979 l 242 979 l 242 947 b 350 822 242 876 275 822 b 460 947 425 822 460 876 l 460 979 l 557 979 l 557 947 b 350 738 557 818 467 738 b 144 947 233 738 144 818 "},"Ė":{"ha":801,"x_min":0,"x_max":0,"o":"m 99 981 l 750 981 l 750 868 l 232 868 l 232 563 l 732 563 l 732 450 l 232 450 l 232 113 l 763 113 l 763 0 l 99 0 m 361 1250 l 500 1250 l 500 1104 l 361 1104 "},"ė":{"ha":710,"x_min":0,"x_max":0,"o":"m 651 197 b 371 -17 632 106 529 -17 b 49 333 146 -17 49 153 b 356 686 49 517 154 686 b 661 331 550 686 661 533 b 660 304 661 321 661 310 l 174 304 b 365 79 175 194 231 79 b 533 222 471 79 519 158 m 532 400 b 356 590 532 490 474 590 b 175 400 240 590 175 504 m 282 939 l 421 939 l 421 793 l 282 793 "},"Ę":{"ha":801,"x_min":0,"x_max":0,"o":"m 99 981 l 750 981 l 750 868 l 232 868 l 232 563 l 732 563 l 732 450 l 232 450 l 232 113 l 763 113 l 763 0 l 607 0 b 529 -164 572 -36 529 -117 b 611 -251 529 -232 571 -251 b 649 -240 625 -251 636 -247 l 668 -290 b 581 -321 646 -306 619 -321 b 435 -192 501 -321 435 -276 b 538 0 435 -110 490 -36 l 99 0 "},"ę":{"ha":710,"x_min":0,"x_max":0,"o":"m 524 -290 b 436 -321 501 -306 475 -321 b 290 -192 357 -321 290 -276 b 374 -17 290 -121 332 -56 l 371 -17 b 49 333 146 -17 49 153 b 356 686 49 517 154 686 b 661 331 550 686 661 533 b 660 304 661 321 661 310 l 174 304 b 365 79 175 194 231 79 b 533 222 471 79 519 158 l 651 197 b 460 -3 636 124 567 32 b 385 -164 425 -40 385 -118 b 467 -251 385 -232 426 -251 b 504 -240 481 -251 492 -247 m 532 400 b 356 590 532 490 474 590 b 175 400 240 590 175 504 "},"Ě":{"ha":801,"x_min":0,"x_max":0,"o":"m 99 981 l 750 981 l 750 868 l 232 868 l 232 563 l 732 563 l 732 450 l 232 450 l 232 113 l 763 113 l 763 0 l 99 0 m 197 1299 l 308 1299 l 431 1133 l 551 1299 l 663 1299 l 482 1061 l 378 1061 "},"ě":{"ha":710,"x_min":0,"x_max":0,"o":"m 651 197 b 371 -17 632 106 529 -17 b 49 333 146 -17 49 153 b 356 686 49 517 154 686 b 661 331 550 686 661 533 b 660 304 661 321 661 310 l 174 304 b 365 79 175 194 231 79 b 533 222 471 79 519 158 m 532 400 b 356 590 532 490 474 590 b 175 400 240 590 175 504 m 118 988 l 229 988 l 351 822 l 472 988 l 583 988 l 403 750 l 299 750 "},"Ĝ":{"ha":1022,"x_min":0,"x_max":0,"o":"m 814 142 b 511 -24 761 49 669 -24 b 50 490 214 -24 50 210 b 517 1004 50 764 221 1004 b 921 733 722 1004 858 888 l 788 704 b 517 892 742 810 653 892 b 188 490 307 892 188 703 b 517 89 188 275 297 89 b 811 422 649 89 806 169 l 499 422 l 499 535 l 939 535 l 939 0 l 814 0 m 458 1299 l 563 1299 l 743 1061 l 632 1061 l 511 1226 l 389 1061 l 278 1061 "},"ĝ":{"ha":772,"x_min":0,"x_max":0,"o":"m 208 -67 b 375 -228 215 -158 281 -228 b 557 -17 508 -228 557 -132 l 557 101 b 351 -11 528 40 438 -11 b 49 335 139 -11 49 160 b 361 686 49 468 115 686 b 561 567 444 686 533 631 l 561 669 l 679 669 l 679 -19 b 375 -326 679 -208 581 -326 b 78 -90 215 -326 96 -233 m 368 88 b 558 336 442 88 558 138 b 378 588 558 536 446 588 b 174 339 225 588 174 443 b 368 88 174 201 240 88 m 313 989 l 417 989 l 597 751 l 486 751 l 365 917 l 243 751 l 132 751 "},"Ğ":{"ha":1022,"x_min":0,"x_max":0,"o":"m 814 142 b 511 -24 761 49 669 -24 b 50 490 214 -24 50 210 b 517 1004 50 764 221 1004 b 921 733 722 1004 858 888 l 788 704 b 517 892 742 810 653 892 b 188 490 307 892 188 703 b 517 89 188 275 297 89 b 811 422 649 89 806 169 l 499 422 l 499 535 l 939 535 l 939 0 l 814 0 m 304 1290 l 401 1290 l 401 1258 b 510 1133 401 1188 435 1133 b 619 1258 585 1133 619 1188 l 619 1290 l 717 1290 l 717 1258 b 510 1049 717 1129 626 1049 b 304 1258 393 1049 304 1129 "},"ğ":{"ha":772,"x_min":0,"x_max":0,"o":"m 208 -67 b 375 -228 215 -158 281 -228 b 557 -17 508 -228 557 -132 l 557 101 b 351 -11 528 40 438 -11 b 49 335 139 -11 49 160 b 361 686 49 468 115 686 b 561 567 444 686 533 631 l 561 669 l 679 669 l 679 -19 b 375 -326 679 -208 581 -326 b 78 -90 215 -326 96 -233 m 368 88 b 558 336 442 88 558 138 b 378 588 558 536 446 588 b 174 339 225 588 174 443 b 368 88 174 201 240 88 m 158 981 l 256 981 l 256 949 b 364 824 256 878 289 824 b 474 949 439 824 474 878 l 474 981 l 571 981 l 571 949 b 364 739 571 819 481 739 b 158 949 247 739 158 819 "},"Ġ":{"ha":1022,"x_min":0,"x_max":0,"o":"m 814 142 b 511 -24 761 49 669 -24 b 50 490 214 -24 50 210 b 517 1004 50 764 221 1004 b 921 733 722 1004 858 888 l 788 704 b 517 892 742 810 653 892 b 188 490 307 892 188 703 b 517 89 188 275 297 89 b 811 422 649 89 806 169 l 499 422 l 499 535 l 939 535 l 939 0 l 814 0 m 442 1250 l 581 1250 l 581 1104 l 442 1104 "},"ġ":{"ha":772,"x_min":0,"x_max":0,"o":"m 208 -67 b 375 -228 215 -158 281 -228 b 557 -17 508 -228 557 -132 l 557 101 b 351 -11 528 40 438 -11 b 49 335 139 -11 49 160 b 361 686 49 468 115 686 b 561 567 444 686 533 631 l 561 669 l 679 669 l 679 -19 b 375 -326 679 -208 581 -326 b 78 -90 215 -326 96 -233 m 368 88 b 558 336 442 88 558 138 b 378 588 558 536 446 588 b 174 339 225 588 174 443 b 368 88 174 201 240 88 m 296 940 l 435 940 l 435 794 l 296 794 "},"Ģ":{"ha":1022,"x_min":0,"x_max":0,"o":"m 814 142 b 511 -24 761 49 669 -24 b 50 490 214 -24 50 210 b 517 1004 50 764 221 1004 b 921 733 722 1004 858 888 l 788 704 b 517 892 742 810 653 892 b 188 490 307 892 188 703 b 517 89 188 275 297 89 b 811 422 649 89 806 169 l 499 422 l 499 535 l 939 535 l 939 0 l 814 0 m 450 -76 l 574 -76 l 478 -315 l 399 -315 "},"ģ":{"ha":772,"x_min":0,"x_max":0,"o":"m 208 -67 b 375 -228 215 -158 281 -228 b 557 -17 508 -228 557 -132 l 557 101 b 351 -11 528 40 438 -11 b 49 335 139 -11 49 160 b 361 686 49 468 115 686 b 561 567 444 686 533 631 l 561 669 l 679 669 l 679 -19 b 375 -326 679 -208 581 -326 b 78 -90 215 -326 96 -233 m 368 88 b 558 336 442 88 558 138 b 378 588 558 536 446 588 b 174 339 225 588 174 443 b 368 88 174 201 240 88 m 401 989 l 482 989 l 429 751 l 304 751 "},"Ĥ":{"ha":988,"x_min":0,"x_max":0,"o":"m 99 981 l 232 981 l 232 564 l 754 564 l 754 981 l 890 981 l 890 0 l 754 0 l 754 451 l 232 451 l 232 0 l 99 0 m 440 1299 l 544 1299 l 725 1061 l 614 1061 l 493 1226 l 371 1061 l 260 1061 "},"ĥ":{"ha":729,"x_min":0,"x_max":0,"o":"m 85 981 l 206 981 l 206 558 b 417 686 222 614 299 686 b 600 596 483 686 551 661 b 649 372 643 539 649 488 l 649 0 l 525 0 l 525 372 b 499 535 525 467 519 504 b 382 588 482 558 444 588 b 253 526 325 588 285 565 b 207 319 215 481 207 438 l 207 0 l 85 0 m 96 1299 l 200 1299 l 381 1061 l 269 1061 l 149 1226 l 26 1061 l -85 1061 "},"Ħ":{"ha":999,"x_min":0,"x_max":0,"o":"m -1 811 l 104 811 l 104 981 l 238 981 l 238 811 l 760 811 l 760 981 l 896 981 l 896 811 l 1001 811 l 1001 725 l 896 725 l 896 0 l 760 0 l 760 451 l 238 451 l 238 0 l 104 0 l 104 725 l -1 725 m 760 564 l 760 725 l 238 725 l 238 564 "},"ħ":{"ha":729,"x_min":0,"x_max":0,"o":"m 11 868 l 85 868 l 85 981 l 206 981 l 206 868 l 410 868 l 410 786 l 206 786 l 206 558 b 417 686 222 614 299 686 b 600 596 483 686 551 661 b 649 372 643 539 649 488 l 649 0 l 525 0 l 525 372 b 499 535 525 467 519 504 b 382 588 482 558 444 588 b 253 526 325 588 285 565 b 207 319 215 481 207 438 l 207 0 l 85 0 l 85 786 l 11 786 "},"Ĩ":{"ha":331,"x_min":0,"x_max":0,"o":"m 99 981 l 232 981 l 232 0 l 99 0 m -44 1208 b 71 1258 -15 1235 28 1258 b 176 1232 108 1258 142 1244 b 260 1210 206 1222 235 1210 b 374 1279 306 1210 344 1240 l 374 1161 b 257 1110 344 1133 299 1110 b 158 1133 222 1110 189 1122 b 67 1158 126 1144 97 1158 b -44 1090 22 1158 -15 1129 "},"ĩ":{"ha":293,"x_min":0,"x_max":0,"o":"m 85 669 l 208 669 l 208 0 l 85 0 m -62 897 b 53 947 -33 924 10 947 b 158 921 90 947 124 933 b 242 899 188 911 217 899 b 356 968 288 899 326 929 l 356 850 b 239 799 326 822 281 799 b 140 822 204 799 171 811 b 49 847 108 833 79 847 b -62 779 4 847 -33 818 "},"Ī":{"ha":331,"x_min":0,"x_max":0,"o":"m 99 981 l 232 981 l 232 0 l 99 0 m -44 1235 l 374 1235 l 374 1133 l -44 1133 "},"ī":{"ha":293,"x_min":0,"x_max":0,"o":"m 85 669 l 208 669 l 208 0 l 85 0 m -62 924 l 356 924 l 356 822 l -62 822 "},"Ĭ":{"ha":331,"x_min":0,"x_max":0,"o":"m 99 981 l 232 981 l 232 0 l 99 0 m -42 1290 l 56 1290 l 56 1258 b 164 1133 56 1188 89 1133 b 274 1258 239 1133 274 1188 l 274 1290 l 371 1290 l 371 1258 b 164 1049 371 1129 281 1049 b -42 1258 47 1049 -42 1129 "},"ĭ":{"ha":293,"x_min":0,"x_max":0,"o":"m 85 669 l 208 669 l 208 0 l 85 0 m -60 979 l 38 979 l 38 947 b 146 822 38 876 71 822 b 256 947 221 822 256 876 l 256 979 l 353 979 l 353 947 b 146 738 353 818 263 738 b -60 947 29 738 -60 818 "},"Į":{"ha":331,"x_min":0,"x_max":0,"o":"m 99 981 l 232 981 l 232 0 l 203 0 b 125 -164 168 -36 125 -117 b 207 -251 125 -232 167 -251 b 244 -240 221 -251 232 -247 l 264 -290 b 176 -321 242 -306 215 -321 b 31 -192 97 -321 31 -276 b 133 0 31 -110 86 -36 l 99 0 "},"į":{"ha":293,"x_min":0,"x_max":0,"o":"m 85 669 l 208 669 l 208 0 l 185 0 b 107 -164 150 -36 107 -117 b 189 -251 107 -232 149 -251 b 226 -240 203 -251 214 -247 l 246 -290 b 158 -321 224 -306 197 -321 b 13 -192 79 -321 13 -276 b 115 0 13 -110 68 -36 l 85 0 m 85 981 l 208 981 l 208 843 l 85 843 "},"İ":{"ha":331,"x_min":0,"x_max":0,"o":"m 99 981 l 232 981 l 232 0 l 99 0 m 96 1250 l 235 1250 l 235 1104 l 96 1104 "},"ı":{"ha":293,"x_min":0,"x_max":0,"o":"m 85 669 l 208 669 l 208 0 l 85 0 "},"Ĳ":{"ha":1117,"x_min":0,"x_max":0,"o":"m 99 981 l 232 981 l 232 0 l 99 0 m 493 328 b 689 86 493 181 557 86 b 885 296 821 86 885 176 l 885 981 l 1019 981 l 1019 301 b 690 -24 1019 97 889 -24 b 356 303 497 -24 363 94 "},"ĳ":{"ha":589,"x_min":0,"x_max":0,"o":"m 85 669 l 208 669 l 208 0 l 85 0 m 85 981 l 208 981 l 208 843 l 85 843 m 233 -214 b 285 -219 251 -217 269 -219 b 381 -117 372 -219 381 -162 l 381 669 l 503 669 l 503 -121 b 319 -325 503 -242 475 -325 b 233 -318 285 -325 261 -324 m 381 981 l 503 981 l 503 843 l 381 843 "},"Ĵ":{"ha":786,"x_min":0,"x_max":0,"o":"m 161 328 b 358 86 161 181 225 86 b 554 296 489 86 554 176 l 554 981 l 688 981 l 688 301 b 360 -24 688 97 558 -24 b 24 303 167 -24 32 94 m 565 1299 l 669 1299 l 850 1061 l 739 1061 l 618 1226 l 496 1061 l 385 1061 "},"ĵ":{"ha":294,"x_min":0,"x_max":0,"o":"m -60 -214 b -8 -219 -42 -217 -24 -219 b 88 -117 79 -219 88 -162 l 88 669 l 210 669 l 210 -121 b 26 -325 210 -242 182 -325 b -60 -318 -8 -325 -32 -324 m 94 988 l 199 988 l 379 750 l 268 750 l 147 915 l 25 750 l -86 750 "},"Ķ":{"ha":892,"x_min":0,"x_max":0,"o":"m 99 981 l 232 981 l 232 543 l 668 981 l 840 981 l 374 524 l 904 0 l 724 0 l 232 489 l 232 0 l 99 0 m 381 -76 l 504 -76 l 408 -315 l 329 -315 "},"ķ":{"ha":706,"x_min":0,"x_max":0,"o":"m 85 981 l 208 981 l 208 389 l 500 669 l 660 669 l 338 369 l 715 0 l 556 0 l 208 332 l 208 0 l 85 0 m 288 -76 l 411 -76 l 315 -315 l 236 -315 "},"ĸ":{"ha":706,"x_min":0,"x_max":0,"o":"m 85 669 l 208 669 l 208 386 l 500 669 l 660 669 l 338 365 l 715 0 l 556 0 l 208 328 l 208 0 l 85 0 "},"Ĺ":{"ha":750,"x_min":0,"x_max":0,"o":"m 99 981 l 232 981 l 232 113 l 732 113 l 732 0 l 99 0 m 207 1299 l 336 1299 l 213 1061 l 111 1061 "},"ĺ":{"ha":293,"x_min":0,"x_max":0,"o":"m 85 981 l 208 981 l 208 0 l 85 0 m 189 1299 l 318 1299 l 194 1061 l 93 1061 "},"Ļ":{"ha":750,"x_min":0,"x_max":0,"o":"m 99 981 l 232 981 l 232 113 l 732 113 l 732 0 l 99 0 m 354 -76 l 478 -76 l 382 -315 l 303 -315 "},"ļ":{"ha":293,"x_min":0,"x_max":0,"o":"m 85 981 l 208 981 l 208 0 l 85 0 m 82 -76 l 206 -76 l 110 -315 l 31 -315 "},"Ľ":{"ha":750,"x_min":0,"x_max":0,"o":"m 99 981 l 232 981 l 232 113 l 732 113 l 732 0 l 99 0 m 371 981 l 494 981 l 400 743 l 321 743 "},"ľ":{"ha":293,"x_min":0,"x_max":0,"o":"m 85 981 l 208 981 l 208 0 l 85 0 m 325 981 l 449 981 l 353 743 l 274 743 "},"Ŀ":{"ha":750,"x_min":0,"x_max":0,"o":"m 99 981 l 232 981 l 232 113 l 732 113 l 732 0 l 99 0 m 422 600 l 560 600 l 560 454 l 422 454 "},"ŀ":{"ha":431,"x_min":0,"x_max":0,"o":"m 85 981 l 208 981 l 208 0 l 85 0 m 289 561 l 428 561 l 428 415 l 289 415 "},"Ł":{"ha":728,"x_min":0,"x_max":0,"o":"m 110 338 l 1 267 l 1 361 l 110 432 l 110 981 l 243 981 l 243 522 l 532 714 l 532 619 l 243 428 l 243 113 l 710 113 l 710 0 l 110 0 "},"ł":{"ha":315,"x_min":0,"x_max":0,"o":"m 96 440 l -4 372 l -4 464 l 96 532 l 96 981 l 219 981 l 219 613 l 321 681 l 321 589 l 219 521 l 219 0 l 96 0 "},"Ń":{"ha":1035,"x_min":0,"x_max":0,"o":"m 99 981 l 282 981 l 811 133 l 811 981 l 936 981 l 936 0 l 743 0 l 224 846 l 224 0 l 99 0 m 558 1299 l 688 1299 l 564 1061 l 463 1061 "},"ń":{"ha":726,"x_min":0,"x_max":0,"o":"m 85 669 l 206 669 l 206 561 b 414 686 221 615 297 686 b 599 599 479 686 551 663 b 646 372 642 540 646 488 l 646 0 l 524 0 l 524 372 b 496 535 524 467 518 504 b 379 588 481 558 442 588 b 251 526 322 588 282 565 b 208 319 215 481 208 428 l 208 0 l 85 0 m 408 988 l 538 988 l 414 750 l 313 750 "},"Ņ":{"ha":1035,"x_min":0,"x_max":0,"o":"m 99 981 l 282 981 l 811 133 l 811 981 l 936 981 l 936 0 l 743 0 l 224 846 l 224 0 l 99 0 m 451 -76 l 575 -76 l 479 -315 l 400 -315 "},"ņ":{"ha":726,"x_min":0,"x_max":0,"o":"m 85 669 l 206 669 l 206 561 b 414 686 221 615 297 686 b 599 599 479 686 551 663 b 646 372 642 540 646 488 l 646 0 l 524 0 l 524 372 b 496 535 524 467 518 504 b 379 588 481 558 442 588 b 251 526 322 588 282 565 b 208 319 215 481 208 428 l 208 0 l 85 0 m 297 -76 l 421 -76 l 325 -315 l 246 -315 "},"Ň":{"ha":1035,"x_min":0,"x_max":0,"o":"m 99 981 l 282 981 l 811 133 l 811 981 l 936 981 l 936 0 l 743 0 l 224 846 l 224 0 l 99 0 m 283 1299 l 394 1299 l 517 1133 l 638 1299 l 749 1299 l 568 1061 l 464 1061 "},"ň":{"ha":726,"x_min":0,"x_max":0,"o":"m 85 669 l 206 669 l 206 561 b 414 686 221 615 297 686 b 599 599 479 686 551 663 b 646 372 642 540 646 488 l 646 0 l 524 0 l 524 372 b 496 535 524 467 518 504 b 379 588 481 558 442 588 b 251 526 322 588 282 565 b 208 319 215 481 208 428 l 208 0 l 85 0 m 133 988 l 244 988 l 367 822 l 488 988 l 599 988 l 418 750 l 314 750 "},"ŉ":{"ha":726,"x_min":0,"x_max":0,"o":"m 85 669 l 206 669 l 206 561 b 414 686 221 615 297 686 b 599 599 479 686 551 663 b 646 372 642 540 646 488 l 646 0 l 524 0 l 524 372 b 496 535 524 467 518 504 b 379 588 481 558 442 588 b 251 526 322 588 282 565 b 208 319 215 481 208 428 l 208 0 l 85 0 m 90 988 l 215 988 l 118 750 l 39 750 "},"Ŋ":{"ha":1035,"x_min":0,"x_max":0,"o":"m 667 -214 b 718 -219 685 -217 703 -219 b 811 -117 806 -219 811 -162 l 811 0 l 743 0 l 224 846 l 224 0 l 99 0 l 99 981 l 282 981 l 811 133 l 811 981 l 936 981 l 936 -121 b 753 -325 936 -242 907 -325 b 667 -318 718 -325 694 -324 "},"ŋ":{"ha":726,"x_min":0,"x_max":0,"o":"m 378 -214 b 429 -219 396 -217 414 -219 b 524 -117 515 -219 524 -162 l 524 372 b 496 535 524 467 518 504 b 379 588 481 558 442 588 b 251 526 322 588 282 565 b 208 319 215 481 208 428 l 208 0 l 85 0 l 85 669 l 206 669 l 206 561 b 414 686 221 615 297 686 b 599 599 479 686 551 663 b 646 372 642 540 646 488 l 646 -121 b 463 -325 646 -242 618 -325 b 378 -318 428 -325 406 -324 "},"Ō":{"ha":1032,"x_min":0,"x_max":0,"o":"m 518 89 b 844 486 746 89 844 288 b 518 892 844 688 746 892 b 188 486 288 892 188 688 b 518 89 188 288 288 89 m 518 -24 b 50 486 192 -24 50 231 b 518 1004 50 743 192 1004 b 982 486 842 1004 982 743 b 518 -24 982 231 842 -24 m 307 1235 l 725 1235 l 725 1133 l 307 1133 "},"ō":{"ha":742,"x_min":0,"x_max":0,"o":"m 372 82 b 568 333 506 82 568 213 b 372 588 568 454 506 588 b 174 333 238 588 174 454 b 372 82 174 213 238 82 m 372 -17 b 49 333 163 -17 49 163 b 372 686 49 506 163 686 b 694 333 581 686 694 506 b 372 -17 694 163 581 -17 m 160 924 l 578 924 l 578 822 l 160 822 "},"Ŏ":{"ha":1032,"x_min":0,"x_max":0,"o":"m 518 89 b 844 486 746 89 844 288 b 518 892 844 688 746 892 b 188 486 288 892 188 688 b 518 89 188 288 288 89 m 518 -24 b 50 486 192 -24 50 231 b 518 1004 50 743 192 1004 b 982 486 842 1004 982 743 b 518 -24 982 231 842 -24 m 310 1290 l 407 1290 l 407 1258 b 515 1133 407 1188 440 1133 b 625 1258 590 1133 625 1188 l 625 1290 l 722 1290 l 722 1258 b 515 1049 722 1129 632 1049 b 310 1258 399 1049 310 1129 "},"ŏ":{"ha":742,"x_min":0,"x_max":0,"o":"m 372 82 b 568 333 506 82 568 213 b 372 588 568 454 506 588 b 174 333 238 588 174 454 b 372 82 174 213 238 82 m 372 -17 b 49 333 163 -17 49 163 b 372 686 49 506 163 686 b 694 333 581 686 694 506 b 372 -17 694 163 581 -17 m 163 979 l 260 979 l 260 947 b 368 822 260 876 293 822 b 478 947 443 822 478 876 l 478 979 l 575 979 l 575 947 b 368 738 575 818 485 738 b 163 947 251 738 163 818 "},"Ő":{"ha":1032,"x_min":0,"x_max":0,"o":"m 518 89 b 844 486 746 89 844 288 b 518 892 844 688 746 892 b 188 486 288 892 188 688 b 518 89 188 288 288 89 m 518 -24 b 50 486 192 -24 50 231 b 518 1004 50 743 192 1004 b 982 486 842 1004 982 743 b 518 -24 982 231 842 -24 m 463 1299 l 592 1299 l 468 1061 l 367 1061 m 643 1299 l 772 1299 l 649 1061 l 547 1061 "},"ő":{"ha":742,"x_min":0,"x_max":0,"o":"m 372 82 b 568 333 506 82 568 213 b 372 588 568 454 506 588 b 174 333 238 588 174 454 b 372 82 174 213 238 82 m 372 -17 b 49 333 163 -17 49 163 b 372 686 49 506 163 686 b 694 333 581 686 694 506 b 372 -17 694 163 581 -17 m 315 988 l 444 988 l 321 750 l 219 750 m 496 988 l 625 988 l 501 750 l 400 750 "},"Œ":{"ha":1297,"x_min":0,"x_max":0,"o":"m 1258 113 l 1258 0 l 550 0 b 50 489 219 0 50 231 b 550 981 50 747 219 981 l 1247 981 l 1247 868 l 800 868 l 800 563 l 1229 563 l 1229 450 l 800 450 l 800 113 m 665 113 l 665 868 l 550 868 b 188 489 315 868 188 692 b 550 113 188 288 315 113 "},"œ":{"ha":1231,"x_min":0,"x_max":0,"o":"m 1172 197 b 892 -17 1156 110 1050 -17 b 628 125 760 -17 675 42 b 372 -17 576 42 490 -17 b 49 333 163 -17 49 163 b 372 686 49 506 163 686 b 628 542 490 686 576 625 b 876 686 676 626 758 686 b 1182 331 1071 686 1182 531 b 1181 304 1182 321 1181 310 l 694 304 b 886 79 694 204 739 79 b 1054 222 992 79 1040 158 m 372 82 b 568 333 506 82 568 213 b 372 588 568 454 506 588 b 174 333 238 588 174 454 b 372 82 174 213 238 82 m 1053 400 b 876 590 1053 489 994 590 b 696 400 761 590 696 503 "},"Ŕ":{"ha":913,"x_min":0,"x_max":0,"o":"m 99 981 l 506 981 b 831 724 718 981 831 885 b 669 493 831 561 722 503 b 825 306 757 476 825 428 l 825 154 b 883 0 825 104 832 54 l 732 0 b 690 136 694 44 690 93 l 690 283 b 519 428 690 399 626 428 l 231 428 l 231 0 l 99 0 m 510 540 b 696 715 676 540 696 658 b 500 868 696 806 638 868 l 231 868 l 231 540 m 474 1299 l 603 1299 l 479 1061 l 378 1061 "},"ŕ":{"ha":457,"x_min":0,"x_max":0,"o":"m 85 669 l 206 669 l 206 557 b 404 686 228 619 301 686 b 451 682 424 686 444 683 l 451 558 b 388 564 438 561 421 564 b 244 488 315 564 274 531 b 208 303 210 442 208 375 l 208 0 l 85 0 m 289 988 l 418 988 l 294 750 l 193 750 "},"Ŗ":{"ha":913,"x_min":0,"x_max":0,"o":"m 99 981 l 506 981 b 831 724 718 981 831 885 b 669 493 831 561 722 503 b 825 306 757 476 825 428 l 825 154 b 883 0 825 104 832 54 l 732 0 b 690 136 694 44 690 93 l 690 283 b 519 428 690 399 626 428 l 231 428 l 231 0 l 99 0 m 510 540 b 696 715 676 540 696 658 b 500 868 696 806 638 868 l 231 868 l 231 540 m 388 -76 l 511 -76 l 415 -315 l 336 -315 "},"ŗ":{"ha":457,"x_min":0,"x_max":0,"o":"m 85 669 l 206 669 l 206 557 b 404 686 228 619 301 686 b 451 682 424 686 444 683 l 451 558 b 388 564 438 561 421 564 b 244 488 315 564 274 531 b 208 303 210 442 208 375 l 208 0 l 85 0 m 79 -76 l 203 -76 l 107 -315 l 28 -315 "},"Ř":{"ha":913,"x_min":0,"x_max":0,"o":"m 99 981 l 506 981 b 831 724 718 981 831 885 b 669 493 831 561 722 503 b 825 306 757 476 825 428 l 825 154 b 883 0 825 104 832 54 l 732 0 b 690 136 694 44 690 93 l 690 283 b 519 428 690 399 626 428 l 231 428 l 231 0 l 99 0 m 510 540 b 696 715 676 540 696 658 b 500 868 696 806 638 868 l 231 868 l 231 540 m 199 1299 l 310 1299 l 432 1133 l 553 1299 l 664 1299 l 483 1061 l 379 1061 "},"ř":{"ha":457,"x_min":0,"x_max":0,"o":"m 85 669 l 206 669 l 206 557 b 404 686 228 619 301 686 b 451 682 424 686 444 683 l 451 558 b 388 564 438 561 421 564 b 244 488 315 564 274 531 b 208 303 210 442 208 375 l 208 0 l 85 0 m 14 988 l 125 988 l 247 822 l 368 988 l 479 988 l 299 750 l 194 750 "},"Ś":{"ha":878,"x_min":0,"x_max":0,"o":"m 182 322 b 440 89 190 164 310 89 b 696 267 599 89 696 167 b 501 428 696 379 607 404 l 407 449 b 71 722 236 486 71 528 b 442 1004 71 892 218 1004 b 810 724 674 1004 779 875 l 672 699 b 442 892 647 836 551 892 b 207 722 315 892 207 840 b 429 572 207 625 318 597 l 535 549 b 833 274 686 514 833 460 b 438 -24 833 99 675 -24 b 44 300 238 -24 72 83 m 481 1299 l 610 1299 l 486 1061 l 385 1061 "},"ś":{"ha":654,"x_min":0,"x_max":0,"o":"m 165 238 b 328 79 171 143 225 79 b 486 189 411 79 486 113 b 357 288 486 264 407 278 l 278 303 b 61 494 193 319 61 346 b 329 686 61 590 149 686 b 596 476 456 686 571 614 l 476 453 b 324 590 465 532 431 590 b 182 496 222 590 182 536 b 321 400 182 432 267 410 l 374 390 b 614 193 481 371 614 340 b 328 -17 614 60 483 -17 b 38 210 136 -17 47 115 m 365 988 l 494 988 l 371 750 l 269 750 "},"Ŝ":{"ha":878,"x_min":0,"x_max":0,"o":"m 182 322 b 440 89 190 164 310 89 b 696 267 599 89 696 167 b 501 428 696 379 607 404 l 407 449 b 71 722 236 486 71 528 b 442 1004 71 892 218 1004 b 810 724 674 1004 779 875 l 672 699 b 442 892 647 836 551 892 b 207 722 315 892 207 840 b 429 572 207 625 318 597 l 535 549 b 833 274 686 514 833 460 b 438 -24 833 99 675 -24 b 44 300 238 -24 72 83 m 386 1299 l 490 1299 l 671 1061 l 560 1061 l 439 1226 l 317 1061 l 206 1061 "},"ŝ":{"ha":654,"x_min":0,"x_max":0,"o":"m 165 238 b 328 79 171 143 225 79 b 486 189 411 79 486 113 b 357 288 486 264 407 278 l 278 303 b 61 494 193 319 61 346 b 329 686 61 590 149 686 b 596 476 456 686 571 614 l 476 453 b 324 590 465 532 431 590 b 182 496 222 590 182 536 b 321 400 182 432 267 410 l 374 390 b 614 193 481 371 614 340 b 328 -17 614 60 483 -17 b 38 210 136 -17 47 115 m 271 988 l 375 988 l 556 750 l 444 750 l 324 915 l 201 750 l 90 750 "},"Ş":{"ha":878,"x_min":0,"x_max":0,"o":"m 394 -253 l 439 -253 b 510 -192 478 -253 510 -232 b 439 -135 510 -156 478 -135 l 394 -135 l 394 -21 b 44 300 214 -7 69 99 l 182 322 b 440 89 190 164 310 89 b 696 267 599 89 696 167 b 501 428 696 379 607 404 l 407 449 b 71 722 236 486 71 528 b 442 1004 71 892 218 1004 b 810 724 674 1004 779 875 l 672 699 b 442 892 647 836 551 892 b 207 722 315 892 207 840 b 429 572 207 625 318 597 l 535 549 b 833 274 686 514 833 460 b 467 -22 833 106 688 -12 l 467 -68 b 588 -192 536 -74 588 -118 b 443 -321 588 -275 522 -321 l 394 -321 "},"ş":{"ha":653,"x_min":0,"x_max":0,"o":"m 165 238 b 328 79 171 143 225 79 b 486 189 411 79 486 113 b 357 288 486 264 407 278 l 278 303 b 61 494 193 319 61 346 b 329 686 61 590 149 686 b 596 476 456 686 571 614 l 476 453 b 324 590 465 532 431 590 b 182 496 222 590 182 536 b 321 400 182 432 267 410 l 374 390 b 614 193 481 371 614 340 b 357 -15 614 68 499 -6 l 357 -68 b 476 -192 426 -74 476 -118 b 332 -321 476 -275 411 -321 l 283 -321 l 283 -253 l 328 -253 b 400 -192 368 -253 400 -232 b 328 -135 400 -156 368 -135 l 283 -135 l 283 -14 b 38 210 122 4 46 122 "},"Š":{"ha":878,"x_min":0,"x_max":0,"o":"m 182 322 b 440 89 190 164 310 89 b 696 267 599 89 696 167 b 501 428 696 379 607 404 l 407 449 b 71 722 236 486 71 528 b 442 1004 71 892 218 1004 b 810 724 674 1004 779 875 l 672 699 b 442 892 647 836 551 892 b 207 722 315 892 207 840 b 429 572 207 625 318 597 l 535 549 b 833 274 686 514 833 460 b 438 -24 833 99 675 -24 b 44 300 238 -24 72 83 m 206 1299 l 317 1299 l 439 1133 l 560 1299 l 671 1299 l 490 1061 l 386 1061 "},"š":{"ha":654,"x_min":0,"x_max":0,"o":"m 165 238 b 328 79 171 143 225 79 b 486 189 411 79 486 113 b 357 288 486 264 407 278 l 278 303 b 61 494 193 319 61 346 b 329 686 61 590 149 686 b 596 476 456 686 571 614 l 476 453 b 324 590 465 532 431 590 b 182 496 222 590 182 536 b 321 400 182 432 267 410 l 374 390 b 614 193 481 371 614 340 b 328 -17 614 60 483 -17 b 38 210 136 -17 47 115 m 90 988 l 201 988 l 324 822 l 444 988 l 556 988 l 375 750 l 271 750 "},"Ţ":{"ha":783,"x_min":0,"x_max":0,"o":"m 324 868 l 13 868 l 13 981 l 771 981 l 771 868 l 458 868 l 458 0 l 428 0 l 428 -68 b 549 -192 497 -74 549 -118 b 404 -321 549 -275 483 -321 l 356 -321 l 356 -253 l 400 -253 b 471 -192 440 -253 471 -232 b 400 -135 471 -156 440 -135 l 356 -135 l 356 0 l 324 0 "},"ţ":{"ha":435,"x_min":0,"x_max":0,"o":"m 203 -253 l 247 -253 b 318 -192 288 -253 318 -232 b 247 -135 318 -156 288 -135 l 203 -135 l 203 10 b 131 149 157 33 131 79 l 131 571 l 1 571 l 1 669 l 131 669 l 131 890 l 254 890 l 254 669 l 396 669 l 396 571 l 254 571 l 254 178 b 329 93 254 114 281 93 b 396 100 350 93 375 96 l 396 1 b 300 -10 376 -3 342 -10 b 275 -8 292 -10 283 -10 l 275 -68 b 396 -192 344 -74 396 -118 b 251 -321 396 -275 331 -321 l 203 -321 "},"Ť":{"ha":783,"x_min":0,"x_max":0,"o":"m 324 868 l 13 868 l 13 981 l 771 981 l 771 868 l 458 868 l 458 0 l 324 0 m 158 1299 l 269 1299 l 392 1133 l 513 1299 l 624 1299 l 443 1061 l 339 1061 "},"ť":{"ha":435,"x_min":0,"x_max":0,"o":"m 131 571 l 1 571 l 1 669 l 131 669 l 131 890 l 254 890 l 254 669 l 396 669 l 396 571 l 254 571 l 254 178 b 329 93 254 114 281 93 b 396 100 350 93 375 96 l 396 1 b 300 -10 376 -3 342 -10 b 131 149 196 -10 131 40 m 404 988 l 528 988 l 433 750 l 354 750 "},"Ŧ":{"ha":783,"x_min":0,"x_max":0,"o":"m 122 690 l 324 690 l 324 868 l 13 868 l 13 981 l 771 981 l 771 868 l 458 868 l 458 690 l 663 690 l 663 604 l 458 604 l 458 0 l 324 0 l 324 604 l 122 604 "},"ŧ":{"ha":435,"x_min":0,"x_max":0,"o":"m 24 424 l 131 424 l 131 571 l 1 571 l 1 669 l 131 669 l 131 890 l 254 890 l 254 669 l 396 669 l 396 571 l 254 571 l 254 424 l 379 424 l 379 340 l 254 340 l 254 178 b 329 93 254 114 281 93 b 396 100 350 93 375 96 l 396 1 b 300 -10 376 -3 342 -10 b 131 149 196 -10 131 40 l 131 340 l 24 340 "},"Ũ":{"ha":953,"x_min":0,"x_max":0,"o":"m 88 981 l 221 981 l 221 343 b 476 89 221 189 318 89 b 731 343 636 89 731 182 l 731 981 l 865 981 l 865 343 b 476 -24 865 99 701 -24 b 88 343 221 -24 88 133 m 267 1208 b 382 1258 296 1235 339 1258 b 488 1232 419 1258 453 1244 b 571 1210 517 1222 546 1210 b 685 1279 617 1210 656 1240 l 685 1161 b 568 1110 656 1133 610 1110 b 469 1133 533 1110 500 1122 b 378 1158 438 1144 408 1158 b 267 1090 333 1158 296 1129 "},"ũ":{"ha":722,"x_min":0,"x_max":0,"o":"m 79 669 l 203 669 l 203 297 b 231 135 203 203 208 165 b 347 82 246 111 283 82 b 471 143 404 82 439 104 b 515 350 508 189 515 232 l 515 669 l 638 669 l 638 0 l 517 0 l 517 108 b 313 -17 501 54 429 -17 b 128 71 247 -17 175 7 b 79 297 85 129 79 182 m 151 897 b 267 947 181 924 224 947 b 372 921 304 947 338 933 b 456 899 401 911 431 899 b 569 968 501 899 540 929 l 569 850 b 453 799 540 822 494 799 b 354 822 418 799 385 811 b 263 847 322 833 293 847 b 151 779 218 847 181 818 "},"Ū":{"ha":953,"x_min":0,"x_max":0,"o":"m 88 981 l 221 981 l 221 343 b 476 89 221 189 318 89 b 731 343 636 89 731 182 l 731 981 l 865 981 l 865 343 b 476 -24 865 99 701 -24 b 88 343 221 -24 88 133 m 267 1235 l 685 1235 l 685 1133 l 267 1133 "},"ū":{"ha":722,"x_min":0,"x_max":0,"o":"m 79 669 l 203 669 l 203 297 b 231 135 203 203 208 165 b 347 82 246 111 283 82 b 471 143 404 82 439 104 b 515 350 508 189 515 232 l 515 669 l 638 669 l 638 0 l 517 0 l 517 108 b 313 -17 501 54 429 -17 b 128 71 247 -17 175 7 b 79 297 85 129 79 182 m 151 924 l 569 924 l 569 822 l 151 822 "},"Ŭ":{"ha":953,"x_min":0,"x_max":0,"o":"m 88 981 l 221 981 l 221 343 b 476 89 221 189 318 89 b 731 343 636 89 731 182 l 731 981 l 865 981 l 865 343 b 476 -24 865 99 701 -24 b 88 343 221 -24 88 133 m 269 1290 l 367 1290 l 367 1258 b 475 1133 367 1188 400 1133 b 585 1258 550 1133 585 1188 l 585 1290 l 682 1290 l 682 1258 b 475 1049 682 1129 592 1049 b 269 1258 358 1049 269 1129 "},"ŭ":{"ha":722,"x_min":0,"x_max":0,"o":"m 79 669 l 203 669 l 203 297 b 231 135 203 203 208 165 b 347 82 246 111 283 82 b 471 143 404 82 439 104 b 515 350 508 189 515 232 l 515 669 l 638 669 l 638 0 l 517 0 l 517 108 b 313 -17 501 54 429 -17 b 128 71 247 -17 175 7 b 79 297 85 129 79 182 m 154 979 l 251 979 l 251 947 b 360 822 251 876 285 822 b 469 947 435 822 469 876 l 469 979 l 567 979 l 567 947 b 360 738 567 818 476 738 b 154 947 243 738 154 818 "},"Ů":{"ha":953,"x_min":0,"x_max":0,"o":"m 88 981 l 221 981 l 221 343 b 476 89 221 189 318 89 b 731 343 636 89 731 182 l 731 981 l 865 981 l 865 343 b 476 -24 865 99 701 -24 b 88 343 221 -24 88 133 m 476 1114 b 550 1188 517 1114 550 1147 b 476 1263 550 1229 517 1263 b 401 1188 435 1263 401 1229 b 476 1114 401 1147 435 1114 m 476 1053 b 340 1188 401 1053 340 1114 b 476 1322 340 1263 401 1322 b 611 1188 550 1322 611 1263 b 476 1053 611 1114 550 1053 "},"ů":{"ha":722,"x_min":0,"x_max":0,"o":"m 79 669 l 203 669 l 203 297 b 231 135 203 203 208 165 b 347 82 246 111 283 82 b 471 143 404 82 439 104 b 515 350 508 189 515 232 l 515 669 l 638 669 l 638 0 l 517 0 l 517 108 b 313 -17 501 54 429 -17 b 128 71 247 -17 175 7 b 79 297 85 129 79 182 m 361 803 b 435 876 401 803 435 836 b 361 951 435 918 401 951 b 286 876 319 951 286 918 b 361 803 286 836 319 803 m 361 742 b 225 876 286 742 225 803 b 361 1011 225 951 286 1011 b 496 876 435 1011 496 951 b 361 742 496 803 435 742 "},"Ű":{"ha":953,"x_min":0,"x_max":0,"o":"m 88 981 l 221 981 l 221 343 b 476 89 221 189 318 89 b 731 343 636 89 731 182 l 731 981 l 865 981 l 865 343 b 476 -24 865 99 701 -24 b 88 343 221 -24 88 133 m 422 1299 l 551 1299 l 428 1061 l 326 1061 m 603 1299 l 732 1299 l 608 1061 l 507 1061 "},"ű":{"ha":722,"x_min":0,"x_max":0,"o":"m 79 669 l 203 669 l 203 297 b 231 135 203 203 208 165 b 347 82 246 111 283 82 b 471 143 404 82 439 104 b 515 350 508 189 515 232 l 515 669 l 638 669 l 638 0 l 517 0 l 517 108 b 313 -17 501 54 429 -17 b 128 71 247 -17 175 7 b 79 297 85 129 79 182 m 307 988 l 436 988 l 313 750 l 211 750 m 488 988 l 617 988 l 493 750 l 392 750 "},"Ų":{"ha":953,"x_min":0,"x_max":0,"o":"m 650 -290 b 563 -321 628 -306 601 -321 b 417 -192 483 -321 417 -276 b 493 -24 417 -125 454 -64 l 476 -24 b 88 343 221 -24 88 133 l 88 981 l 221 981 l 221 343 b 476 89 221 189 318 89 b 731 343 636 89 731 182 l 731 981 l 865 981 l 865 343 b 576 -14 865 136 749 18 b 511 -164 544 -54 511 -122 b 593 -251 511 -232 553 -251 b 631 -240 607 -251 618 -247 "},"ų":{"ha":722,"x_min":0,"x_max":0,"o":"m 668 -290 b 581 -321 646 -306 619 -321 b 435 -192 501 -321 435 -276 b 538 0 435 -110 490 -36 l 517 0 l 517 108 b 313 -17 501 54 429 -17 b 128 71 247 -17 175 7 b 79 297 85 129 79 182 l 79 669 l 203 669 l 203 297 b 231 135 203 203 208 165 b 347 82 246 111 283 82 b 471 143 404 82 439 104 b 515 350 508 189 515 232 l 515 669 l 638 669 l 638 0 l 607 0 b 529 -164 572 -36 529 -117 b 611 -251 529 -232 571 -251 b 649 -240 625 -251 636 -247 "},"Ŵ":{"ha":1358,"x_min":0,"x_max":0,"o":"m 17 981 l 150 981 l 378 132 l 586 981 l 772 981 l 981 132 l 1207 981 l 1342 981 l 1071 0 l 886 0 l 679 861 l 472 0 l 286 0 m 626 1299 l 731 1299 l 911 1061 l 800 1061 l 679 1226 l 557 1061 l 446 1061 "},"ŵ":{"ha":1036,"x_min":0,"x_max":0,"o":"m 11 669 l 135 669 l 296 142 l 442 669 l 593 669 l 742 142 l 903 669 l 1025 669 l 813 0 l 667 0 l 517 531 l 369 0 l 222 0 m 465 988 l 569 988 l 750 750 l 639 750 l 518 915 l 396 750 l 285 750 "},"Ŷ":{"ha":868,"x_min":0,"x_max":0,"o":"m 364 456 l 0 981 l 156 981 l 433 563 l 718 981 l 868 981 l 497 456 l 497 0 l 364 0 m 381 1299 l 485 1299 l 665 1061 l 554 1061 l 433 1226 l 311 1061 l 200 1061 "},"ŷ":{"ha":633,"x_min":0,"x_max":0,"o":"m 36 -211 b 89 -219 57 -217 75 -219 b 206 -150 147 -219 188 -201 l 256 -14 l 6 669 l 133 669 l 319 146 l 504 669 l 628 669 l 314 -197 b 119 -325 282 -283 219 -325 b 36 -318 97 -325 58 -321 m 264 988 l 368 988 l 549 750 l 438 750 l 317 915 l 194 750 l 83 750 "},"Ÿ":{"ha":868,"x_min":0,"x_max":0,"o":"m 364 456 l 0 981 l 156 981 l 433 563 l 718 981 l 868 981 l 497 456 l 497 0 l 364 0 m 224 1250 l 364 1250 l 364 1104 l 224 1104 m 501 1250 l 642 1250 l 642 1104 l 501 1104 "},"Ź":{"ha":804,"x_min":0,"x_max":0,"o":"m 21 129 l 593 867 l 43 867 l 43 981 l 758 981 l 758 867 l 169 114 l 792 114 l 792 0 l 21 0 m 443 1299 l 572 1299 l 449 1061 l 347 1061 "},"ź":{"ha":594,"x_min":0,"x_max":0,"o":"m 24 111 l 410 571 l 57 571 l 57 669 l 563 669 l 563 575 l 165 100 l 571 100 l 571 0 l 24 0 m 347 988 l 476 988 l 353 750 l 251 750 "},"Ż":{"ha":804,"x_min":0,"x_max":0,"o":"m 21 129 l 593 867 l 43 867 l 43 981 l 758 981 l 758 867 l 169 114 l 792 114 l 792 0 l 21 0 m 332 1250 l 471 1250 l 471 1104 l 332 1104 "},"ż":{"ha":594,"x_min":0,"x_max":0,"o":"m 24 111 l 410 571 l 57 571 l 57 669 l 563 669 l 563 575 l 165 100 l 571 100 l 571 0 l 24 0 m 236 939 l 375 939 l 375 793 l 236 793 "},"Ž":{"ha":804,"x_min":0,"x_max":0,"o":"m 21 129 l 593 867 l 43 867 l 43 981 l 758 981 l 758 867 l 169 114 l 792 114 l 792 0 l 21 0 m 168 1299 l 279 1299 l 401 1133 l 522 1299 l 633 1299 l 453 1061 l 349 1061 "},"ž":{"ha":594,"x_min":0,"x_max":0,"o":"m 24 111 l 410 571 l 57 571 l 57 669 l 563 669 l 563 575 l 165 100 l 571 100 l 571 0 l 24 0 m 72 988 l 183 988 l 306 822 l 426 988 l 538 988 l 357 750 l 253 750 "},"ſ":{"ha":329,"x_min":0,"x_max":0,"o":"m 85 796 b 263 996 85 914 133 996 b 350 989 293 996 322 996 l 350 889 b 294 893 332 890 311 893 b 208 782 243 893 208 868 l 208 0 l 85 0 "},"Ə":{"ha":829,"x_min":0,"x_max":0,"o":"m 61 692 b 411 1006 83 824 189 1006 b 779 493 669 1006 779 801 b 414 -24 779 213 651 -24 b 49 456 179 -24 49 178 b 51 513 49 476 50 497 l 636 513 b 413 892 635 701 583 892 b 192 654 283 892 213 775 m 197 400 b 414 89 197 267 274 89 b 633 400 550 89 633 247 "},"ƒ":{"ha":894,"x_min":0,"x_max":0,"o":"m 204 -210 b 254 -218 225 -217 242 -218 b 325 -118 315 -218 319 -175 l 399 571 l 297 571 l 307 669 l 408 669 l 425 832 b 583 996 435 919 482 996 b 681 979 618 996 650 989 l 671 882 b 621 889 650 889 633 889 b 547 781 560 889 551 833 l 536 669 l 656 669 l 646 571 l 525 571 l 449 -161 b 292 -325 440 -247 393 -325 b 193 -308 257 -325 225 -318 "},"Ƶ":{"ha":804,"x_min":0,"x_max":0,"o":"m 75 546 l 343 546 l 593 867 l 43 867 l 43 981 l 758 981 l 758 867 l 507 546 l 726 546 l 726 460 l 440 460 l 169 114 l 792 114 l 792 0 l 21 0 l 21 129 l 276 460 l 75 460 "},"ƶ":{"ha":594,"x_min":0,"x_max":0,"o":"m 58 383 l 251 383 l 410 571 l 57 571 l 57 669 l 563 669 l 563 575 l 401 383 l 532 383 l 532 303 l 335 303 l 165 100 l 571 100 l 571 0 l 24 0 l 24 111 l 185 303 l 58 303 "},"Ǻ":{"ha":925,"x_min":0,"x_max":0,"o":"m 376 976 b 326 1078 346 999 326 1036 b 461 1214 326 1153 388 1214 b 596 1078 535 1214 596 1153 b 550 979 596 1039 578 1003 l 926 0 l 782 0 l 674 292 l 251 292 l 143 0 l -1 0 m 633 401 l 463 865 l 292 401 m 461 1004 b 536 1078 503 1004 536 1038 b 461 1153 536 1119 503 1153 b 386 1078 419 1153 386 1119 b 461 1004 386 1038 419 1004 m 563 1442 l 692 1442 l 517 1257 l 417 1257 "},"ǻ":{"ha":692,"x_min":0,"x_max":0,"o":"m 340 803 b 414 876 381 803 414 836 b 340 951 414 918 381 951 b 265 876 299 951 265 918 b 340 803 265 836 299 803 m 340 742 b 204 876 265 742 204 803 b 340 1011 204 951 265 1011 b 475 876 414 1011 475 951 b 340 742 475 803 414 742 m 426 1239 l 556 1239 l 379 1056 l 281 1056 m 490 0 b 481 97 489 7 481 51 b 272 -17 442 15 361 -17 b 44 178 128 -17 44 74 b 317 397 44 338 169 372 b 404 411 335 400 385 407 b 485 489 481 425 485 453 b 344 590 485 525 460 590 b 189 449 257 590 196 546 l 64 472 b 129 603 72 524 94 564 b 344 686 179 657 258 686 b 604 465 490 686 604 633 l 604 160 b 614 0 604 68 613 7 m 171 183 b 290 79 171 124 226 79 b 481 254 353 79 481 108 l 481 342 b 379 317 463 333 419 325 l 333 308 b 171 183 247 292 171 274 "},"Ǽ":{"ha":1289,"x_min":0,"x_max":0,"o":"m 592 981 l 1238 981 l 1238 868 l 792 868 l 792 563 l 1219 563 l 1219 450 l 792 450 l 792 113 l 1250 113 l 1250 0 l 657 0 l 657 347 l 353 347 l 144 0 l -12 0 m 657 463 l 657 853 l 424 463 m 896 1299 l 1025 1299 l 901 1061 l 800 1061 "},"ǽ":{"ha":1131,"x_min":0,"x_max":0,"o":"m 64 472 b 129 603 72 524 94 564 b 342 686 179 657 257 686 b 561 586 450 686 522 644 b 779 686 613 647 685 686 b 1082 333 975 686 1082 524 b 1081 304 1082 322 1081 311 l 601 304 b 789 79 601 179 653 79 b 954 222 893 79 940 158 l 1072 197 b 790 -17 1051 96 942 -17 b 538 125 675 -17 588 40 b 272 -17 490 29 406 -17 b 44 188 128 -17 44 86 b 397 400 44 326 158 400 l 479 400 l 479 456 b 342 590 479 519 439 590 b 189 449 256 590 196 546 m 475 304 l 388 304 b 171 193 229 304 171 265 b 293 81 171 124 225 81 b 475 254 363 81 475 117 m 953 400 b 779 590 953 489 893 590 b 603 400 667 590 603 503 m 604 988 l 733 988 l 610 750 l 508 750 "},"Ǿ":{"ha":1032,"x_min":0,"x_max":0,"o":"m 163 135 b 50 486 86 231 50 358 b 518 1004 50 743 192 1004 b 810 906 640 1004 738 967 l 872 981 l 982 981 l 868 844 b 982 486 946 747 982 615 b 518 -24 982 231 842 -24 b 221 75 392 -24 294 14 l 158 0 l 50 0 m 518 89 b 844 486 746 89 844 288 b 781 742 844 576 824 668 l 301 171 b 518 89 354 121 425 89 m 188 486 b 249 238 188 397 207 308 l 728 810 b 518 892 676 860 607 892 b 188 486 288 892 188 688 m 560 1315 l 689 1315 l 565 1078 l 464 1078 "},"ǿ":{"ha":743,"x_min":0,"x_max":0,"o":"m 122 104 b 49 333 72 169 49 253 b 372 686 49 506 163 686 b 567 618 450 686 517 660 l 611 669 l 710 669 l 619 564 b 694 333 668 499 694 414 b 372 -17 694 163 581 -17 b 174 51 290 -17 225 10 l 129 0 l 31 0 m 496 536 b 372 588 464 568 422 588 b 174 333 238 588 174 454 b 203 197 174 286 183 238 m 244 133 b 372 82 276 101 318 82 b 568 333 506 82 568 213 b 538 471 568 381 558 429 m 411 988 l 540 988 l 417 750 l 315 750 "},"Ș":{"ha":878,"x_min":0,"x_max":0,"o":"m 182 322 b 440 89 190 164 310 89 b 696 267 599 89 696 167 b 501 428 696 379 607 404 l 407 449 b 71 722 236 486 71 528 b 442 1004 71 892 218 1004 b 810 724 674 1004 779 875 l 672 699 b 442 892 647 836 551 892 b 207 722 315 892 207 840 b 429 572 207 625 318 597 l 535 549 b 833 274 686 514 833 460 b 438 -24 833 99 675 -24 b 44 300 238 -24 72 83 m 400 -76 l 524 -76 l 428 -315 l 349 -315 "},"ș":{"ha":654,"x_min":0,"x_max":0,"o":"m 165 238 b 328 79 171 143 225 79 b 486 189 411 79 486 113 b 357 288 486 264 407 278 l 278 303 b 61 494 193 319 61 346 b 329 686 61 590 149 686 b 596 476 456 686 571 614 l 476 453 b 324 590 465 532 431 590 b 182 496 222 590 182 536 b 321 400 182 432 267 410 l 374 390 b 614 193 481 371 614 340 b 328 -17 614 60 483 -17 b 38 210 136 -17 47 115 m 274 -76 l 397 -76 l 301 -315 l 222 -315 "},"Ț":{"ha":783,"x_min":0,"x_max":0,"o":"m 324 868 l 13 868 l 13 981 l 771 981 l 771 868 l 458 868 l 458 0 l 324 0 m 326 -76 l 450 -76 l 354 -315 l 275 -315 "},"ț":{"ha":435,"x_min":0,"x_max":0,"o":"m 131 571 l 1 571 l 1 669 l 131 669 l 131 890 l 254 890 l 254 669 l 396 669 l 396 571 l 254 571 l 254 178 b 329 93 254 114 281 93 b 396 100 350 93 375 96 l 396 1 b 300 -10 376 -3 342 -10 b 131 149 196 -10 131 40 m 203 -76 l 326 -76 l 231 -315 l 151 -315 "},"ȷ":{"ha":294,"x_min":0,"x_max":0,"o":"m -60 -214 b -8 -219 -42 -217 -24 -219 b 88 -117 79 -219 88 -162 l 88 669 l 210 669 l 210 -121 b 26 -325 210 -242 182 -325 b -60 -318 -8 -325 -32 -324 "},"ə":{"ha":713,"x_min":0,"x_max":0,"o":"m 60 472 b 340 686 79 564 182 686 b 663 336 565 686 663 517 b 356 -17 663 153 557 -17 b 50 339 161 -17 50 136 b 51 365 50 349 50 360 l 538 365 b 346 590 536 475 481 590 b 178 447 239 590 192 511 m 178 269 b 356 79 178 179 238 79 b 535 269 471 79 535 165 "},"ˆ":{"ha":293,"x_min":0,"x_max":0,"o":"m 94 988 l 199 988 l 379 750 l 268 750 l 147 915 l 25 750 l -86 750 "},"ˇ":{"ha":293,"x_min":0,"x_max":0,"o":"m -86 988 l 25 988 l 147 822 l 268 988 l 379 988 l 199 750 l 94 750 "},"ˉ":{"ha":293,"x_min":0,"x_max":0,"o":"m -62 924 l 356 924 l 356 822 l -62 822 "},"˘":{"ha":293,"x_min":0,"x_max":0,"o":"m -60 979 l 38 979 l 38 947 b 146 822 38 876 71 822 b 256 947 221 822 256 876 l 256 979 l 353 979 l 353 947 b 146 738 353 818 263 738 b -60 947 29 738 -60 818 "},"˙":{"ha":293,"x_min":0,"x_max":0,"o":"m 78 939 l 217 939 l 217 793 l 78 793 "},"˚":{"ha":293,"x_min":0,"x_max":0,"o":"m 147 803 b 221 876 188 803 221 836 b 147 951 221 918 188 951 b 72 876 106 951 72 918 b 147 803 72 836 106 803 m 147 742 b 11 876 72 742 11 803 b 147 1011 11 951 72 1011 b 282 876 221 1011 282 951 b 147 742 282 803 221 742 "},"˛":{"ha":293,"x_min":0,"x_max":0,"o":"m 246 -290 b 158 -321 224 -306 197 -321 b 13 -192 79 -321 13 -276 b 131 10 13 -101 81 -22 l 196 10 b 107 -164 160 -19 107 -112 b 189 -251 107 -232 149 -251 b 226 -240 203 -251 214 -247 "},"˜":{"ha":293,"x_min":0,"x_max":0,"o":"m -62 897 b 53 947 -33 924 10 947 b 158 921 90 947 124 933 b 242 899 188 911 217 899 b 356 968 288 899 326 929 l 356 850 b 239 799 326 822 281 799 b 140 822 204 799 171 811 b 49 847 108 833 79 847 b -62 779 4 847 -33 818 "},"˝":{"ha":293,"x_min":0,"x_max":0,"o":"m 93 988 l 222 988 l 99 750 l -3 750 m 274 988 l 403 988 l 279 750 l 178 750 "},"̀":{"ha":0,"x_min":0,"x_max":0,"o":"m -404 988 l -275 988 l -179 750 l -281 750 "},"́":{"ha":0,"x_min":0,"x_max":0,"o":"m -308 988 l -179 988 l -303 750 l -404 750 "},"̂":{"ha":0,"x_min":0,"x_max":0,"o":"m -343 988 l -239 988 l -58 750 l -169 750 l -290 915 l -412 750 l -524 750 "},"̃":{"ha":0,"x_min":0,"x_max":0,"o":"m -500 897 b -385 947 -471 924 -428 947 b -279 921 -347 947 -314 933 b -196 899 -250 911 -221 899 b -82 968 -150 899 -111 929 l -82 850 b -199 799 -111 822 -157 799 b -297 822 -233 799 -267 811 b -389 847 -329 833 -358 847 b -500 779 -433 847 -471 818 "},"̄":{"ha":0,"x_min":0,"x_max":0,"o":"m -500 924 l -82 924 l -82 822 l -500 822 "},"̆":{"ha":0,"x_min":0,"x_max":0,"o":"m -497 979 l -400 979 l -400 947 b -292 822 -400 876 -367 822 b -182 947 -217 822 -182 876 l -182 979 l -85 979 l -85 947 b -292 738 -85 818 -175 738 b -497 947 -408 738 -497 818 "},"̇":{"ha":0,"x_min":0,"x_max":0,"o":"m -361 939 l -222 939 l -222 793 l -361 793 "},"̈":{"ha":0,"x_min":0,"x_max":0,"o":"m -500 939 l -360 939 l -360 793 l -500 793 m -222 939 l -82 939 l -82 793 l -222 793 "},"̊":{"ha":0,"x_min":0,"x_max":0,"o":"m -290 803 b -217 876 -250 803 -217 836 b -290 951 -217 918 -250 951 b -365 876 -332 951 -365 918 b -290 803 -365 836 -332 803 m -290 742 b -426 876 -365 742 -426 803 b -290 1011 -426 951 -365 1011 b -156 876 -217 1011 -156 951 b -290 742 -156 803 -217 742 "},"̋":{"ha":0,"x_min":0,"x_max":0,"o":"m -399 988 l -269 988 l -393 750 l -494 750 m -218 988 l -89 988 l -212 750 l -314 750 "},"̌":{"ha":0,"x_min":0,"x_max":0,"o":"m -524 988 l -412 988 l -290 822 l -169 988 l -58 988 l -239 750 l -343 750 "},"̒":{"ha":0,"x_min":0,"x_max":0,"o":"m -283 988 l -203 988 l -256 750 l -381 750 "},"̓":{"ha":0,"x_min":0,"x_max":0,"o":"m -328 988 l -204 988 l -299 750 l -378 750 "},"̦":{"ha":0,"x_min":0,"x_max":0,"o":"m -328 -76 l -204 -76 l -300 -315 l -379 -315 "},"̧":{"ha":0,"x_min":0,"x_max":0,"o":"m -418 -242 b -321 -267 -396 -254 -357 -267 b -236 -201 -276 -267 -236 -246 b -306 -143 -236 -158 -275 -143 b -364 -156 -329 -143 -350 -150 l -387 -135 l -297 8 l -237 8 l -306 -97 l -303 -100 b -251 -93 -287 -94 -276 -93 b -142 -197 -210 -93 -142 -115 b -306 -321 -142 -249 -178 -321 b -442 -290 -357 -321 -406 -306 "},"̨":{"ha":0,"x_min":0,"x_max":0,"o":"m -175 -290 b -262 -321 -197 -306 -224 -321 b -408 -192 -342 -321 -408 -276 b -290 10 -408 -101 -340 -22 l -225 10 b -314 -164 -261 -19 -314 -112 b -232 -251 -314 -232 -272 -251 b -194 -240 -218 -251 -207 -247 "},"Δ":{"ha":882,"x_min":0,"x_max":0,"o":"m 39 74 l 381 981 l 506 981 l 843 74 l 843 0 l 39 0 m 701 118 l 443 810 l 181 118 "},"Ω":{"ha":1006,"x_min":0,"x_max":0,"o":"m 65 107 l 253 107 b 85 524 161 200 85 336 b 501 1004 85 818 269 1004 b 918 524 733 1004 918 818 b 749 107 918 336 842 200 l 938 107 l 938 0 l 586 0 l 586 83 b 793 515 692 151 793 301 b 501 897 793 735 683 897 b 210 515 318 897 210 735 b 417 83 210 301 311 151 l 417 0 l 65 0 "},"μ":{"ha":726,"x_min":0,"x_max":0,"o":"m 83 669 l 206 669 l 206 279 b 350 82 206 175 224 82 b 518 311 479 82 518 193 l 518 669 l 640 669 l 640 0 l 519 0 l 519 107 b 325 -17 504 54 429 -17 b 206 19 290 -17 244 -8 l 206 -310 l 83 -310 "},"π":{"ha":786,"x_min":0,"x_max":0,"o":"m 96 0 b 182 569 142 158 175 407 b 31 550 106 569 63 561 l 13 628 b 214 669 51 651 107 669 l 761 669 l 750 569 l 640 569 l 640 156 b 650 0 640 83 644 36 l 528 0 b 519 146 522 33 519 81 l 519 569 l 304 569 b 219 0 296 413 263 147 "},"Ẁ":{"ha":1358,"x_min":0,"x_max":0,"o":"m 17 981 l 150 981 l 378 132 l 586 981 l 772 981 l 981 132 l 1207 981 l 1342 981 l 1071 0 l 886 0 l 679 861 l 472 0 l 286 0 m 511 1299 l 640 1299 l 736 1061 l 635 1061 "},"ẁ":{"ha":1036,"x_min":0,"x_max":0,"o":"m 11 669 l 135 669 l 296 142 l 442 669 l 593 669 l 742 142 l 903 669 l 1025 669 l 813 0 l 667 0 l 517 531 l 369 0 l 222 0 m 350 988 l 479 988 l 575 750 l 474 750 "},"Ẃ":{"ha":1358,"x_min":0,"x_max":0,"o":"m 17 981 l 150 981 l 378 132 l 586 981 l 772 981 l 981 132 l 1207 981 l 1342 981 l 1071 0 l 886 0 l 679 861 l 472 0 l 286 0 m 721 1299 l 850 1299 l 726 1061 l 625 1061 "},"ẃ":{"ha":1036,"x_min":0,"x_max":0,"o":"m 11 669 l 135 669 l 296 142 l 442 669 l 593 669 l 742 142 l 903 669 l 1025 669 l 813 0 l 667 0 l 517 531 l 369 0 l 222 0 m 560 988 l 689 988 l 565 750 l 464 750 "},"Ẅ":{"ha":1358,"x_min":0,"x_max":0,"o":"m 17 981 l 150 981 l 378 132 l 586 981 l 772 981 l 981 132 l 1207 981 l 1342 981 l 1071 0 l 886 0 l 679 861 l 472 0 l 286 0 m 469 1250 l 610 1250 l 610 1104 l 469 1104 m 747 1250 l 888 1250 l 888 1104 l 747 1104 "},"ẅ":{"ha":1036,"x_min":0,"x_max":0,"o":"m 11 669 l 135 669 l 296 142 l 442 669 l 593 669 l 742 142 l 903 669 l 1025 669 l 813 0 l 667 0 l 517 531 l 369 0 l 222 0 m 308 939 l 449 939 l 449 793 l 308 793 m 586 939 l 726 939 l 726 793 l 586 793 "},"Ẋ":{"ha":907,"x_min":0,"x_max":0,"o":"m 375 526 l 50 981 l 206 981 l 457 622 l 706 981 l 860 981 l 533 526 l 910 0 l 753 0 l 451 429 l 153 0 l -4 0 m 389 1250 l 528 1250 l 528 1104 l 389 1104 "},"ẋ":{"ha":601,"x_min":0,"x_max":0,"o":"m 229 349 l 22 669 l 161 669 l 306 440 l 454 669 l 590 669 l 375 347 l 596 0 l 458 0 l 303 253 l 142 0 l 1 0 m 238 939 l 376 939 l 376 793 l 238 793 "},"Ỳ":{"ha":868,"x_min":0,"x_max":0,"o":"m 364 456 l 0 981 l 156 981 l 433 563 l 718 981 l 868 981 l 497 456 l 497 0 l 364 0 m 265 1299 l 394 1299 l 490 1061 l 389 1061 "},"ỳ":{"ha":633,"x_min":0,"x_max":0,"o":"m 36 -211 b 89 -219 57 -217 75 -219 b 206 -150 147 -219 188 -201 l 256 -14 l 6 669 l 133 669 l 319 146 l 504 669 l 628 669 l 314 -197 b 119 -325 282 -283 219 -325 b 36 -318 97 -325 58 -321 m 149 988 l 278 988 l 374 750 l 272 750 "}," ":{"ha":910,"x_min":0,"x_max":0,"o":""}," ":{"ha":344,"x_min":0,"x_max":0,"o":""},"​":{"ha":0,"x_min":0,"x_max":0,"o":""},"–":{"ha":721,"x_min":0,"x_max":0,"o":"m 79 517 l 640 517 l 640 399 l 79 399 "},"—":{"ha":1090,"x_min":0,"x_max":0,"o":"m 79 517 l 1011 517 l 1011 399 l 79 399 "},"‘":{"ha":382,"x_min":0,"x_max":0,"o":"m 206 981 l 308 981 l 207 583 l 71 583 "},"’":{"ha":382,"x_min":0,"x_max":0,"o":"m 185 981 l 322 981 l 186 583 l 83 583 "},"‚":{"ha":382,"x_min":0,"x_max":0,"o":"m 147 156 l 285 156 l 150 -242 l 46 -242 "},"“":{"ha":590,"x_min":0,"x_max":0,"o":"m 206 981 l 308 981 l 207 583 l 71 583 m 414 981 l 517 981 l 415 583 l 278 583 "},"”":{"ha":590,"x_min":0,"x_max":0,"o":"m 185 981 l 322 981 l 186 583 l 83 583 m 393 981 l 531 981 l 394 583 l 292 583 "},"„":{"ha":590,"x_min":0,"x_max":0,"o":"m 147 156 l 285 156 l 150 -242 l 46 -242 m 356 156 l 493 156 l 358 -242 l 254 -242 "},"†":{"ha":706,"x_min":0,"x_max":0,"o":"m 293 569 l 60 569 l 60 681 l 293 681 l 293 981 l 417 981 l 417 681 l 646 681 l 646 569 l 417 569 l 417 -54 l 293 -54 "},"‡":{"ha":682,"x_min":0,"x_max":0,"o":"m 282 229 l 60 229 l 60 339 l 282 339 l 282 611 l 60 611 l 60 721 l 282 721 l 282 982 l 404 982 l 404 721 l 622 721 l 622 611 l 404 611 l 404 339 l 622 339 l 622 229 l 404 229 l 404 -54 l 282 -54 "},"•":{"ha":582,"x_min":0,"x_max":0,"o":"m 292 310 b 107 493 190 310 107 392 b 292 676 107 594 190 676 b 475 493 393 676 475 594 b 292 310 475 392 393 310 "},"…":{"ha":1033,"x_min":0,"x_max":0,"o":"m 94 156 l 250 156 l 250 0 l 94 0 m 439 156 l 594 156 l 594 0 l 439 0 m 783 156 l 939 156 l 939 0 l 783 0 "},"‰":{"ha":1436,"x_min":0,"x_max":0,"o":"m 1233 -12 b 1031 161 1126 -12 1058 65 b 828 -12 1003 65 935 -12 b 611 260 685 -12 611 128 b 828 532 611 390 685 532 b 1031 357 935 532 1003 453 b 1233 532 1057 453 1125 532 b 1450 260 1376 532 1450 390 b 1233 -12 1450 128 1376 -12 m 203 449 b -14 721 60 449 -14 589 b 203 993 -14 851 60 993 b 419 721 346 993 419 851 b 203 449 419 589 346 449 m 790 981 l 903 981 l 240 0 l 128 0 m 203 528 b 318 721 279 528 318 628 b 203 914 318 814 279 914 b 88 721 125 914 88 814 b 203 528 88 628 125 528 m 828 67 b 943 260 904 67 943 167 b 828 453 943 353 904 453 b 713 260 750 453 713 353 b 828 67 713 167 750 67 m 1233 67 b 1349 260 1310 67 1349 167 b 1233 453 1349 353 1310 453 b 1118 260 1156 453 1118 353 b 1233 67 1118 167 1156 67 "},"‹":{"ha":394,"x_min":0,"x_max":0,"o":"m 72 513 l 306 689 l 306 572 l 151 460 l 306 347 l 306 231 l 72 408 "},"›":{"ha":394,"x_min":0,"x_max":0,"o":"m 89 347 l 243 460 l 89 572 l 89 689 l 322 513 l 322 408 l 89 231 "},"⁄":{"ha":219,"x_min":0,"x_max":0,"o":"m 385 981 l 497 981 l -165 0 l -278 0 "},"⁰":{"ha":406,"x_min":0,"x_max":0,"o":"m 203 764 b 318 957 279 764 318 864 b 203 1150 318 1050 279 1150 b 88 957 125 1150 88 1050 b 203 764 88 864 125 764 m 203 685 b -14 957 60 685 -14 825 b 203 1229 -14 1088 60 1229 b 419 957 346 1229 419 1088 b 203 685 419 825 346 685 "},"⁴":{"ha":406,"x_min":0,"x_max":0,"o":"m -10 903 l 197 1217 l 318 1217 l 318 904 l 414 904 l 414 825 l 318 825 l 318 697 l 224 697 l 224 825 l -10 825 m 224 904 l 224 1114 l 93 904 "},"⁵":{"ha":406,"x_min":0,"x_max":0,"o":"m 108 850 b 201 764 117 800 147 764 b 294 871 257 764 294 810 b 200 976 294 921 264 976 b 115 908 151 976 122 939 l 19 928 l 56 1217 l 371 1217 l 371 1138 l 133 1138 l 118 1010 b 222 1056 131 1031 169 1056 b 389 871 332 1056 389 960 b 201 685 389 768 311 685 b 15 829 92 685 33 749 "},"⁶":{"ha":406,"x_min":0,"x_max":0,"o":"m 290 1081 b 215 1150 275 1133 250 1150 b 108 989 139 1150 114 1060 b 219 1049 118 1018 165 1049 b 393 863 329 1049 393 961 b 214 685 393 750 299 685 b 11 946 57 685 11 832 b 221 1229 11 1083 64 1229 b 386 1101 288 1229 360 1192 m 208 764 b 299 869 254 764 299 800 b 208 969 299 933 256 969 b 117 868 153 969 117 922 b 208 764 117 801 160 764 "},"⁷":{"ha":406,"x_min":0,"x_max":0,"o":"m 56 697 b 289 1138 107 829 275 1119 l 11 1138 l 11 1217 l 394 1217 l 394 1139 b 163 697 360 1096 214 821 "},"⁸":{"ha":406,"x_min":0,"x_max":0,"o":"m 113 975 b 26 1090 57 994 26 1036 b 203 1229 26 1147 79 1229 b 378 1090 325 1229 378 1147 b 292 975 378 1036 347 994 b 397 842 358 953 397 914 b 203 685 397 764 326 685 b 8 842 79 685 8 764 b 113 975 8 914 47 953 m 103 846 b 203 764 103 803 139 764 b 303 846 267 764 303 803 b 203 932 303 881 288 932 b 103 846 122 932 103 883 m 121 1082 b 203 1014 121 1049 144 1014 b 283 1082 261 1014 283 1049 b 203 1150 283 1115 258 1150 b 121 1082 146 1150 121 1115 "},"⁹":{"ha":406,"x_min":0,"x_max":0,"o":"m 113 840 b 189 764 124 785 154 764 b 269 819 226 764 251 786 b 297 938 286 851 294 910 b 188 878 288 910 240 878 b 13 1057 76 878 13 963 b 193 1229 13 1164 103 1229 b 394 969 347 1229 394 1078 b 347 775 394 900 381 829 b 183 685 315 721 263 685 b 14 818 118 685 36 729 m 196 957 b 285 1051 249 957 285 1008 b 194 1150 285 1108 244 1150 b 107 1051 150 1150 107 1110 b 196 957 107 996 151 957 "},"₀":{"ha":406,"x_min":0,"x_max":0,"o":"m 203 -281 b 318 -87 279 -281 318 -181 b 203 106 318 6 279 106 b 88 -87 125 106 88 6 b 203 -281 88 -181 125 -281 m 203 -360 b -14 -87 60 -360 -14 -219 b 203 185 -14 43 60 185 b 419 -87 346 185 419 43 b 203 -360 419 -219 346 -360 "},"₁":{"ha":406,"x_min":0,"x_max":0,"o":"m 175 22 l 78 22 l 78 103 l 115 103 b 183 172 165 103 183 117 l 275 172 l 275 -347 l 175 -347 "},"₂":{"ha":406,"x_min":0,"x_max":0,"o":"m 1 -258 b 200 -118 35 -244 133 -183 b 278 25 244 -75 278 -29 b 201 106 278 74 246 106 b 114 -12 150 106 114 78 l 11 10 b 201 185 13 136 111 185 b 378 25 303 185 378 121 b 271 -174 378 -61 319 -125 b 135 -268 239 -207 163 -254 l 388 -268 l 388 -347 l 1 -347 "},"₃":{"ha":406,"x_min":0,"x_max":0,"o":"m 108 -161 b 203 -281 111 -235 146 -281 b 296 -196 265 -281 296 -239 b 190 -114 296 -160 275 -114 l 131 -114 l 131 -37 l 188 -37 b 283 33 249 -37 283 -1 b 204 106 283 76 250 106 b 117 4 138 106 118 57 l 17 28 b 204 185 19 96 78 185 b 385 32 300 185 385 135 b 285 -75 385 7 363 -64 b 396 -206 375 -85 396 -160 b 203 -360 396 -285 325 -360 b 8 -183 110 -360 18 -311 "},"₄":{"ha":406,"x_min":0,"x_max":0,"o":"m -10 -142 l 197 172 l 318 172 l 318 -140 l 414 -140 l 414 -219 l 318 -219 l 318 -347 l 224 -347 l 224 -219 l -10 -219 m 224 -140 l 224 69 l 93 -140 "},"₅":{"ha":406,"x_min":0,"x_max":0,"o":"m 108 -194 b 201 -281 117 -244 147 -281 b 294 -174 257 -281 294 -235 b 200 -68 294 -124 264 -68 b 115 -136 151 -68 122 -106 l 19 -117 l 56 172 l 371 172 l 371 93 l 133 93 l 118 -35 b 222 11 131 -14 169 11 b 389 -174 332 11 389 -85 b 201 -360 389 -276 311 -360 b 15 -215 92 -360 33 -296 "},"₆":{"ha":406,"x_min":0,"x_max":0,"o":"m 290 36 b 215 106 275 89 250 106 b 108 -56 139 106 114 15 b 219 4 118 -26 165 4 b 393 -182 329 4 393 -83 b 214 -360 393 -294 299 -360 b 11 -99 57 -360 11 -212 b 221 185 11 39 64 185 b 386 57 288 185 360 147 m 208 -281 b 299 -175 254 -281 299 -244 b 208 -75 299 -111 256 -75 b 117 -176 153 -75 117 -122 b 208 -281 117 -243 160 -281 "},"₇":{"ha":406,"x_min":0,"x_max":0,"o":"m 56 -347 b 289 93 107 -215 275 75 l 11 93 l 11 172 l 394 172 l 394 94 b 163 -347 360 51 214 -224 "},"₈":{"ha":406,"x_min":0,"x_max":0,"o":"m 113 -69 b 26 46 57 -50 26 -8 b 203 185 26 103 79 185 b 378 46 325 185 378 103 b 292 -69 378 -8 347 -50 b 397 -203 358 -92 397 -131 b 203 -360 397 -281 326 -360 b 8 -203 79 -360 8 -281 b 113 -69 8 -131 47 -92 m 103 -199 b 203 -281 103 -242 139 -281 b 303 -199 267 -281 303 -242 b 203 -112 303 -164 288 -112 b 103 -199 122 -112 103 -161 m 121 38 b 203 -31 121 4 144 -31 b 283 38 261 -31 283 4 b 203 106 283 71 258 106 b 121 38 146 106 121 71 "},"₉":{"ha":406,"x_min":0,"x_max":0,"o":"m 113 -204 b 189 -281 124 -260 154 -281 b 269 -225 226 -281 251 -258 b 297 -107 286 -193 294 -135 b 188 -167 288 -135 240 -167 b 13 13 76 -167 13 -82 b 193 185 13 119 103 185 b 394 -75 347 185 394 33 b 347 -269 394 -144 381 -215 b 183 -360 315 -324 263 -360 b 14 -226 118 -360 36 -315 m 196 -87 b 285 7 249 -87 285 -36 b 194 106 285 64 244 106 b 107 7 150 106 107 65 b 196 -87 107 -49 151 -87 "},"€":{"ha":894,"x_min":0,"x_max":0,"o":"m 25 625 l 99 625 b 521 1006 143 840 293 1006 b 881 753 708 1006 826 900 l 763 713 b 521 894 725 819 649 894 b 240 625 371 894 275 781 l 661 625 l 631 547 l 228 547 b 226 490 226 528 226 510 l 226 457 l 603 457 l 574 379 l 235 379 b 518 88 261 210 351 88 b 769 299 658 88 738 185 l 890 265 b 518 -24 844 111 718 -24 b 93 379 271 -24 128 146 l -6 379 l 25 457 l 86 457 l 86 490 b 89 547 86 510 88 529 l -6 547 "},"™":{"ha":1097,"x_min":0,"x_max":0,"o":"m 489 981 l 600 981 l 725 608 l 851 981 l 963 981 l 963 519 l 890 519 l 890 888 l 765 519 l 686 519 l 561 888 l 561 519 l 489 519 m 226 915 l 78 915 l 78 981 l 450 981 l 450 915 l 304 915 l 304 519 l 226 519 "},"Ω":{"ha":1006,"x_min":0,"x_max":0,"o":"m 65 107 l 253 107 b 85 524 161 200 85 336 b 501 1004 85 818 269 1004 b 918 524 733 1004 918 818 b 749 107 918 336 842 200 l 938 107 l 938 0 l 586 0 l 586 83 b 793 515 692 151 793 301 b 501 897 793 735 683 897 b 210 515 318 897 210 735 b 417 83 210 301 311 151 l 417 0 l 65 0 "},"⅐":{"ha":1031,"x_min":0,"x_max":0,"o":"m 175 831 l 78 831 l 78 911 l 115 911 b 183 981 165 911 183 925 l 275 981 l 275 461 l 175 461 m 790 981 l 903 981 l 240 0 l 128 0 m 681 0 b 914 440 732 132 900 422 l 636 440 l 636 519 l 1019 519 l 1019 442 b 788 0 985 399 839 124 "},"⅑":{"ha":1031,"x_min":0,"x_max":0,"o":"m 175 831 l 78 831 l 78 911 l 115 911 b 183 981 165 911 183 925 l 275 981 l 275 461 l 175 461 m 790 981 l 903 981 l 240 0 l 128 0 m 738 143 b 814 67 749 88 779 67 b 894 122 851 67 876 89 b 922 240 911 154 919 213 b 813 181 913 213 865 181 b 638 360 701 181 638 265 b 818 532 638 467 728 532 b 1019 272 972 532 1019 381 b 972 78 1019 203 1006 132 b 808 -12 940 24 888 -12 b 639 121 743 -12 661 32 m 821 260 b 910 354 874 260 910 311 b 819 453 910 411 869 453 b 732 354 775 453 732 413 b 821 260 732 299 776 260 "},"⅒":{"ha":1436,"x_min":0,"x_max":0,"o":"m 175 831 l 78 831 l 78 911 l 115 911 b 183 981 165 911 183 925 l 275 981 l 275 461 l 175 461 m 790 981 l 903 981 l 240 0 l 128 0 m 800 369 l 703 369 l 703 450 l 740 450 b 808 519 790 450 808 464 l 900 519 l 900 0 l 800 0 m 1233 67 b 1349 260 1310 67 1349 167 b 1233 453 1349 353 1310 453 b 1118 260 1156 453 1118 353 b 1233 67 1118 167 1156 67 m 1233 -12 b 1017 260 1090 -12 1017 128 b 1233 532 1017 390 1090 532 b 1450 260 1376 532 1450 390 b 1233 -12 1450 128 1376 -12 "},"⅓":{"ha":1031,"x_min":0,"x_max":0,"o":"m 175 831 l 78 831 l 78 911 l 115 911 b 183 981 165 911 183 925 l 275 981 l 275 461 l 175 461 m 790 981 l 903 981 l 240 0 l 128 0 m 733 186 b 828 67 736 113 771 67 b 921 151 890 67 921 108 b 815 233 921 188 900 233 l 756 233 l 756 310 l 813 310 b 908 381 874 310 908 346 b 829 453 908 424 875 453 b 742 351 763 453 743 404 l 642 375 b 829 532 644 443 703 532 b 1010 379 925 532 1010 482 b 910 272 1010 354 988 283 b 1021 142 1000 263 1021 188 b 828 -12 1021 63 950 -12 b 633 164 735 -12 643 36 "},"⅔":{"ha":1031,"x_min":0,"x_max":0,"o":"m 1 550 b 200 690 35 564 133 625 b 278 833 244 733 278 779 b 201 914 278 882 246 914 b 114 796 150 914 114 886 l 11 818 b 201 993 13 944 111 993 b 378 833 303 993 378 929 b 271 635 378 747 319 683 b 135 540 239 601 163 554 l 388 540 l 388 461 l 1 461 m 790 981 l 903 981 l 240 0 l 128 0 m 733 186 b 828 67 736 113 771 67 b 921 151 890 67 921 108 b 815 233 921 188 900 233 l 756 233 l 756 310 l 813 310 b 908 381 874 310 908 346 b 829 453 908 424 875 453 b 742 351 763 453 743 404 l 642 375 b 829 532 644 443 703 532 b 1010 379 925 532 1010 482 b 910 272 1010 354 988 283 b 1021 142 1000 263 1021 188 b 828 -12 1021 63 950 -12 b 633 164 735 -12 643 36 "},"⅕":{"ha":1031,"x_min":0,"x_max":0,"o":"m 175 831 l 78 831 l 78 911 l 115 911 b 183 981 165 911 183 925 l 275 981 l 275 461 l 175 461 m 790 981 l 903 981 l 240 0 l 128 0 m 733 153 b 826 67 742 103 772 67 b 919 174 882 67 919 113 b 825 279 919 224 889 279 b 740 211 776 279 747 242 l 644 231 l 681 519 l 996 519 l 996 440 l 758 440 l 743 313 b 847 358 756 333 794 358 b 1014 174 957 358 1014 263 b 826 -12 1014 71 936 -12 b 640 132 717 -12 658 51 "},"⅖":{"ha":1031,"x_min":0,"x_max":0,"o":"m 1 550 b 200 690 35 564 133 625 b 278 833 244 733 278 779 b 201 914 278 882 246 914 b 114 796 150 914 114 886 l 11 818 b 201 993 13 944 111 993 b 378 833 303 993 378 929 b 271 635 378 747 319 683 b 135 540 239 601 163 554 l 388 540 l 388 461 l 1 461 m 790 981 l 903 981 l 240 0 l 128 0 m 733 153 b 826 67 742 103 772 67 b 919 174 882 67 919 113 b 825 279 919 224 889 279 b 740 211 776 279 747 242 l 644 231 l 681 519 l 996 519 l 996 440 l 758 440 l 743 313 b 847 358 756 333 794 358 b 1014 174 957 358 1014 263 b 826 -12 1014 71 936 -12 b 640 132 717 -12 658 51 "},"⅗":{"ha":1031,"x_min":0,"x_max":0,"o":"m 108 647 b 203 528 111 574 146 528 b 296 613 265 528 296 569 b 190 694 296 649 275 694 l 131 694 l 131 771 l 188 771 b 283 842 249 771 283 807 b 204 914 283 885 250 914 b 117 813 138 914 118 865 l 17 836 b 204 993 19 904 78 993 b 385 840 300 993 385 943 b 285 733 385 815 363 744 b 396 603 375 724 396 649 b 203 449 396 524 325 449 b 8 625 110 449 18 497 m 790 981 l 903 981 l 240 0 l 128 0 m 733 153 b 826 67 742 103 772 67 b 919 174 882 67 919 113 b 825 279 919 224 889 279 b 740 211 776 279 747 242 l 644 231 l 681 519 l 996 519 l 996 440 l 758 440 l 743 313 b 847 358 756 333 794 358 b 1014 174 957 358 1014 263 b 826 -12 1014 71 936 -12 b 640 132 717 -12 658 51 "},"⅘":{"ha":1031,"x_min":0,"x_max":0,"o":"m -10 667 l 197 981 l 318 981 l 318 668 l 414 668 l 414 589 l 318 589 l 318 461 l 224 461 l 224 589 l -10 589 m 224 668 l 224 878 l 93 668 m 790 981 l 903 981 l 240 0 l 128 0 m 733 153 b 826 67 742 103 772 67 b 919 174 882 67 919 113 b 825 279 919 224 889 279 b 740 211 776 279 747 242 l 644 231 l 681 519 l 996 519 l 996 440 l 758 440 l 743 313 b 847 358 756 333 794 358 b 1014 174 957 358 1014 263 b 826 -12 1014 71 936 -12 b 640 132 717 -12 658 51 "},"⅙":{"ha":1031,"x_min":0,"x_max":0,"o":"m 175 831 l 78 831 l 78 911 l 115 911 b 183 981 165 911 183 925 l 275 981 l 275 461 l 175 461 m 790 981 l 903 981 l 240 0 l 128 0 m 915 383 b 840 453 900 436 875 453 b 733 292 764 453 739 363 b 844 351 743 321 790 351 b 1018 165 954 351 1018 264 b 839 -12 1018 53 924 -12 b 636 249 682 -12 636 135 b 846 532 636 386 689 532 b 1011 404 913 532 985 494 m 833 67 b 924 172 879 67 924 103 b 833 272 924 236 881 272 b 742 171 778 272 742 225 b 833 67 742 104 785 67 "},"⅚":{"ha":1031,"x_min":0,"x_max":0,"o":"m 108 614 b 201 528 117 564 147 528 b 294 635 257 528 294 574 b 200 740 294 685 264 740 b 115 672 151 740 122 703 l 19 692 l 56 981 l 371 981 l 371 901 l 133 901 l 118 774 b 222 819 131 794 169 819 b 389 635 332 819 389 724 b 201 449 389 532 311 449 b 15 593 92 449 33 513 m 790 981 l 903 981 l 240 0 l 128 0 m 915 383 b 840 453 900 436 875 453 b 733 292 764 453 739 363 b 844 351 743 321 790 351 b 1018 165 954 351 1018 264 b 839 -12 1018 53 924 -12 b 636 249 682 -12 636 135 b 846 532 636 386 689 532 b 1011 404 913 532 985 494 m 833 67 b 924 172 879 67 924 103 b 833 272 924 236 881 272 b 742 171 778 272 742 225 b 833 67 742 104 785 67 "},"⅛":{"ha":1031,"x_min":0,"x_max":0,"o":"m 175 831 l 78 831 l 78 911 l 115 911 b 183 981 165 911 183 925 l 275 981 l 275 461 l 175 461 m 790 981 l 903 981 l 240 0 l 128 0 m 738 278 b 651 393 682 297 651 339 b 828 532 651 450 704 532 b 1003 393 950 532 1003 450 b 917 278 1003 339 972 297 b 1022 144 983 256 1022 217 b 828 -12 1022 67 951 -12 b 633 144 704 -12 633 67 b 738 278 633 217 672 256 m 728 149 b 828 67 728 106 764 67 b 928 149 892 67 928 106 b 828 235 928 183 913 235 b 728 149 747 235 728 186 m 746 385 b 828 317 746 351 769 317 b 908 385 886 317 908 351 b 828 453 908 418 883 453 b 746 385 771 453 746 418 "},"⅜":{"ha":1031,"x_min":0,"x_max":0,"o":"m 108 647 b 203 528 111 574 146 528 b 296 613 265 528 296 569 b 190 694 296 649 275 694 l 131 694 l 131 771 l 188 771 b 283 842 249 771 283 807 b 204 914 283 885 250 914 b 117 813 138 914 118 865 l 17 836 b 204 993 19 904 78 993 b 385 840 300 993 385 943 b 285 733 385 815 363 744 b 396 603 375 724 396 649 b 203 449 396 524 325 449 b 8 625 110 449 18 497 m 790 981 l 903 981 l 240 0 l 128 0 m 738 278 b 651 393 682 297 651 339 b 828 532 651 450 704 532 b 1003 393 950 532 1003 450 b 917 278 1003 339 972 297 b 1022 144 983 256 1022 217 b 828 -12 1022 67 951 -12 b 633 144 704 -12 633 67 b 738 278 633 217 672 256 m 728 149 b 828 67 728 106 764 67 b 928 149 892 67 928 106 b 828 235 928 183 913 235 b 728 149 747 235 728 186 m 746 385 b 828 317 746 351 769 317 b 908 385 886 317 908 351 b 828 453 908 418 883 453 b 746 385 771 453 746 418 "},"⅝":{"ha":1031,"x_min":0,"x_max":0,"o":"m 108 614 b 201 528 117 564 147 528 b 294 635 257 528 294 574 b 200 740 294 685 264 740 b 115 672 151 740 122 703 l 19 692 l 56 981 l 371 981 l 371 901 l 133 901 l 118 774 b 222 819 131 794 169 819 b 389 635 332 819 389 724 b 201 449 389 532 311 449 b 15 593 92 449 33 513 m 790 981 l 903 981 l 240 0 l 128 0 m 738 278 b 651 393 682 297 651 339 b 828 532 651 450 704 532 b 1003 393 950 532 1003 450 b 917 278 1003 339 972 297 b 1022 144 983 256 1022 217 b 828 -12 1022 67 951 -12 b 633 144 704 -12 633 67 b 738 278 633 217 672 256 m 728 149 b 828 67 728 106 764 67 b 928 149 892 67 928 106 b 828 235 928 183 913 235 b 728 149 747 235 728 186 m 746 385 b 828 317 746 351 769 317 b 908 385 886 317 908 351 b 828 453 908 418 883 453 b 746 385 771 453 746 418 "},"⅞":{"ha":1031,"x_min":0,"x_max":0,"o":"m 56 461 b 289 901 107 593 275 883 l 11 901 l 11 981 l 394 981 l 394 903 b 163 461 360 860 214 585 m 790 981 l 903 981 l 240 0 l 128 0 m 738 278 b 651 393 682 297 651 339 b 828 532 651 450 704 532 b 1003 393 950 532 1003 450 b 917 278 1003 339 972 297 b 1022 144 983 256 1022 217 b 828 -12 1022 67 951 -12 b 633 144 704 -12 633 67 b 738 278 633 217 672 256 m 728 149 b 828 67 728 106 764 67 b 928 149 892 67 928 106 b 828 235 928 183 913 235 b 728 149 747 235 728 186 m 746 385 b 828 317 746 351 769 317 b 908 385 886 317 908 351 b 828 453 908 418 883 453 b 746 385 771 453 746 418 "},"⅟":{"ha":625,"x_min":0,"x_max":0,"o":"m 175 831 l 78 831 l 78 911 l 115 911 b 183 981 165 911 183 925 l 275 981 l 275 461 l 175 461 m 790 981 l 903 981 l 240 0 l 128 0 "},"Ⅰ":{"ha":331,"x_min":0,"x_max":0,"o":"m 99 981 l 232 981 l 232 0 l 99 0 "},"Ⅱ":{"ha":661,"x_min":0,"x_max":0,"o":"m 99 981 l 232 981 l 232 0 l 99 0 m 429 981 l 563 981 l 563 0 l 429 0 "},"Ⅲ":{"ha":992,"x_min":0,"x_max":0,"o":"m 99 981 l 232 981 l 232 0 l 99 0 m 429 981 l 563 981 l 563 0 l 429 0 m 760 981 l 893 981 l 893 0 l 760 0 "},"Ⅳ":{"ha":1236,"x_min":0,"x_max":0,"o":"m 99 981 l 232 981 l 232 0 l 99 0 m 335 981 l 474 981 l 781 144 l 1097 981 l 1233 981 l 857 0 l 699 0 "},"Ⅴ":{"ha":906,"x_min":0,"x_max":0,"o":"m 4 981 l 143 981 l 450 144 l 767 981 l 903 981 l 526 0 l 368 0 "},"Ⅵ":{"ha":1236,"x_min":0,"x_max":0,"o":"m 4 981 l 143 981 l 450 144 l 767 981 l 903 981 l 526 0 l 368 0 m 1004 981 l 1138 981 l 1138 0 l 1004 0 "},"Ⅶ":{"ha":1567,"x_min":0,"x_max":0,"o":"m 4 981 l 143 981 l 450 144 l 767 981 l 903 981 l 526 0 l 368 0 m 1004 981 l 1138 981 l 1138 0 l 1004 0 m 1335 981 l 1468 981 l 1468 0 l 1335 0 "},"Ⅷ":{"ha":1897,"x_min":0,"x_max":0,"o":"m 4 981 l 143 981 l 450 144 l 767 981 l 903 981 l 526 0 l 368 0 m 1004 981 l 1138 981 l 1138 0 l 1004 0 m 1335 981 l 1468 981 l 1468 0 l 1335 0 m 1665 981 l 1799 981 l 1799 0 l 1665 0 "},"Ⅸ":{"ha":1238,"x_min":0,"x_max":0,"o":"m 99 981 l 232 981 l 232 0 l 99 0 m 706 526 l 381 981 l 536 981 l 788 622 l 1036 981 l 1190 981 l 864 526 l 1240 0 l 1083 0 l 782 429 l 483 0 l 326 0 "},"Ⅹ":{"ha":907,"x_min":0,"x_max":0,"o":"m 375 526 l 50 981 l 206 981 l 457 622 l 706 981 l 860 981 l 533 526 l 910 0 l 753 0 l 451 429 l 153 0 l -4 0 "},"Ⅺ":{"ha":1238,"x_min":0,"x_max":0,"o":"m 375 526 l 50 981 l 206 981 l 457 622 l 706 981 l 860 981 l 533 526 l 910 0 l 753 0 l 451 429 l 153 0 l -4 0 m 1006 981 l 1139 981 l 1139 0 l 1006 0 "},"Ⅻ":{"ha":1568,"x_min":0,"x_max":0,"o":"m 375 526 l 50 981 l 206 981 l 457 622 l 706 981 l 860 981 l 533 526 l 910 0 l 753 0 l 451 429 l 153 0 l -4 0 m 1006 981 l 1139 981 l 1139 0 l 1006 0 m 1336 981 l 1469 981 l 1469 0 l 1336 0 "},"Ⅼ":{"ha":750,"x_min":0,"x_max":0,"o":"m 99 981 l 232 981 l 232 113 l 732 113 l 732 0 l 99 0 "},"Ⅽ":{"ha":996,"x_min":0,"x_max":0,"o":"m 946 324 b 518 -24 908 147 763 -24 b 50 490 213 -24 50 213 b 518 1004 50 764 222 1004 b 938 689 744 1004 885 860 l 804 661 b 518 892 765 782 675 892 b 188 490 307 892 188 703 b 518 89 188 275 299 89 b 813 350 690 89 786 221 "},"Ⅾ":{"ha":981,"x_min":0,"x_max":0,"o":"m 410 113 b 793 490 697 113 793 288 b 410 868 793 693 697 868 l 232 868 l 232 113 m 99 981 l 419 981 b 931 490 668 981 931 860 b 419 0 931 121 668 0 l 99 0 "},"Ⅿ":{"ha":1210,"x_min":0,"x_max":0,"o":"m 99 981 l 303 981 l 607 140 l 904 981 l 1111 981 l 1111 0 l 983 0 l 983 838 l 688 0 l 526 0 l 226 838 l 226 0 l 99 0 "},"ⅰ":{"ha":293,"x_min":0,"x_max":0,"o":"m 85 669 l 208 669 l 208 0 l 85 0 m 85 981 l 208 981 l 208 843 l 85 843 "},"ⅱ":{"ha":586,"x_min":0,"x_max":0,"o":"m 85 669 l 208 669 l 208 0 l 85 0 m 85 981 l 208 981 l 208 843 l 85 843 m 378 669 l 501 669 l 501 0 l 378 0 m 378 981 l 501 981 l 501 843 l 378 843 "},"ⅲ":{"ha":879,"x_min":0,"x_max":0,"o":"m 85 669 l 208 669 l 208 0 l 85 0 m 85 981 l 208 981 l 208 843 l 85 843 m 378 669 l 501 669 l 501 0 l 378 0 m 378 981 l 501 981 l 501 843 l 378 843 m 671 669 l 794 669 l 794 0 l 671 0 m 671 981 l 794 981 l 794 843 l 671 843 "},"ⅳ":{"ha":943,"x_min":0,"x_max":0,"o":"m 85 669 l 208 669 l 208 0 l 85 0 m 85 981 l 208 981 l 208 843 l 85 843 m 299 669 l 425 669 l 617 140 l 814 669 l 938 669 l 686 0 l 543 0 "},"ⅴ":{"ha":650,"x_min":0,"x_max":0,"o":"m 6 669 l 132 669 l 324 140 l 521 669 l 644 669 l 393 0 l 250 0 "},"ⅵ":{"ha":943,"x_min":0,"x_max":0,"o":"m 6 669 l 132 669 l 324 140 l 521 669 l 644 669 l 393 0 l 250 0 m 735 669 l 858 669 l 858 0 l 735 0 m 735 981 l 858 981 l 858 843 l 735 843 "},"ⅶ":{"ha":1236,"x_min":0,"x_max":0,"o":"m 6 669 l 132 669 l 324 140 l 521 669 l 644 669 l 393 0 l 250 0 m 735 669 l 858 669 l 858 0 l 735 0 m 735 981 l 858 981 l 858 843 l 735 843 m 1028 669 l 1151 669 l 1151 0 l 1028 0 m 1028 981 l 1151 981 l 1151 843 l 1028 843 "},"ⅷ":{"ha":1529,"x_min":0,"x_max":0,"o":"m 6 669 l 132 669 l 324 140 l 521 669 l 644 669 l 393 0 l 250 0 m 735 669 l 858 669 l 858 0 l 735 0 m 735 981 l 858 981 l 858 843 l 735 843 m 1028 669 l 1151 669 l 1151 0 l 1028 0 m 1028 981 l 1151 981 l 1151 843 l 1028 843 m 1321 669 l 1444 669 l 1444 0 l 1321 0 m 1321 981 l 1444 981 l 1444 843 l 1321 843 "},"ⅸ":{"ha":894,"x_min":0,"x_max":0,"o":"m 85 669 l 208 669 l 208 0 l 85 0 m 85 981 l 208 981 l 208 843 l 85 843 m 522 349 l 315 669 l 454 669 l 599 440 l 747 669 l 883 669 l 668 347 l 889 0 l 751 0 l 596 253 l 435 0 l 294 0 "},"ⅹ":{"ha":601,"x_min":0,"x_max":0,"o":"m 229 349 l 22 669 l 161 669 l 306 440 l 454 669 l 590 669 l 375 347 l 596 0 l 458 0 l 303 253 l 142 0 l 1 0 "},"ⅺ":{"ha":894,"x_min":0,"x_max":0,"o":"m 229 349 l 22 669 l 161 669 l 306 440 l 454 669 l 590 669 l 375 347 l 596 0 l 458 0 l 303 253 l 142 0 l 1 0 m 686 669 l 810 669 l 810 0 l 686 0 m 686 981 l 810 981 l 810 843 l 686 843 "},"ⅻ":{"ha":1188,"x_min":0,"x_max":0,"o":"m 229 349 l 22 669 l 161 669 l 306 440 l 454 669 l 590 669 l 375 347 l 596 0 l 458 0 l 303 253 l 142 0 l 1 0 m 686 669 l 810 669 l 810 0 l 686 0 m 686 981 l 810 981 l 810 843 l 686 843 m 979 669 l 1103 669 l 1103 0 l 979 0 m 979 981 l 1103 981 l 1103 843 l 979 843 "},"ⅼ":{"ha":293,"x_min":0,"x_max":0,"o":"m 85 981 l 208 981 l 208 0 l 85 0 "},"ⅽ":{"ha":713,"x_min":0,"x_max":0,"o":"m 668 224 b 368 -17 654 131 563 -17 b 49 333 146 -17 49 157 b 368 686 49 511 157 686 b 665 454 561 686 647 553 l 542 432 b 368 588 535 479 494 588 b 174 333 235 588 174 458 b 368 82 174 210 228 82 b 544 249 486 82 535 182 "},"ⅾ":{"ha":771,"x_min":0,"x_max":0,"o":"m 567 101 b 357 -17 540 36 446 -17 b 49 333 121 -17 49 199 b 363 686 49 481 129 686 b 564 571 449 686 535 632 l 564 981 l 686 981 l 686 0 l 567 0 m 375 82 b 565 333 447 82 565 131 b 381 588 565 538 447 588 b 174 335 238 588 174 458 b 375 82 174 229 229 82 "},"ⅿ":{"ha":1096,"x_min":0,"x_max":0,"o":"m 85 669 l 206 669 l 206 561 b 396 686 219 615 289 686 b 557 611 446 686 507 672 b 592 550 572 593 583 572 b 793 686 614 617 685 686 b 968 601 856 686 921 665 b 1017 372 1008 546 1017 493 l 1017 0 l 894 0 l 894 399 b 764 588 894 479 885 588 b 646 519 710 588 672 560 b 613 369 619 479 613 440 l 613 0 l 490 0 l 490 399 b 361 588 490 479 481 588 b 242 519 306 588 268 560 b 208 336 211 474 208 432 l 208 0 l 85 0 "},"↉":{"ha":1031,"x_min":0,"x_max":0,"o":"m 203 528 b 318 721 279 528 318 628 b 203 914 318 814 279 914 b 88 721 125 914 88 814 b 203 528 88 628 125 528 m 203 449 b -14 721 60 449 -14 589 b 203 993 -14 851 60 993 b 419 721 346 993 419 851 b 203 449 419 589 346 449 m 790 981 l 903 981 l 240 0 l 128 0 m 733 186 b 828 67 736 113 771 67 b 921 151 890 67 921 108 b 815 233 921 188 900 233 l 756 233 l 756 310 l 813 310 b 908 381 874 310 908 346 b 829 453 908 424 875 453 b 742 351 763 453 743 404 l 642 375 b 829 532 644 443 703 532 b 1010 379 925 532 1010 482 b 910 272 1010 354 988 283 b 1021 142 1000 263 1021 188 b 828 -12 1021 63 950 -12 b 633 164 735 -12 643 36 "},"←":{"ha":894,"x_min":0,"x_max":0,"o":"m 424 38 l 29 432 l 424 826 l 497 753 l 219 483 l 865 483 l 865 379 l 219 379 l 497 110 "},"↑":{"ha":894,"x_min":0,"x_max":0,"o":"m 53 456 l 447 850 l 842 456 l 768 382 l 499 660 l 499 14 l 394 14 l 394 658 l 126 382 "},"→":{"ha":894,"x_min":0,"x_max":0,"o":"m 397 110 l 675 379 l 29 379 l 29 483 l 675 483 l 397 753 l 471 826 l 865 432 l 471 38 "},"↓":{"ha":894,"x_min":0,"x_max":0,"o":"m 842 408 l 447 14 l 53 408 l 126 482 l 396 204 l 396 850 l 500 850 l 500 204 l 768 482 "},"↖":{"ha":894,"x_min":0,"x_max":0,"o":"m 150 207 l 150 765 l 708 765 l 708 661 l 322 665 l 778 207 l 704 133 l 250 593 l 254 207 "},"↗":{"ha":894,"x_min":0,"x_max":0,"o":"m 674 207 l 678 593 l 224 133 l 150 207 l 606 665 l 219 661 l 219 765 l 778 765 l 778 207 "},"↘":{"ha":894,"x_min":0,"x_max":0,"o":"m 778 692 l 778 133 l 219 133 l 219 238 l 606 233 l 150 693 l 224 765 l 678 307 l 674 692 "},"↙":{"ha":894,"x_min":0,"x_max":0,"o":"m 254 692 l 250 307 l 704 765 l 778 693 l 322 233 l 708 238 l 708 133 l 150 133 l 150 692 "},"∂":{"ha":894,"x_min":0,"x_max":0,"o":"m 182 922 b 415 1004 229 961 304 1004 b 761 540 604 1004 761 822 b 407 -17 761 240 642 -17 b 139 317 224 -17 139 154 b 436 686 139 540 271 686 b 638 571 536 686 600 635 b 404 906 632 764 533 906 b 226 821 322 906 264 857 m 629 435 b 447 588 611 493 542 588 b 263 317 343 588 263 458 b 413 82 263 188 319 82 b 629 435 526 82 611 254 "},"∆":{"ha":882,"x_min":0,"x_max":0,"o":"m 39 74 l 381 981 l 506 981 l 843 74 l 843 0 l 39 0 m 701 118 l 443 810 l 181 118 "},"∏":{"ha":864,"x_min":0,"x_max":0,"o":"m 185 868 l 36 868 l 36 981 l 826 981 l 826 868 l 676 868 l 676 -93 l 554 -93 l 554 868 l 307 868 l 307 -93 l 185 -93 "},"∑":{"ha":894,"x_min":0,"x_max":0,"o":"m 108 -24 l 460 443 l 108 907 l 108 981 l 767 981 l 767 868 l 278 868 l 606 443 l 278 14 l 767 14 l 767 -99 l 108 -99 "},"−":{"ha":894,"x_min":0,"x_max":0,"o":"m 29 483 l 865 483 l 865 379 l 29 379 "},"∕":{"ha":318,"x_min":0,"x_max":0,"o":"m 435 981 l 547 981 l -115 0 l -228 0 "},"∙":{"ha":392,"x_min":0,"x_max":0,"o":"m 100 453 b 196 549 100 506 143 549 b 292 453 249 549 292 506 b 196 358 292 400 249 358 b 100 453 143 358 100 400 "},"√":{"ha":894,"x_min":0,"x_max":0,"o":"m 214 547 l 108 513 l 76 606 l 294 683 l 489 117 l 707 1074 l 817 1074 l 550 -93 l 435 -93 "},"∞":{"ha":1111,"x_min":0,"x_max":0,"o":"m 556 403 b 258 224 481 310 390 224 b 6 472 126 224 6 328 b 263 724 6 619 125 724 b 556 547 390 724 482 642 b 849 724 629 642 722 724 b 1106 472 988 724 1106 619 b 853 224 1106 328 985 224 b 556 403 722 224 631 310 m 497 471 b 263 631 439 546 364 631 b 106 472 169 631 106 557 b 265 318 106 389 172 318 b 497 471 363 318 440 400 m 615 471 b 847 318 672 400 751 318 b 1007 472 940 318 1007 389 b 850 631 1007 557 944 631 b 615 471 750 631 674 546 "},"∫":{"ha":894,"x_min":0,"x_max":0,"o":"m 231 -197 b 289 -219 247 -210 274 -219 b 392 10 389 -219 392 -60 b 378 664 392 221 378 432 b 596 996 378 819 421 996 b 686 969 626 996 665 982 l 664 868 b 604 890 646 881 619 890 b 501 661 504 890 501 731 b 517 7 501 436 517 225 b 297 -325 517 -147 474 -325 b 207 -299 268 -325 228 -311 "},"≈":{"ha":894,"x_min":0,"x_max":0,"o":"m 29 158 b 269 372 69 317 175 372 b 658 239 442 372 542 239 b 813 369 739 239 785 274 l 872 358 b 632 143 831 200 726 143 b 243 276 460 143 360 276 b 89 147 161 276 115 243 m 29 385 b 269 600 69 543 175 600 b 658 467 442 600 542 467 b 813 596 739 467 785 501 l 872 585 b 632 371 831 426 726 371 b 243 504 460 371 360 504 b 89 374 161 504 115 469 "},"≠":{"ha":894,"x_min":0,"x_max":0,"o":"m 29 603 l 554 603 l 690 742 l 779 742 l 643 603 l 865 603 l 865 500 l 543 500 l 422 375 l 865 375 l 865 274 l 324 274 l 168 114 l 78 114 l 233 274 l 29 274 l 29 375 l 332 375 l 454 500 l 29 500 "},"≤":{"ha":894,"x_min":0,"x_max":0,"o":"m 56 611 l 840 883 l 840 778 l 183 558 l 840 340 l 840 233 l 56 507 m 56 104 l 839 104 l 839 0 l 56 0 "},"≥":{"ha":894,"x_min":0,"x_max":0,"o":"m 840 507 l 56 233 l 56 340 l 711 558 l 56 778 l 56 883 l 840 611 m 840 0 l 56 0 l 56 104 l 840 104 "},"▯":{"ha":726,"x_min":0,"x_max":0,"o":"m 85 981 l 642 981 l 642 0 l 85 0 m 568 74 l 568 907 l 158 907 l 158 74 "},"◊":{"ha":894,"x_min":0,"x_max":0,"o":"m 124 481 l 406 1025 l 493 1025 l 769 481 l 490 -64 l 404 -64 m 640 481 l 449 867 l 251 481 l 447 94 "},"ﬀ":{"ha":806,"x_min":0,"x_max":0,"o":"m 529 571 l 257 571 l 257 0 l 133 0 l 133 571 l 0 571 l 0 669 l 133 669 l 133 796 b 311 996 133 914 182 996 b 399 989 342 996 372 996 l 399 889 b 343 893 381 890 360 893 b 257 782 292 893 257 868 l 257 669 l 529 669 l 529 796 b 707 996 529 914 578 996 b 793 989 736 996 767 996 l 793 889 b 739 893 776 890 754 893 b 651 782 686 893 651 868 l 651 669 l 790 669 l 790 571 l 651 571 l 651 0 l 529 0 "},"ﬁ":{"ha":704,"x_min":0,"x_max":0,"o":"m 133 571 l 0 571 l 0 669 l 133 669 l 133 796 b 311 996 133 914 182 996 b 399 989 342 996 372 996 l 399 889 b 343 893 381 890 360 893 b 257 782 292 893 257 868 l 257 669 l 396 669 l 396 571 l 257 571 l 257 0 l 133 0 m 497 669 l 619 669 l 619 0 l 497 0 m 497 981 l 619 981 l 619 843 l 497 843 "},"ﬂ":{"ha":704,"x_min":0,"x_max":0,"o":"m 133 571 l 0 571 l 0 669 l 133 669 l 133 796 b 311 996 133 914 182 996 b 399 989 342 996 372 996 l 399 889 b 343 893 381 890 360 893 b 257 782 292 893 257 868 l 257 669 l 396 669 l 396 571 l 257 571 l 257 0 l 133 0 m 497 981 l 619 981 l 619 0 l 497 0 "},"ﬃ":{"ha":1099,"x_min":0,"x_max":0,"o":"m 529 571 l 257 571 l 257 0 l 133 0 l 133 571 l 0 571 l 0 669 l 133 669 l 133 796 b 311 996 133 914 182 996 b 399 989 342 996 372 996 l 399 889 b 343 893 381 890 360 893 b 257 782 292 893 257 868 l 257 669 l 529 669 l 529 796 b 707 996 529 914 578 996 b 793 989 736 996 767 996 l 793 889 b 739 893 776 890 754 893 b 651 782 686 893 651 868 l 651 669 l 790 669 l 790 571 l 651 571 l 651 0 l 529 0 m 892 669 l 1014 669 l 1014 0 l 892 0 m 892 981 l 1014 981 l 1014 843 l 892 843 "},"ﬄ":{"ha":1099,"x_min":0,"x_max":0,"o":"m 529 571 l 257 571 l 257 0 l 133 0 l 133 571 l 0 571 l 0 669 l 133 669 l 133 796 b 311 996 133 914 182 996 b 399 989 342 996 372 996 l 399 889 b 343 893 381 890 360 893 b 257 782 292 893 257 868 l 257 669 l 529 669 l 529 796 b 707 996 529 914 578 996 b 793 989 736 996 767 996 l 793 889 b 739 893 776 890 754 893 b 651 782 686 893 651 868 l 651 669 l 790 669 l 790 571 l 651 571 l 651 0 l 529 0 m 892 981 l 1014 981 l 1014 0 l 892 0 "},"﻿":{"ha":0,"x_min":0,"x_max":0,"o":""}}}
